<svg xmlns="http://www.w3.org/2000/svg" viewBox="0 0 1949.07 740.56">
    <defs>
        <style>.mls-1{isolation:isolate;}.mls-2{fill:#00116f;}.mls-3{fill:#100053;}.mls-4{opacity:0.86;}.mls-4,.mls-8{mix-blend-mode:screen;}.mls-5{mix-blend-mode:soft-light;}.mls-6,.mls-7{fill:#fff;}.mls-6{fill-rule:evenodd;}.mls-8{opacity:0.96;}.mls-9{fill:#80ffdb;}.mls-10{fill:#0560ff;}.mls-11{fill:#34c6ff;}.mls-12{fill:#6930c3;}</style>
    </defs>
    <g class="mls-1">
        <g id="Layer_1" data-name="Layer 1">
            <rect class="mls-2" x="4.07" y="75.27" width="1920" height="665.29"/>
            <path class="mls-3" d="M1870.26,342.44l0-.08,0,.08c-36.51,57.84-85,57.84-121.47,0h0c-36.51,57.88-85,57.88-121.47,0l0,0c-18.27,28.92-39.52,43.38-60.73,43.38s-42.5-14.46-60.77-43.42l-.05.08c-36.51,57.84-84.92,57.84-121.43,0l0-.08,0,0c-36.51,57.88-85,57.88-121.47,0l0,0c-36.51,57.84-85,57.84-121.47,0l0,0c-36.51,57.88-85,57.88-121.47,0l-.05,0,0,0c-36.51,57.88-84.92,57.88-121.43,0l0,0,0,0c-36.51,57.88-84.92,57.88-121.43,0l0,0,0,0c-36.51,57.88-84.92,57.88-121.43,0l0,0,0,0c-36.5,57.88-85,57.88-121.46,0h0c-36.5,57.88-85,57.88-121.47,0-36.5,57.88-85,57.84-121.47,0h0c-36.51,57.88-85,57.88-121.47,0v0h0c-36.51,57.88-85,57.92-121.47,0-15.64,24.75-33.45,38.87-51.57,42.44v53.5H1945V383.67C1919.26,391.46,1892.55,377.74,1870.26,342.44Z" transform="translate(4.07 -342.36)"/>
            <path class="mls-2" d="M1870.26,342.44l0-.08,0,.08c-36.51,57.84-85,57.84-121.47,0h0c-36.51,57.88-85,57.88-121.47,0l0,0c-18.27,28.92-39.52,43.38-60.73,43.38s-42.5-14.46-60.77-43.42l-.05.08c-36.51,57.84-84.92,57.84-121.43,0l0-.08,0,0c-36.51,57.88-85,57.88-121.47,0l0,0c-36.51,57.84-85,57.84-121.47,0l0,0c-36.51,57.88-85,57.88-121.47,0l-.05,0,0,0c-36.51,57.88-84.92,57.88-121.43,0l0,0,0,0c-36.51,57.88-84.92,57.88-121.43,0l0,0,0,0c-36.51,57.88-84.92,57.88-121.43,0l0,0,0,0c-36.5,57.88-85,57.88-121.46,0h0c-36.5,57.88-85,57.88-121.47,0-36.5,57.88-85,57.84-121.47,0h0c-36.51,57.88-85,57.88-121.47,0v0h0c-36.51,57.88-85,57.92-121.47,0-15.64,24.75-33.45,38.87-51.57,42.44v53.5H1945V383.67C1919.26,391.46,1892.55,377.74,1870.26,342.44Z" transform="translate(4.07 -342.36)"/>
            <g class="mls-4">
                <g class="mls-5">
                    <path class="mls-6" d="M82.47,986.51a3,3,0,1,1-3-3A2.95,2.95,0,0,1,82.47,986.51Z" transform="translate(4.07 -342.36)"/>
                    <path class="mls-6" d="M6.58,801.43a3,3,0,1,1-3-2.95A3,3,0,0,1,6.58,801.43Z" transform="translate(4.07 -342.36)"/>
                    <path class="mls-6" d="M79.52,930.59a3,3,0,1,1-3-3A3,3,0,0,1,79.52,930.59Z" transform="translate(4.07 -342.36)"/>
                    <circle class="mls-7" cx="122.97" cy="656.29" r="2.09"/>
                    <path class="mls-6" d="M36,967.33a2.09,2.09,0,1,1-2.09-2.09A2.1,2.1,0,0,1,36,967.33Z" transform="translate(4.07 -342.36)"/>
                    <circle class="mls-7" cx="141.27" cy="506.24" r="2.09"/>
                    <path class="mls-6" d="M140.87,937.21a2.09,2.09,0,1,1-2.09-2.09A2.08,2.08,0,0,1,140.87,937.21Z" transform="translate(4.07 -342.36)"/>
                    <path class="mls-6" d="M20.24,942.81a1.54,1.54,0,1,1-1.53-1.54A1.54,1.54,0,0,1,20.24,942.81Z" transform="translate(4.07 -342.36)"/>
                    <path class="mls-6" d="M86,974.87a1,1,0,1,1-1-1A1,1,0,0,1,86,974.87Z" transform="translate(4.07 -342.36)"/>
                    <circle class="mls-7" cx="32.53" cy="623.99" r="0.99"/>
                    <circle class="mls-7" cx="33.51" cy="647.11" r="0.99"/>
                    <path class="mls-6" d="M43.06,983.55a1,1,0,1,1-1-1A1,1,0,0,1,43.06,983.55Z" transform="translate(4.07 -342.36)"/>
                    <path class="mls-6" d="M16.73,987.88a1,1,0,0,1-2,0,1,1,0,1,1,2,0Z" transform="translate(4.07 -342.36)"/>
                    <circle class="mls-7" cx="97.86" cy="568.92" r="0.99"/>
                    <path class="mls-6" d="M46.72,967.82a.5.5,0,1,1-1,0,.5.5,0,0,1,1,0Z" transform="translate(4.07 -342.36)"/>
                    <path class="mls-6" d="M39.32,975.86a.49.49,0,1,1-.49-.49A.49.49,0,0,1,39.32,975.86Z" transform="translate(4.07 -342.36)"/>
                    <path class="mls-6" d="M43.06,959.89a1,1,0,1,1-1-1A1,1,0,0,1,43.06,959.89Z" transform="translate(4.07 -342.36)"/>
                    <path class="mls-6" d="M16.73,841.11a1,1,0,1,1-1-1A1,1,0,0,1,16.73,841.11Z" transform="translate(4.07 -342.36)"/>
                    <path class="mls-6" d="M34.92,906.58a1,1,0,1,1-1-1A1,1,0,0,1,34.92,906.58Z" transform="translate(4.07 -342.36)"/>
                    <path class="mls-6" d="M261.67,827a3,3,0,1,1,0,4.18A2.95,2.95,0,0,1,261.67,827Z" transform="translate(4.07 -342.36)"/>
                    <circle class="mls-7" cx="144.95" cy="494.81" r="2.96"/>
                    <path class="mls-6" d="M224.22,868.59a3,3,0,1,1,0,4.18A2.95,2.95,0,0,1,224.22,868.59Z" transform="translate(4.07 -342.36)"/>
                    <path class="mls-6" d="M243,791.14a2.09,2.09,0,1,1,0,3A2.09,2.09,0,0,1,243,791.14Z" transform="translate(4.07 -342.36)"/>
                    <path class="mls-6" d="M281,873.37a2.09,2.09,0,1,1,0,3A2.08,2.08,0,0,1,281,873.37Z" transform="translate(4.07 -342.36)"/>
                    <path class="mls-6" d="M185.52,820.52a2.09,2.09,0,1,1,0,3A2.08,2.08,0,0,1,185.52,820.52Z" transform="translate(4.07 -342.36)"/>
                    <circle class="mls-7" cx="279.93" cy="560.59" r="1.54"/>
                    <path class="mls-6" d="M250.93,832.67a1,1,0,0,1,1.39,1.39,1,1,0,0,1-1.39,0A1,1,0,0,1,250.93,832.67Z" transform="translate(4.07 -342.36)"/>
                    <path class="mls-6" d="M284.91,878.71a1,1,0,1,1,0,1.4A1,1,0,0,1,284.91,878.71Z" transform="translate(4.07 -342.36)"/>
                    <path class="mls-6" d="M300.56,861.67a1,1,0,1,1,0,1.39A1,1,0,0,1,300.56,861.67Z" transform="translate(4.07 -342.36)"/>
                    <path class="mls-6" d="M287.45,856.92a1,1,0,0,1,1.39,1.39,1,1,0,0,1-1.39,0A1,1,0,0,1,287.45,856.92Z" transform="translate(4.07 -342.36)"/>
                    <path class="mls-6" d="M199.78,871.46a1,1,0,0,1,1.39,0,1,1,0,0,1-1.39,1.39A1,1,0,0,1,199.78,871.46Z" transform="translate(4.07 -342.36)"/>
                    <circle class="mls-7" cx="278.16" cy="523.45" r="0.49"/>
                    <path class="mls-6" d="M312.2,913.74a.49.49,0,1,1,0,.7A.5.5,0,0,1,312.2,913.74Z" transform="translate(4.07 -342.36)"/>
                    <circle class="mls-7" cx="151.11" cy="440.98" r="0.49"/>
                    <circle class="mls-7" cx="289.07" cy="522.99" r="0.49"/>
                    <path class="mls-6" d="M270.72,873.65a1,1,0,0,1,1.39,0,1,1,0,0,1,0,1.39,1,1,0,1,1-1.39-1.39Z" transform="translate(4.07 -342.36)"/>
                    <path class="mls-6" d="M302,906.32a1,1,0,1,1,0,1.4A1,1,0,0,1,302,906.32Z" transform="translate(4.07 -342.36)"/>
                    <path class="mls-6" d="M106.31,783.62a1,1,0,1,1,0,1.4A1,1,0,0,1,106.31,783.62Z" transform="translate(4.07 -342.36)"/>
                    <path class="mls-6" d="M278.17,948.46a1,1,0,0,1,1.4,0,1,1,0,1,1-1.4,0Z" transform="translate(4.07 -342.36)"/>
                    <path class="mls-6" d="M238.77,917.1a1,1,0,1,1,0,1.39A1,1,0,0,1,238.77,917.1Z" transform="translate(4.07 -342.36)"/>
                    <circle class="mls-7" cx="385.07" cy="540.58" r="2.96"/>
                    <path class="mls-6" d="M435.93,606a3,3,0,1,1-2,3.68A3,3,0,0,1,435.93,606Z" transform="translate(4.07 -342.36)"/>
                    <path class="mls-6" d="M438.79,838a3,3,0,1,1,0,4.18A3,3,0,0,1,438.79,838Z" transform="translate(4.07 -342.36)"/>
                    <circle class="mls-7" cx="347.62" cy="582.2" r="2.96"/>
                    <circle class="mls-7" cx="356.79" cy="612.94" r="2.96"/>
                    <path class="mls-6" d="M360.26,845a2.09,2.09,0,1,1,0,3A2.11,2.11,0,0,1,360.26,845Z" transform="translate(4.07 -342.36)"/>
                    <path class="mls-6" d="M476.69,790.8a2.09,2.09,0,1,1,0,3A2.11,2.11,0,0,1,476.69,790.8Z" transform="translate(4.07 -342.36)"/>
                    <path class="mls-6" d="M460,807.05a2.09,2.09,0,1,1,0,3A2.11,2.11,0,0,1,460,807.05Z" transform="translate(4.07 -342.36)"/>
                    <path class="mls-6" d="M446.62,638.44a2.09,2.09,0,1,1,0,2.95A2.08,2.08,0,0,1,446.62,638.44Z" transform="translate(4.07 -342.36)"/>
                    <path class="mls-6" d="M302.76,874.4a2.09,2.09,0,1,1,0,3A2.09,2.09,0,0,1,302.76,874.4Z" transform="translate(4.07 -342.36)"/>
                    <circle class="mls-7" cx="445.59" cy="325.67" r="1.54"/>
                    <circle class="mls-7" cx="457.88" cy="355.73" r="1.54"/>
                    <circle class="mls-7" cx="350.58" cy="605.29" r="1.54"/>
                    <circle class="mls-7" cx="261.45" cy="661.67" r="1.54"/>
                    <path class="mls-6" d="M368.17,886.55a1,1,0,0,1,1.39,0,1,1,0,1,1-1.39,0Z" transform="translate(4.07 -342.36)"/>
                    <path class="mls-6" d="M450.57,643.78a1,1,0,1,1,0,1.4A1,1,0,0,1,450.57,643.78Z" transform="translate(4.07 -342.36)"/>
                    <path class="mls-6" d="M352.9,945.36a1,1,0,1,1,0,1.39A1,1,0,0,1,352.9,945.36Z" transform="translate(4.07 -342.36)"/>
                    <path class="mls-6" d="M511.25,635.05a1,1,0,0,1,1.39,0,1,1,0,0,1-1.39,1.39A1,1,0,0,1,511.25,635.05Z" transform="translate(4.07 -342.36)"/>
                    <path class="mls-6" d="M541.22,627.73a1,1,0,0,1,1.39,0,1,1,0,0,1-1.39,1.39A1,1,0,0,1,541.22,627.73Z" transform="translate(4.07 -342.36)"/>
                    <path class="mls-6" d="M466.22,626.74a1,1,0,0,1,1.39,0,1,1,0,0,1-1.39,1.39A1,1,0,0,1,466.22,626.74Z" transform="translate(4.07 -342.36)"/>
                    <path class="mls-6" d="M207.79,843.41a1,1,0,1,1,0,1.4A1,1,0,0,1,207.79,843.41Z" transform="translate(4.07 -342.36)"/>
                    <path class="mls-6" d="M470.51,593.23a1,1,0,1,1-.66,1.23A1,1,0,0,1,470.51,593.23Z" transform="translate(4.07 -342.36)"/>
                    <path class="mls-6" d="M453.11,622a1,1,0,1,1,0,1.39A1,1,0,0,1,453.11,622Z" transform="translate(4.07 -342.36)"/>
                    <path class="mls-6" d="M317,925.34a1,1,0,0,1,1.39,1.39,1,1,0,1,1-1.39-1.39Z" transform="translate(4.07 -342.36)"/>
                    <path class="mls-6" d="M93.09,836.47a1,1,0,1,1,0,1.4A1,1,0,0,1,93.09,836.47Z" transform="translate(4.07 -342.36)"/>
                    <circle class="mls-7" cx="443.82" cy="288.52" r="0.49"/>
                    <path class="mls-6" d="M313.19,935.32a.47.47,0,0,1,.69,0,.49.49,0,0,1,0,.69.49.49,0,0,1-.69-.69Z" transform="translate(4.07 -342.36)"/>
                    <circle class="mls-7" cx="331.12" cy="584.28" r="0.49"/>
                    <circle class="mls-7" cx="242.06" cy="497.22" r="0.49"/>
                    <path class="mls-6" d="M477.86,678.81a.49.49,0,1,1,0,.7A.5.5,0,0,1,477.86,678.81Z" transform="translate(4.07 -342.36)"/>
                    <path class="mls-6" d="M478.35,713.39a.49.49,0,1,1,0,.7A.5.5,0,0,1,478.35,713.39Z" transform="translate(4.07 -342.36)"/>
                    <path class="mls-6" d="M125.82,957.91a.49.49,0,0,1,.69.69.49.49,0,1,1-.69-.69Z" transform="translate(4.07 -342.36)"/>
                    <path class="mls-6" d="M459.56,713.88a.49.49,0,1,1,0,.7A.5.5,0,0,1,459.56,713.88Z" transform="translate(4.07 -342.36)"/>
                    <path class="mls-6" d="M459.07,707.4a.5.5,0,0,1,.7,0,.49.49,0,0,1,0,.69.48.48,0,0,1-.7,0A.49.49,0,0,1,459.07,707.4Z" transform="translate(4.07 -342.36)"/>
                    <path class="mls-6" d="M349.41,951.56a.5.5,0,0,1,.7,0,.49.49,0,0,1,0,.69.48.48,0,0,1-.7,0A.49.49,0,0,1,349.41,951.56Z" transform="translate(4.07 -342.36)"/>
                    <circle class="mls-7" cx="454.73" cy="288.06" r="0.49"/>
                    <path class="mls-6" d="M346.16,944.23a.5.5,0,0,1,.7,0,.49.49,0,0,1,0,.69.48.48,0,0,1-.7,0A.49.49,0,0,1,346.16,944.23Z" transform="translate(4.07 -342.36)"/>
                    <path class="mls-6" d="M436.38,638.72a1,1,0,1,1,1.39,1.39,1,1,0,0,1-1.39-1.39Z" transform="translate(4.07 -342.36)"/>
                    <path class="mls-6" d="M327.83,943.39a1,1,0,0,1,1.39,0,1,1,0,0,1,0,1.39,1,1,0,1,1-1.39-1.39Z" transform="translate(4.07 -342.36)"/>
                    <path class="mls-6" d="M340.89,944.37a1,1,0,0,1,1.39,0,1,1,0,0,1,0,1.4,1,1,0,0,1-1.39-1.4Z" transform="translate(4.07 -342.36)"/>
                    <path class="mls-6" d="M116.11,862.65a1,1,0,1,1,0,1.4A1,1,0,0,1,116.11,862.65Z" transform="translate(4.07 -342.36)"/>
                    <path class="mls-6" d="M132.54,829.88a2.09,2.09,0,1,1,0,3A2.09,2.09,0,0,1,132.54,829.88Z" transform="translate(4.07 -342.36)"/>
                    <path class="mls-6" d="M152.14,818.18a1,1,0,1,1,0,1.39A1,1,0,0,1,152.14,818.18Z" transform="translate(4.07 -342.36)"/>
                    <path class="mls-6" d="M139,813.43a1,1,0,0,1,1.39,1.39,1,1,0,0,1-1.39-1.39Z" transform="translate(4.07 -342.36)"/>
                    <circle class="mls-7" cx="129.74" cy="479.95" r="0.49"/>
                    <circle class="mls-7" cx="140.66" cy="479.5" r="0.49"/>
                    <path class="mls-6" d="M122.3,830.16a1,1,0,1,1,0,1.39A1,1,0,0,1,122.3,830.16Z" transform="translate(4.07 -342.36)"/>
                    <path class="mls-6" d="M467.66,671.4a1,1,0,1,1,0,1.39A1,1,0,0,1,467.66,671.4Z" transform="translate(4.07 -342.36)"/>
                    <path class="mls-6" d="M424.06,655.59a1,1,0,1,1-.66,1.22A1,1,0,0,1,424.06,655.59Z" transform="translate(4.07 -342.36)"/>
                    <path class="mls-6" d="M359.4,723.82a1,1,0,0,1,1.22.66,1,1,0,1,1-1.22-.66Z" transform="translate(4.07 -342.36)"/>
                    <path class="mls-6" d="M425.77,706.56a1,1,0,1,1,1.39,1.39,1,1,0,0,1-1.39,0A1,1,0,0,1,425.77,706.56Z" transform="translate(4.07 -342.36)"/>
                    <path class="mls-6" d="M440.24,654.29a1,1,0,0,1,1.22.66,1,1,0,1,1-1.22-.66Z" transform="translate(4.07 -342.36)"/>
                    <path class="mls-6" d="M184.78,946.67a2.09,2.09,0,1,1,0,3A2.09,2.09,0,0,1,184.78,946.67Z" transform="translate(4.07 -342.36)"/>
                    <path class="mls-6" d="M187.61,883a2.09,2.09,0,1,1,0,2.95A2.08,2.08,0,0,1,187.61,883Z" transform="translate(4.07 -342.36)"/>
                    <circle class="mls-7" cx="183.75" cy="633.89" r="1.54"/>
                    <path class="mls-6" d="M188.73,952a1,1,0,1,1,0,1.4A1,1,0,0,1,188.73,952Z" transform="translate(4.07 -342.36)"/>
                    <circle class="mls-7" cx="209.15" cy="593.31" r="0.99"/>
                    <path class="mls-6" d="M222.66,876.24a1,1,0,1,1,0,1.39A1,1,0,0,1,222.66,876.24Z" transform="translate(4.07 -342.36)"/>
                    <path class="mls-6" d="M191.27,930.22a1,1,0,1,1,1.4,1.39,1,1,0,0,1-1.4,0A1,1,0,0,1,191.27,930.22Z" transform="translate(4.07 -342.36)"/>
                    <circle class="mls-7" cx="181.99" cy="596.75" r="0.49"/>
                    <path class="mls-6" d="M158.72,979.29a.49.49,0,0,1,.69,0,.5.5,0,0,1,0,.7.49.49,0,0,1-.69,0A.48.48,0,0,1,158.72,979.29Z" transform="translate(4.07 -342.36)"/>
                    <path class="mls-6" d="M216,987a.49.49,0,1,1,0,.7A.5.5,0,0,1,216,987Z" transform="translate(4.07 -342.36)"/>
                    <circle class="mls-7" cx="192.9" cy="596.29" r="0.49"/>
                    <path class="mls-6" d="M174.54,947a1,1,0,1,1,0,1.39A1,1,0,0,1,174.54,947Z" transform="translate(4.07 -342.36)"/>
                    <path class="mls-6" d="M107.3,946.34a1,1,0,1,1,0,1.4A1,1,0,0,1,107.3,946.34Z" transform="translate(4.07 -342.36)"/>
                    <path class="mls-6" d="M205.82,979.62a1,1,0,1,1,0,1.4A1,1,0,0,1,205.82,979.62Z" transform="translate(4.07 -342.36)"/>
                    <path class="mls-6" d="M443.83,713.53a1,1,0,1,1,0,1.4A1,1,0,0,1,443.83,713.53Z" transform="translate(4.07 -342.36)"/>
                    <path class="mls-6" d="M457.74,758a1,1,0,1,1,0,1.39A1,1,0,0,1,457.74,758Z" transform="translate(4.07 -342.36)"/>
                    <path class="mls-6" d="M356,971a1,1,0,1,1,0,1.4A1,1,0,0,1,356,971Z" transform="translate(4.07 -342.36)"/>
                    <path class="mls-6" d="M413.72,657.69a2.09,2.09,0,1,1-.85-2.84A2.1,2.1,0,0,1,413.72,657.69Z" transform="translate(4.07 -342.36)"/>
                    <path class="mls-6" d="M411.44,628.61a1.53,1.53,0,1,1-.62-2.08A1.54,1.54,0,0,1,411.44,628.61Z" transform="translate(4.07 -342.36)"/>
                    <path class="mls-6" d="M408.4,653.7a1,1,0,0,1-1.34.41,1,1,0,1,1,1.34-.41Z" transform="translate(4.07 -342.36)"/>
                    <path class="mls-6" d="M398.31,674.53a1,1,0,1,1-.4-1.33A1,1,0,0,1,398.31,674.53Z" transform="translate(4.07 -342.36)"/>
                    <path class="mls-6" d="M412.24,675.31a1,1,0,0,1-1.33.4,1,1,0,1,1,1.33-.4Z" transform="translate(4.07 -342.36)"/>
                    <path class="mls-6" d="M387,666.65a1,1,0,1,1-.4-1.33A1,1,0,0,1,387,666.65Z" transform="translate(4.07 -342.36)"/>
                    <path class="mls-6" d="M422.91,663.19a.49.49,0,1,1-.2-.67A.49.49,0,0,1,422.91,663.19Z" transform="translate(4.07 -342.36)"/>
                    <path class="mls-6" d="M412.59,666.76a.49.49,0,0,1-.67.2.48.48,0,0,1-.2-.66.49.49,0,0,1,.67-.2A.48.48,0,0,1,412.59,666.76Z" transform="translate(4.07 -342.36)"/>
                    <path class="mls-6" d="M423.45,654.47a1,1,0,1,1-1.74-.94,1,1,0,0,1,1.34-.4A1,1,0,0,1,423.45,654.47Z" transform="translate(4.07 -342.36)"/>
                    <path class="mls-6" d="M508.74,751a1,1,0,1,1-1-1A1,1,0,0,1,508.74,751Z" transform="translate(4.07 -342.36)"/>
                    <path class="mls-6" d="M441.53,603.66a1,1,0,0,1-1.33.4,1,1,0,1,1,.93-1.73A1,1,0,0,1,441.53,603.66Z" transform="translate(4.07 -342.36)"/>
                    <path class="mls-6" d="M265,699.37a3,3,0,1,1,0,4.18A3,3,0,0,1,265,699.37Z" transform="translate(4.07 -342.36)"/>
                    <path class="mls-6" d="M409.23,639.73a3,3,0,1,1,0,4.18A3,3,0,0,1,409.23,639.73Z" transform="translate(4.07 -342.36)"/>
                    <path class="mls-6" d="M324.9,656.57a3,3,0,1,1,0,4.18A2.95,2.95,0,0,1,324.9,656.57Z" transform="translate(4.07 -342.36)"/>
                    <circle class="mls-7" cx="242.89" cy="431.47" r="2.96"/>
                    <path class="mls-6" d="M246.37,663.56a2.09,2.09,0,1,1,0,3A2.09,2.09,0,0,1,246.37,663.56Z" transform="translate(4.07 -342.36)"/>
                    <path class="mls-6" d="M362.8,609.34a2.09,2.09,0,1,1,0,2.95A2.09,2.09,0,0,1,362.8,609.34Z" transform="translate(4.07 -342.36)"/>
                    <path class="mls-6" d="M346.07,625.59a2.09,2.09,0,1,1,0,2.95A2.08,2.08,0,0,1,346.07,625.59Z" transform="translate(4.07 -342.36)"/>
                    <path class="mls-6" d="M284.31,745.78a2.09,2.09,0,1,1,0,3A2.09,2.09,0,0,1,284.31,745.78Z" transform="translate(4.07 -342.36)"/>
                    <path class="mls-6" d="M278.12,774.28a1.53,1.53,0,1,1,0,2.17A1.53,1.53,0,0,1,278.12,774.28Z" transform="translate(4.07 -342.36)"/>
                    <circle class="mls-7" cx="295.56" cy="463.07" r="1.54"/>
                    <circle class="mls-7" cx="259.04" cy="363.42" r="0.99"/>
                    <path class="mls-6" d="M288.26,751.13a1,1,0,1,1,0,1.39A1,1,0,0,1,288.26,751.13Z" transform="translate(4.07 -342.36)"/>
                    <path class="mls-6" d="M239,763.89a1,1,0,0,1,1.4,0,1,1,0,1,1-1.4,0Z" transform="translate(4.07 -342.36)"/>
                    <path class="mls-6" d="M348.94,742.4a1,1,0,0,1,1.39,1.39,1,1,0,0,1-1.39,0A1,1,0,0,1,348.94,742.4Z" transform="translate(4.07 -342.36)"/>
                    <path class="mls-6" d="M378.9,735.07a1,1,0,0,1,1.4,0,1,1,0,1,1-1.4,0Z" transform="translate(4.07 -342.36)"/>
                    <path class="mls-6" d="M303.91,734.08a1,1,0,1,1,0,1.4A1,1,0,0,1,303.91,734.08Z" transform="translate(4.07 -342.36)"/>
                    <path class="mls-6" d="M433.63,612.09a1,1,0,1,1,0,1.39A1,1,0,0,1,433.63,612.09Z" transform="translate(4.07 -342.36)"/>
                    <path class="mls-6" d="M290.8,729.33a1,1,0,0,1,1.39,0,1,1,0,0,1,0,1.4,1,1,0,0,1-1.39-1.4Z" transform="translate(4.07 -342.36)"/>
                    <path class="mls-6" d="M277.09,737.87a.49.49,0,1,1,0,.7A.5.5,0,0,1,277.09,737.87Z" transform="translate(4.07 -342.36)"/>
                    <path class="mls-6" d="M315.55,786.16a.48.48,0,0,1,.7,0,.49.49,0,0,1,0,.69.5.5,0,0,1-.7,0A.49.49,0,0,1,315.55,786.16Z" transform="translate(4.07 -342.36)"/>
                    <circle class="mls-7" cx="320.46" cy="478.73" r="0.49"/>
                    <circle class="mls-7" cx="301.67" cy="479.22" r="0.49"/>
                    <circle class="mls-7" cx="301.18" cy="472.73" r="0.49"/>
                    <path class="mls-6" d="M288,737.42a.48.48,0,0,1,.7,0,.49.49,0,0,1,0,.69.5.5,0,0,1-.7,0A.49.49,0,0,1,288,737.42Z" transform="translate(4.07 -342.36)"/>
                    <path class="mls-6" d="M274.06,746.06a1,1,0,1,1,0,1.4A1,1,0,0,1,274.06,746.06Z" transform="translate(4.07 -342.36)"/>
                    <path class="mls-6" d="M305.35,778.74a1,1,0,0,1,1.39,0,1,1,0,1,1-1.39,0Z" transform="translate(4.07 -342.36)"/>
                    <path class="mls-6" d="M422.25,689a1,1,0,1,1,0,1.4A1,1,0,0,1,422.25,689Z" transform="translate(4.07 -342.36)"/>
                    <path class="mls-6" d="M397.61,779.73a1,1,0,1,1,1.4,1.39,1,1,0,0,1-1.4,0A1,1,0,0,1,397.61,779.73Z" transform="translate(4.07 -342.36)"/>
                    <path class="mls-6" d="M263.46,813.9a1,1,0,0,1,1.39,1.39,1,1,0,1,1-1.39-1.39Z" transform="translate(4.07 -342.36)"/>
                    <path class="mls-6" d="M435.88,680.2a1,1,0,0,1,1.39,0,1,1,0,0,1-1.39,1.39A1,1,0,0,1,435.88,680.2Z" transform="translate(4.07 -342.36)"/>
                    <path class="mls-6" d="M281.52,820.88a1,1,0,1,1,0,1.39A1,1,0,0,1,281.52,820.88Z" transform="translate(4.07 -342.36)"/>
                    <path class="mls-6" d="M295.43,865.33a1,1,0,0,1,1.39,0,1,1,0,0,1,0,1.4,1,1,0,0,1-1.39-1.4Z" transform="translate(4.07 -342.36)"/>
                    <path class="mls-6" d="M242.12,789.51a1,1,0,1,1,0,1.4A1,1,0,0,1,242.12,789.51Z" transform="translate(4.07 -342.36)"/>
                </g>
            </g>
            <g class="mls-4">
                <g class="mls-5">
                    <path class="mls-6" d="M1372.73,1015a3.88,3.88,0,1,1-4.54-3.07A3.88,3.88,0,0,1,1372.73,1015Z" transform="translate(4.07 -342.36)"/>
                    <path class="mls-6" d="M1229.2,795.42a3.87,3.87,0,1,1-4.53-3.08A3.86,3.86,0,0,1,1229.2,795.42Z" transform="translate(4.07 -342.36)"/>
                    <path class="mls-6" d="M1355.08,943.68a3.88,3.88,0,1,1-4.53-3.07A3.87,3.87,0,0,1,1355.08,943.68Z" transform="translate(4.07 -342.36)"/>
                    <circle class="mls-7" cx="1426.7" cy="679.22" r="2.74"/>
                    <path class="mls-6" d="M1308.16,1001.75a2.74,2.74,0,1,1-3.21-2.17A2.74,2.74,0,0,1,1308.16,1001.75Z" transform="translate(4.07 -342.36)"/>
                    <circle class="mls-7" cx="1413.15" cy="481.46" r="2.74"/>
                    <path class="mls-6" d="M1435.73,937a2.74,2.74,0,1,1-3.21-2.18A2.72,2.72,0,0,1,1435.73,937Z" transform="translate(4.07 -342.36)"/>
                    <path class="mls-6" d="M1281.78,974.08a2,2,0,1,1-2.36-1.6A2,2,0,0,1,1281.78,974.08Z" transform="translate(4.07 -342.36)"/>
                    <path class="mls-6" d="M1374.43,999.09a1.3,1.3,0,0,1-1,1.52,1.31,1.31,0,0,1-1.52-1,1.29,1.29,0,0,1,1-1.51A1.28,1.28,0,0,1,1374.43,999.09Z" transform="translate(4.07 -342.36)"/>
                    <circle class="mls-7" cx="1302.25" cy="660" r="1.29"/>
                    <circle class="mls-7" cx="1309.24" cy="689.53" r="1.29"/>
                    <path class="mls-6" d="M1321.25,1020.9a1.29,1.29,0,0,1-1,1.51,1.28,1.28,0,0,1-1.51-1,1.3,1.3,0,0,1,1-1.52A1.31,1.31,0,0,1,1321.25,1020.9Z" transform="translate(4.07 -342.36)"/>
                    <path class="mls-6" d="M1288.42,1033a1.29,1.29,0,0,1-2.54.48,1.29,1.29,0,0,1,1-1.51A1.31,1.31,0,0,1,1288.42,1033Z" transform="translate(4.07 -342.36)"/>
                    <circle class="mls-7" cx="1372.75" cy="572.92" r="1.29"/>
                    <path class="mls-6" d="M1322.06,999.74a.65.65,0,0,1-.51.76.66.66,0,0,1-.76-.51.65.65,0,0,1,1.27-.25Z" transform="translate(4.07 -342.36)"/>
                    <path class="mls-6" d="M1314.53,1011.92a.65.65,0,0,1-.51.76.66.66,0,0,1-.76-.52.63.63,0,0,1,.51-.75A.65.65,0,0,1,1314.53,1011.92Z" transform="translate(4.07 -342.36)"/>
                    <path class="mls-6" d="M1315.39,990.43a1.28,1.28,0,0,1-1,1.51,1.3,1.3,0,0,1-1.52-1,1.31,1.31,0,0,1,1-1.52A1.29,1.29,0,0,1,1315.39,990.43Z" transform="translate(4.07 -342.36)"/>
                    <path class="mls-6" d="M1252.1,844a1.29,1.29,0,1,1-1.51-1A1.29,1.29,0,0,1,1252.1,844Z" transform="translate(4.07 -342.36)"/>
                    <path class="mls-6" d="M1291.72,923.79a1.29,1.29,0,0,1-1,1.52,1.31,1.31,0,0,1-1.52-1,1.29,1.29,0,0,1,2.54-.49Z" transform="translate(4.07 -342.36)"/>
                    <path class="mls-6" d="M1564,765.16a3.88,3.88,0,1,1,1,5.39A3.87,3.87,0,0,1,1564,765.16Z" transform="translate(4.07 -342.36)"/>
                    <circle class="mls-7" cx="1415.05" cy="465.84" r="3.88"/>
                    <path class="mls-6" d="M1526.08,828a3.88,3.88,0,1,1,1,5.38A3.87,3.87,0,0,1,1526.08,828Z" transform="translate(4.07 -342.36)"/>
                    <path class="mls-6" d="M1531.12,723.65a2.74,2.74,0,1,1,.74,3.81A2.75,2.75,0,0,1,1531.12,723.65Z" transform="translate(4.07 -342.36)"/>
                    <path class="mls-6" d="M1600.32,820.15a2.74,2.74,0,1,1,.73,3.81A2.75,2.75,0,0,1,1600.32,820.15Z" transform="translate(4.07 -342.36)"/>
                    <path class="mls-6" d="M1464.34,775.71a2.74,2.74,0,1,1,.74,3.81A2.75,2.75,0,0,1,1464.34,775.71Z" transform="translate(4.07 -342.36)"/>
                    <circle class="mls-7" cx="1605.15" cy="517.15" r="2.01"/>
                    <path class="mls-6" d="M1551.58,775.17a1.29,1.29,0,1,1,.34,1.8A1.29,1.29,0,0,1,1551.58,775.17Z" transform="translate(4.07 -342.36)"/>
                    <path class="mls-6" d="M1606.73,826.06a1.29,1.29,0,1,1,.35,1.79A1.29,1.29,0,0,1,1606.73,826.06Z" transform="translate(4.07 -342.36)"/>
                    <path class="mls-6" d="M1622.67,800.24A1.29,1.29,0,1,1,1623,802,1.29,1.29,0,0,1,1622.67,800.24Z" transform="translate(4.07 -342.36)"/>
                    <path class="mls-6" d="M1604.61,797.36a1.29,1.29,0,1,1,.34,1.79A1.29,1.29,0,0,1,1604.61,797.36Z" transform="translate(4.07 -342.36)"/>
                    <path class="mls-6" d="M1495.31,837.78a1.29,1.29,0,1,1,.35,1.79A1.29,1.29,0,0,1,1495.31,837.78Z" transform="translate(4.07 -342.36)"/>
                    <circle class="mls-7" cx="1589.61" cy="812.11" r="0.65" transform="translate(-120.62 -27.8) rotate(-10.88)"/>
                    <path class="mls-6" d="M1650.54,864.41a.65.65,0,0,1,.9-.18.65.65,0,0,1,.17.9.64.64,0,0,1-1.07-.72Z" transform="translate(4.07 -342.36)"/>
                    <circle class="mls-7" cx="1409.67" cy="395" r="0.65"/>
                    <circle class="mls-7" cx="1603.54" cy="808.82" r="0.65" transform="translate(-119.75 -25.23) rotate(-10.88)"/>
                    <path class="mls-6" d="M1587.2,823.05a1.29,1.29,0,1,1,2.14,1.45,1.29,1.29,0,0,1-2.14-1.45Z" transform="translate(4.07 -342.36)"/>
                    <path class="mls-6" d="M1635.57,857.38a1.29,1.29,0,1,1,.35,1.8A1.3,1.3,0,0,1,1635.57,857.38Z" transform="translate(4.07 -342.36)"/>
                    <path class="mls-6" d="M1353.23,747.8a1.29,1.29,0,0,1,2.14,1.45,1.29,1.29,0,1,1-2.14-1.45Z" transform="translate(4.07 -342.36)"/>
                    <path class="mls-6" d="M1615.32,917.54a1.29,1.29,0,1,1,.34,1.79A1.29,1.29,0,0,1,1615.32,917.54Z" transform="translate(4.07 -342.36)"/>
                    <path class="mls-6" d="M1556.82,886.9a1.29,1.29,0,1,1,.35,1.8A1.3,1.3,0,0,1,1556.82,886.9Z" transform="translate(4.07 -342.36)"/>
                    <circle class="mls-7" cx="1735.58" cy="465.36" r="3.88"/>
                    <path class="mls-6" d="M1733.73,437.55a3.88,3.88,0,1,1-1.64,5.23A3.88,3.88,0,0,1,1733.73,437.55Z" transform="translate(4.07 -342.36)"/>
                    <path class="mls-6" d="M1794.82,735.6a3.88,3.88,0,1,1,1,5.38A3.88,3.88,0,0,1,1794.82,735.6Z" transform="translate(4.07 -342.36)"/>
                    <circle class="mls-7" cx="1697.66" cy="528.23" r="3.88"/>
                    <circle class="mls-7" cx="1712.99" cy="907.9" r="3.88" transform="translate(-136.48 -2.79) rotate(-10.88)"/>
                    <path class="mls-6" d="M1695.43,764a2.74,2.74,0,1,1,.73,3.81A2.74,2.74,0,0,1,1695.43,764Z" transform="translate(4.07 -342.36)"/>
                    <path class="mls-6" d="M1831.94,665.4a2.74,2.74,0,1,1,.73,3.81A2.74,2.74,0,0,1,1831.94,665.4Z" transform="translate(4.07 -342.36)"/>
                    <path class="mls-6" d="M1814.41,690.47a2.74,2.74,0,1,1,.73,3.8A2.75,2.75,0,0,1,1814.41,690.47Z" transform="translate(4.07 -342.36)"/>
                    <path class="mls-6" d="M1755.51,476.64a2.74,2.74,0,1,1,.73,3.81A2.75,2.75,0,0,1,1755.51,476.64Z" transform="translate(4.07 -342.36)"/>
                    <path class="mls-6" d="M1628.65,816.09a2.74,2.74,0,1,1,.73,3.81A2.74,2.74,0,0,1,1628.65,816.09Z" transform="translate(4.07 -342.36)"/>
                    <circle class="mls-7" cx="1760.33" cy="173.64" r="2.01"/>
                    <circle class="mls-7" cx="1783.59" cy="209.31" r="2.01"/>
                    <circle class="mls-7" cx="1703.11" cy="899.58" r="2.01" transform="translate(-135.09 -4.81) rotate(-10.88)"/>
                    <circle class="mls-7" cx="1602.29" cy="994.23" r="2.01" transform="translate(-154.76 -22.13) rotate(-10.88)"/>
                    <path class="mls-6" d="M1715.88,815.55A1.29,1.29,0,1,1,1718,817a1.29,1.29,0,0,1-2.14-1.45Z" transform="translate(4.07 -342.36)"/>
                    <path class="mls-6" d="M1761.92,482.55a1.29,1.29,0,1,1,2.14,1.45,1.29,1.29,0,0,1-2.14-1.45Z" transform="translate(4.07 -342.36)"/>
                    <path class="mls-6" d="M1710.78,895.05a1.29,1.29,0,1,1,.34,1.79A1.29,1.29,0,0,1,1710.78,895.05Z" transform="translate(4.07 -342.36)"/>
                    <path class="mls-6" d="M1837.9,456.29a1.29,1.29,0,1,1,.34,1.79A1.29,1.29,0,0,1,1837.9,456.29Z" transform="translate(4.07 -342.36)"/>
                    <path class="mls-6" d="M1874.67,439.44a1.29,1.29,0,1,1,.35,1.8A1.3,1.3,0,0,1,1874.67,439.44Z" transform="translate(4.07 -342.36)"/>
                    <path class="mls-6" d="M1777.86,456.73a1.29,1.29,0,1,1,.34,1.79A1.29,1.29,0,0,1,1777.86,456.73Z" transform="translate(4.07 -342.36)"/>
                    <path class="mls-6" d="M1498.7,799.69a1.29,1.29,0,1,1,.34,1.79A1.28,1.28,0,0,1,1498.7,799.69Z" transform="translate(4.07 -342.36)"/>
                    <path class="mls-6" d="M1775.1,412.52a1.29,1.29,0,1,1-.55,1.74A1.29,1.29,0,0,1,1775.1,412.52Z" transform="translate(4.07 -342.36)"/>
                    <path class="mls-6" d="M1759.8,453.85a1.29,1.29,0,0,1,2.14,1.45,1.29,1.29,0,1,1-2.14-1.45Z" transform="translate(4.07 -342.36)"/>
                    <path class="mls-6" d="M1659.61,878.15a1.29,1.29,0,1,1,.35,1.8A1.3,1.3,0,0,1,1659.61,878.15Z" transform="translate(4.07 -342.36)"/>
                    <path class="mls-6" d="M1349.28,819.13a1.29,1.29,0,1,1,.34,1.79A1.29,1.29,0,0,1,1349.28,819.13Z" transform="translate(4.07 -342.36)"/>
                    <circle class="mls-7" cx="1744.79" cy="468.6" r="0.65" transform="translate(-53.01 -4.69) rotate(-10.88)"/>
                    <path class="mls-6" d="M1657.15,892a.64.64,0,1,1,.17.9A.65.65,0,0,1,1657.15,892Z" transform="translate(4.07 -342.36)"/>
                    <circle class="mls-7" cx="1672.85" cy="877.34" r="0.65" transform="translate(-131.43 -10.92) rotate(-10.88)"/>
                    <circle class="mls-7" cx="1536.63" cy="787.27" r="0.65" transform="translate(-116.88 -38.24) rotate(-10.88)"/>
                    <path class="mls-6" d="M1805.73,520.9a.64.64,0,1,1,.17.9A.65.65,0,0,1,1805.73,520.9Z" transform="translate(4.07 -342.36)"/>
                    <path class="mls-6" d="M1814.92,565.3a.65.65,0,1,1,.17.9A.65.65,0,0,1,1814.92,565.3Z" transform="translate(4.07 -342.36)"/>
                    <path class="mls-6" d="M1421.47,967.4a.64.64,0,1,1,.17.9A.63.63,0,0,1,1421.47,967.4Z" transform="translate(4.07 -342.36)"/>
                    <path class="mls-6" d="M1790.85,570.59a.64.64,0,1,1,.17.89A.63.63,0,0,1,1790.85,570.59Z" transform="translate(4.07 -342.36)"/>
                    <path class="mls-6" d="M1788.61,562.36a.65.65,0,0,1,1.07.73.65.65,0,0,1-.9.17A.64.64,0,0,1,1788.61,562.36Z" transform="translate(4.07 -342.36)"/>
                    <path class="mls-6" d="M1707.81,903.9a.65.65,0,0,1,.9-.17.64.64,0,0,1-.72,1.07A.65.65,0,0,1,1707.81,903.9Z" transform="translate(4.07 -342.36)"/>
                    <circle class="mls-7" cx="1758.73" cy="465.32" r="0.65" transform="translate(-52.14 -2.12) rotate(-10.88)"/>
                    <path class="mls-6" d="M1701.82,895.26a.65.65,0,0,1,1.07.73.66.66,0,0,1-.9.17A.64.64,0,0,1,1701.82,895.26Z" transform="translate(4.07 -342.36)"/>
                    <path class="mls-6" d="M1742.39,479.54a1.29,1.29,0,1,1,.35,1.79A1.3,1.3,0,0,1,1742.39,479.54Z" transform="translate(4.07 -342.36)"/>
                    <path class="mls-6" d="M1678,898.72a1.29,1.29,0,1,1,.34,1.79A1.29,1.29,0,0,1,1678,898.72Z" transform="translate(4.07 -342.36)"/>
                    <path class="mls-6" d="M1695.06,896.76a1.29,1.29,0,1,1,.34,1.79A1.28,1.28,0,0,1,1695.06,896.76Z" transform="translate(4.07 -342.36)"/>
                    <path class="mls-6" d="M1385.39,847.15a1.29,1.29,0,1,1,.35,1.79A1.29,1.29,0,0,1,1385.39,847.15Z" transform="translate(4.07 -342.36)"/>
                    <path class="mls-6" d="M1398.44,800.87a2.74,2.74,0,1,1,.74,3.81A2.75,2.75,0,0,1,1398.44,800.87Z" transform="translate(4.07 -342.36)"/>
                    <path class="mls-6" d="M1420.79,781a1.29,1.29,0,1,1,.35,1.79A1.3,1.3,0,0,1,1420.79,781Z" transform="translate(4.07 -342.36)"/>
                    <path class="mls-6" d="M1402.73,778.08a1.29,1.29,0,1,1,.34,1.8A1.29,1.29,0,0,1,1402.73,778.08Z" transform="translate(4.07 -342.36)"/>
                    <circle class="mls-7" cx="1387.73" cy="792.83" r="0.65" transform="translate(-120.61 -66.24) rotate(-10.88)"/>
                    <circle class="mls-7" cx="1401.67" cy="789.54" r="0.65" transform="translate(-119.74 -63.67) rotate(-10.88)"/>
                    <path class="mls-6" d="M1385.32,803.77a1.29,1.29,0,1,1,2.14,1.45,1.29,1.29,0,0,1-2.14-1.45Z" transform="translate(4.07 -342.36)"/>
                    <path class="mls-6" d="M1790.76,513.88a1.29,1.29,0,1,1,.35,1.79A1.28,1.28,0,0,1,1790.76,513.88Z" transform="translate(4.07 -342.36)"/>
                    <path class="mls-6" d="M1730.71,504.31a1.29,1.29,0,0,1,1.2,2.29,1.31,1.31,0,0,1-1.75-.55A1.29,1.29,0,0,1,1730.71,504.31Z" transform="translate(4.07 -342.36)"/>
                    <path class="mls-6" d="M1664.32,608.17a1.29,1.29,0,1,1-.55,1.75A1.29,1.29,0,0,1,1664.32,608.17Z" transform="translate(4.07 -342.36)"/>
                    <path class="mls-6" d="M1745.52,569.52a1.29,1.29,0,1,1,.34,1.79A1.29,1.29,0,0,1,1745.52,569.52Z" transform="translate(4.07 -342.36)"/>
                    <path class="mls-6" d="M1751.21,498.63a1.29,1.29,0,1,1-.54,1.75A1.3,1.3,0,0,1,1751.21,498.63Z" transform="translate(4.07 -342.36)"/>
                    <path class="mls-6" d="M1494.61,938.34a2.74,2.74,0,1,1,.73,3.8A2.75,2.75,0,0,1,1494.61,938.34Z" transform="translate(4.07 -342.36)"/>
                    <path class="mls-6" d="M1482.49,855.63a2.74,2.74,0,1,1,.73,3.8A2.74,2.74,0,0,1,1482.49,855.63Z" transform="translate(4.07 -342.36)"/>
                    <circle class="mls-7" cx="1499.44" cy="635.34" r="2.01"/>
                    <path class="mls-6" d="M1501,944.24a1.29,1.29,0,1,1,.35,1.8A1.3,1.3,0,0,1,1501,944.24Z" transform="translate(4.07 -342.36)"/>
                    <circle class="mls-7" cx="1522.1" cy="576.79" r="1.29"/>
                    <path class="mls-6" d="M1526,838.27a1.29,1.29,0,1,1,.35,1.8A1.3,1.3,0,0,1,1526,838.27Z" transform="translate(4.07 -342.36)"/>
                    <path class="mls-6" d="M1498.9,915.55a1.29,1.29,0,1,1,.34,1.79A1.29,1.29,0,0,1,1498.9,915.55Z" transform="translate(4.07 -342.36)"/>
                    <circle class="mls-7" cx="1487.97" cy="587.94" r="0.65"/>
                    <path class="mls-6" d="M1469.12,986.8a.65.65,0,0,1,.9-.18.65.65,0,0,1,.17.9.64.64,0,0,1-1.07-.72Z" transform="translate(4.07 -342.36)"/>
                    <path class="mls-6" d="M1544.83,982.59a.65.65,0,1,1,.17.9A.65.65,0,0,1,1544.83,982.59Z" transform="translate(4.07 -342.36)"/>
                    <circle class="mls-7" cx="1497.83" cy="927.01" r="0.65" transform="translate(-143.95 -43.05) rotate(-10.88)"/>
                    <path class="mls-6" d="M1481.49,941.23a1.29,1.29,0,1,1,.35,1.8A1.3,1.3,0,0,1,1481.49,941.23Z" transform="translate(4.07 -342.36)"/>
                    <path class="mls-6" d="M1394.76,957.09a1.29,1.29,0,0,1,2.14,1.45,1.29,1.29,0,1,1-2.14-1.45Z" transform="translate(4.07 -342.36)"/>
                    <path class="mls-6" d="M1529.86,975.57A1.29,1.29,0,1,1,1532,977a1.29,1.29,0,0,1-2.14-1.45Z" transform="translate(4.07 -342.36)"/>
                    <path class="mls-6" d="M1770.51,574a1.29,1.29,0,0,1,2.14,1.45,1.29,1.29,0,1,1-2.14-1.45Z" transform="translate(4.07 -342.36)"/>
                    <path class="mls-6" d="M1799.41,627.84a1.29,1.29,0,1,1,.34,1.79A1.29,1.29,0,0,1,1799.41,627.84Z" transform="translate(4.07 -342.36)"/>
                    <path class="mls-6" d="M1721.12,927.28a1.29,1.29,0,1,1,2.14,1.45,1.29,1.29,0,0,1-2.14-1.45Z" transform="translate(4.07 -342.36)"/>
                    <path class="mls-6" d="M1717.91,509.57a2.74,2.74,0,1,1-1.8-3.44A2.74,2.74,0,0,1,1717.91,509.57Z" transform="translate(4.07 -342.36)"/>
                    <path class="mls-6" d="M1707.78,472.7a2,2,0,1,1-1.32-2.53A2,2,0,0,1,1707.78,472.7Z" transform="translate(4.07 -342.36)"/>
                    <path class="mls-6" d="M1710.07,505.76a1.29,1.29,0,1,1-.85-1.62A1.3,1.3,0,0,1,1710.07,505.76Z" transform="translate(4.07 -342.36)"/>
                    <path class="mls-6" d="M1702.24,535.07a1.29,1.29,0,1,1-.85-1.62A1.3,1.3,0,0,1,1702.24,535.07Z" transform="translate(4.07 -342.36)"/>
                    <path class="mls-6" d="M1720.36,532.63a1.29,1.29,0,1,1-.84-1.62A1.27,1.27,0,0,1,1720.36,532.63Z" transform="translate(4.07 -342.36)"/>
                    <path class="mls-6" d="M1685.73,527.72a1.29,1.29,0,1,1-.85-1.62A1.3,1.3,0,0,1,1685.73,527.72Z" transform="translate(4.07 -342.36)"/>
                    <path class="mls-6" d="M1731.1,514.38a.65.65,0,1,1-.42-.81A.64.64,0,0,1,1731.1,514.38Z" transform="translate(4.07 -342.36)"/>
                    <path class="mls-6" d="M1718.7,521.54a.65.65,0,1,1-.42-.81A.64.64,0,0,1,1718.7,521.54Z" transform="translate(4.07 -342.36)"/>
                    <path class="mls-6" d="M1729.64,503a1.29,1.29,0,1,1-.85-1.62A1.3,1.3,0,0,1,1729.64,503Z" transform="translate(4.07 -342.36)"/>
                    <path class="mls-6" d="M1863.36,606.21a1.29,1.29,0,1,1-1.51-1A1.29,1.29,0,0,1,1863.36,606.21Z" transform="translate(4.07 -342.36)"/>
                    <path class="mls-6" d="M1740.35,433.12a1.29,1.29,0,1,1-.84-1.62A1.28,1.28,0,0,1,1740.35,433.12Z" transform="translate(4.07 -342.36)"/>
                    <path class="mls-6" d="M1536.74,600.05a3.87,3.87,0,1,1,1,5.38A3.88,3.88,0,0,1,1536.74,600.05Z" transform="translate(4.07 -342.36)"/>
                    <path class="mls-6" d="M1707.68,487.56a3.88,3.88,0,1,1,1,5.39A3.87,3.87,0,0,1,1707.68,487.56Z" transform="translate(4.07 -342.36)"/>
                    <path class="mls-6" d="M1603.26,530.11a3.87,3.87,0,1,1,1,5.38A3.87,3.87,0,0,1,1603.26,530.11Z" transform="translate(4.07 -342.36)"/>
                    <circle class="mls-7" cx="1521.43" cy="702.4" r="3.88" transform="translate(-101.14 -42.63) rotate(-10.88)"/>
                    <path class="mls-6" d="M1503.87,558.54a2.74,2.74,0,1,1,.73,3.8A2.73,2.73,0,0,1,1503.87,558.54Z" transform="translate(4.07 -342.36)"/>
                    <path class="mls-6" d="M1640.38,459.91a2.74,2.74,0,1,1,.73,3.8A2.73,2.73,0,0,1,1640.38,459.91Z" transform="translate(4.07 -342.36)"/>
                    <path class="mls-6" d="M1622.85,485a2.74,2.74,0,1,1,.73,3.81A2.75,2.75,0,0,1,1622.85,485Z" transform="translate(4.07 -342.36)"/>
                    <path class="mls-6" d="M1573.06,655a2.74,2.74,0,1,1,.74,3.81A2.75,2.75,0,0,1,1573.06,655Z" transform="translate(4.07 -342.36)"/>
                    <path class="mls-6" d="M1572.15,693.26a2,2,0,1,1,.54,2.8A2,2,0,0,1,1572.15,693.26Z" transform="translate(4.07 -342.36)"/>
                    <circle class="mls-7" cx="1597.08" cy="730.06" r="2.01" transform="translate(-105 -27.86) rotate(-10.88)"/>
                    <circle class="mls-7" cx="1529.46" cy="268.42" r="1.29"/>
                    <path class="mls-6" d="M1579.48,660.94a1.29,1.29,0,1,1,.34,1.79A1.29,1.29,0,0,1,1579.48,660.94Z" transform="translate(4.07 -342.36)"/>
                    <path class="mls-6" d="M1519.22,689.56a1.29,1.29,0,1,1,.34,1.79A1.29,1.29,0,0,1,1519.22,689.56Z" transform="translate(4.07 -342.36)"/>
                    <path class="mls-6" d="M1655.45,634.68a1.29,1.29,0,1,1,2.14,1.45,1.29,1.29,0,0,1-2.14-1.45Z" transform="translate(4.07 -342.36)"/>
                    <path class="mls-6" d="M1692.23,617.83a1.29,1.29,0,1,1,.34,1.79A1.29,1.29,0,0,1,1692.23,617.83Z" transform="translate(4.07 -342.36)"/>
                    <path class="mls-6" d="M1595.41,635.12a1.29,1.29,0,1,1,.35,1.79A1.3,1.3,0,0,1,1595.41,635.12Z" transform="translate(4.07 -342.36)"/>
                    <path class="mls-6" d="M1732.26,445.93a1.29,1.29,0,1,1,.35,1.79A1.29,1.29,0,0,1,1732.26,445.93Z" transform="translate(4.07 -342.36)"/>
                    <path class="mls-6" d="M1577.35,632.24a1.29,1.29,0,1,1,.34,1.8A1.29,1.29,0,0,1,1577.35,632.24Z" transform="translate(4.07 -342.36)"/>
                    <path class="mls-6" d="M1561.81,646.63a.64.64,0,0,1,.9-.17.64.64,0,0,1-.72,1.07A.65.65,0,0,1,1561.81,646.63Z" transform="translate(4.07 -342.36)"/>
                    <path class="mls-6" d="M1623.28,699.29a.65.65,0,0,1,.9-.17.64.64,0,0,1-.72,1.07A.65.65,0,0,1,1623.28,699.29Z" transform="translate(4.07 -342.36)"/>
                    <circle class="mls-7" cx="1633.01" cy="744.06" r="0.65" transform="translate(-107 -20.83) rotate(-10.88)"/>
                    <circle class="mls-7" cx="1613.01" cy="406.98" r="0.65"/>
                    <circle class="mls-7" cx="1606.7" cy="741.11" r="0.65" transform="translate(-106.91 -25.85) rotate(-10.88)"/>
                    <path class="mls-6" d="M1575.75,643.34a.65.65,0,1,1,.17.9A.65.65,0,0,1,1575.75,643.34Z" transform="translate(4.07 -342.36)"/>
                    <path class="mls-6" d="M1559.94,657.93a1.29,1.29,0,1,1,2.14,1.45,1.29,1.29,0,0,1-2.14-1.45Z" transform="translate(4.07 -342.36)"/>
                    <path class="mls-6" d="M1608.31,692.27a1.29,1.29,0,1,1,2.14,1.45,1.29,1.29,0,0,1-2.14-1.45Z" transform="translate(4.07 -342.36)"/>
                    <path class="mls-6" d="M1736.65,547.78a1.29,1.29,0,1,1,.34,1.8A1.29,1.29,0,0,1,1736.65,547.78Z" transform="translate(4.07 -342.36)"/>
                    <path class="mls-6" d="M1727.37,670.71a1.29,1.29,0,1,1,.34,1.79A1.28,1.28,0,0,1,1727.37,670.71Z" transform="translate(4.07 -342.36)"/>
                    <path class="mls-6" d="M1563.07,747.91a1.29,1.29,0,1,1,.34,1.79A1.29,1.29,0,0,1,1563.07,747.91Z" transform="translate(4.07 -342.36)"/>
                    <path class="mls-6" d="M1752,533.08a1.29,1.29,0,1,1,.34,1.79A1.29,1.29,0,0,1,1752,533.08Z" transform="translate(4.07 -342.36)"/>
                    <path class="mls-6" d="M1588.06,752.42a1.29,1.29,0,1,1,.35,1.79A1.29,1.29,0,0,1,1588.06,752.42Z" transform="translate(4.07 -342.36)"/>
                    <path class="mls-6" d="M1617,806.23a1.29,1.29,0,1,1,2.14,1.45,1.29,1.29,0,0,1-2.14-1.45Z" transform="translate(4.07 -342.36)"/>
                    <path class="mls-6" d="M1529.56,721.78a1.29,1.29,0,1,1,.35,1.8A1.3,1.3,0,0,1,1529.56,721.78Z" transform="translate(4.07 -342.36)"/>
                </g>
            </g>
            <g class="mls-8">
                <g class="mls-5">
                    <path class="mls-6" d="M1219.82,791.52a3.25,3.25,0,0,1,4.61-.73,3.43,3.43,0,0,1,.7,4.72,3.25,3.25,0,0,1-4.61.73A3.43,3.43,0,0,1,1219.82,791.52Z" transform="translate(4.07 -342.36)"/>
                    <path class="mls-6" d="M1166,1013.46a3.25,3.25,0,0,1,4.61-.73,3.44,3.44,0,0,1,.7,4.73,3.23,3.23,0,0,1-4.6.72A3.43,3.43,0,0,1,1166,1013.46Z" transform="translate(4.07 -342.36)"/>
                    <path class="mls-6" d="M1185.58,845.06a3.25,3.25,0,0,1,4.61-.73,3.44,3.44,0,0,1,.71,4.73,3.24,3.24,0,0,1-4.61.72A3.44,3.44,0,0,1,1185.58,845.06Z" transform="translate(4.07 -342.36)"/>
                    <ellipse class="mls-7" cx="1199.15" cy="413.33" rx="2.33" ry="2.39"/>
                    <path class="mls-6" d="M1248.93,840.62a2.29,2.29,0,0,1,3.26-.52,2.43,2.43,0,0,1,.5,3.34,2.29,2.29,0,0,1-3.26.52A2.44,2.44,0,0,1,1248.93,840.62Z" transform="translate(4.07 -342.36)"/>
                    <ellipse class="mls-7" cx="1083.69" cy="539.27" rx="2.33" ry="2.39"/>
                    <path class="mls-6" d="M1134.78,797.45a2.3,2.3,0,0,1,3.26-.51,2.43,2.43,0,0,1,.5,3.34,2.3,2.3,0,0,1-3.26.51A2.43,2.43,0,0,1,1134.78,797.45Z" transform="translate(4.07 -342.36)"/>
                    <path class="mls-6" d="M1246.94,873.9a1.68,1.68,0,0,1,2.39-.38,1.77,1.77,0,0,1,.37,2.45,1.68,1.68,0,0,1-2.39.38A1.77,1.77,0,0,1,1246.94,873.9Z" transform="translate(4.07 -342.36)"/>
                    <path class="mls-6" d="M1208.94,799.83a1.09,1.09,0,0,1,1.54-.24,1.14,1.14,0,0,1,.23,1.57,1.08,1.08,0,0,1-1.53.25A1.15,1.15,0,0,1,1208.94,799.83Z" transform="translate(4.07 -342.36)"/>
                    <ellipse class="mls-7" cx="1259.15" cy="504.28" rx="1.1" ry="1.13"/>
                    <ellipse class="mls-7" cx="1273.52" cy="482.3" rx="1.1" ry="1.13"/>
                    <path class="mls-6" d="M1253.3,820.9a1.09,1.09,0,0,1,1.54-.24,1.14,1.14,0,0,1,.23,1.57,1.07,1.07,0,0,1-1.53.24A1.14,1.14,0,0,1,1253.3,820.9Z" transform="translate(4.07 -342.36)"/>
                    <path class="mls-6" d="M1279.83,834.72a1.09,1.09,0,0,1,1.54-.24,1.14,1.14,0,0,1,.23,1.57,1.07,1.07,0,0,1-1.53.24A1.14,1.14,0,0,1,1279.83,834.72Z" transform="translate(4.07 -342.36)"/>
                    <ellipse class="mls-7" cx="1164.08" cy="510.85" rx="1.1" ry="1.13"/>
                    <path class="mls-6" d="M1239.64,832.93a.54.54,0,0,1,.77-.13.59.59,0,0,1,.12.79.54.54,0,0,1-.77.12A.56.56,0,0,1,1239.64,832.93Z" transform="translate(4.07 -342.36)"/>
                    <path class="mls-6" d="M1251.59,830.52a.54.54,0,0,1,.77-.12.57.57,0,0,1,.12.78.54.54,0,0,1-.77.13A.57.57,0,0,1,1251.59,830.52Z" transform="translate(4.07 -342.36)"/>
                    <path class="mls-6" d="M1237.69,842.71a1.09,1.09,0,0,1,1.54-.24,1.14,1.14,0,0,1,.23,1.57,1.08,1.08,0,0,1-1.53.25A1.15,1.15,0,0,1,1237.69,842.71Z" transform="translate(4.07 -342.36)"/>
                    <path class="mls-6" d="M1183,970a1.09,1.09,0,0,1,1.54-.24,1.15,1.15,0,0,1,.24,1.58,1.09,1.09,0,0,1-1.54.24A1.16,1.16,0,0,1,1183,970Z" transform="translate(4.07 -342.36)"/>
                    <path class="mls-6" d="M1209.83,897.36a1.09,1.09,0,0,1,1.54-.24,1.14,1.14,0,0,1,.24,1.57,1.09,1.09,0,0,1-1.54.24A1.15,1.15,0,0,1,1209.83,897.36Z" transform="translate(4.07 -342.36)"/>
                    <path class="mls-6" d="M953.43,817.38a3.31,3.31,0,0,1-3.76-2.83,3.36,3.36,0,0,1,2.76-3.85,3.31,3.31,0,0,1,3.76,2.82A3.38,3.38,0,0,1,953.43,817.38Z" transform="translate(4.07 -342.36)"/>
                    <ellipse class="mls-7" cx="1072.85" cy="547.32" rx="3.3" ry="3.38"/>
                    <path class="mls-6" d="M1014.56,804.33a3.31,3.31,0,0,1-3.76-2.82,3.38,3.38,0,0,1,2.76-3.86,3.32,3.32,0,0,1,3.76,2.83A3.36,3.36,0,0,1,1014.56,804.33Z" transform="translate(4.07 -342.36)"/>
                    <path class="mls-6" d="M946.56,863a2.35,2.35,0,0,1-2.66-2,2.39,2.39,0,0,1,2-2.72,2.33,2.33,0,0,1,2.66,2A2.38,2.38,0,0,1,946.56,863Z" transform="translate(4.07 -342.36)"/>
                    <path class="mls-6" d="M966.7,761.55a2.33,2.33,0,0,1-2.65-2,2.37,2.37,0,0,1,2-2.72,2.33,2.33,0,0,1,2.65,2A2.38,2.38,0,0,1,966.7,761.55Z" transform="translate(4.07 -342.36)"/>
                    <path class="mls-6" d="M1017.65,874.83a2.35,2.35,0,0,1-2.66-2,2.39,2.39,0,0,1,2-2.73,2.34,2.34,0,0,1,2.66,2A2.38,2.38,0,0,1,1017.65,874.83Z" transform="translate(4.07 -342.36)"/>
                    <ellipse class="mls-7" cx="994.88" cy="395.37" rx="1.71" ry="1.76"/>
                    <path class="mls-6" d="M966.85,819.38a1.1,1.1,0,0,1-1.25-.94,1.13,1.13,0,0,1,.92-1.29,1.1,1.1,0,0,1,1.25,1A1.12,1.12,0,0,1,966.85,819.38Z" transform="translate(4.07 -342.36)"/>
                    <path class="mls-6" d="M966.68,754a1.12,1.12,0,0,1-1.26-.94,1.13,1.13,0,0,1,.92-1.29,1.12,1.12,0,0,1,1.26.94A1.13,1.13,0,0,1,966.68,754Z" transform="translate(4.07 -342.36)"/>
                    <path class="mls-6" d="M941.36,759.07a1.09,1.09,0,0,1-1.25-.94,1.12,1.12,0,0,1,.92-1.28,1.09,1.09,0,0,1,1.25.94A1.12,1.12,0,0,1,941.36,759.07Z" transform="translate(4.07 -342.36)"/>
                    <path class="mls-6" d="M950,772.32a1.09,1.09,0,0,1-1.25-.94,1.12,1.12,0,0,1,.92-1.28,1.1,1.1,0,0,1,1.25.94A1.11,1.11,0,0,1,950,772.32Z" transform="translate(4.07 -342.36)"/>
                    <path class="mls-6" d="M1038.44,818.22a1.1,1.1,0,0,1-1.26-.94,1.1,1.1,0,1,1,1.26.94Z" transform="translate(4.07 -342.36)"/>
                    <ellipse class="mls-7" cx="967.89" cy="773.17" rx="0.56" ry="0.55" transform="translate(196.52 1396.88) rotate(-89.87)"/>
                    <path class="mls-6" d="M965.25,703.2a.55.55,0,0,1-.63-.47.56.56,0,0,1,.46-.64.56.56,0,0,1,.17,1.11Z" transform="translate(4.07 -342.36)"/>
                    <ellipse class="mls-7" cx="1031.79" cy="592.77" rx="0.55" ry="0.56"/>
                    <ellipse class="mls-7" cx="957.78" cy="766.21" rx="0.56" ry="0.55" transform="translate(193.73 1380.1) rotate(-89.89)"/>
                    <path class="mls-6" d="M976.1,768.22a1.1,1.1,0,0,1-1.25-.94,1.1,1.1,0,1,1,1.25.94Z" transform="translate(4.07 -342.36)"/>
                    <path class="mls-6" d="M969.53,716.93a1.09,1.09,0,0,1-1.25-.94,1.11,1.11,0,0,1,.92-1.28,1.1,1.1,0,0,1,1.25.94A1.12,1.12,0,0,1,969.53,716.93Z" transform="translate(4.07 -342.36)"/>
                    <path class="mls-6" d="M1064.52,962.41a1.1,1.1,0,0,1-1.25-.94,1.13,1.13,0,0,1,.92-1.29,1.1,1.1,0,0,1,1.25,1A1.12,1.12,0,0,1,1064.52,962.41Z" transform="translate(4.07 -342.36)"/>
                    <path class="mls-6" d="M1018.75,694.21a1.1,1.1,0,0,1-1.25-.94,1.13,1.13,0,0,1,.92-1.29,1.1,1.1,0,0,1,1.25.94A1.13,1.13,0,0,1,1018.75,694.21Z" transform="translate(4.07 -342.36)"/>
                    <path class="mls-6" d="M1033.49,749.77a1.11,1.11,0,0,1-1.26-.94,1.13,1.13,0,0,1,.92-1.29,1.13,1.13,0,0,1,.34,2.23Z" transform="translate(4.07 -342.36)"/>
                    <ellipse class="mls-7" cx="887.13" cy="342.71" rx="3.3" ry="3.38"/>
                    <path class="mls-6" d="M651,903.17a3.42,3.42,0,0,1-2-4.32,3.27,3.27,0,0,1,4.21-2.05,3.39,3.39,0,0,1,2,4.31A3.28,3.28,0,0,1,651,903.17Z" transform="translate(4.07 -342.36)"/>
                    <path class="mls-6" d="M801.48,687.36a3.32,3.32,0,0,1-3.76-2.83,3.36,3.36,0,0,1,2.76-3.85,3.31,3.31,0,0,1,3.76,2.82A3.38,3.38,0,0,1,801.48,687.36Z" transform="translate(4.07 -342.36)"/>
                    <ellipse class="mls-7" cx="948.27" cy="329.66" rx="3.3" ry="3.38"/>
                    <ellipse class="mls-7" cx="960.31" cy="295.13" rx="3.3" ry="3.38"/>
                    <path class="mls-6" d="M876.7,734a2.34,2.34,0,0,1-2.66-2,2.39,2.39,0,0,1,2-2.72,2.34,2.34,0,0,1,2.66,2A2.39,2.39,0,0,1,876.7,734Z" transform="translate(4.07 -342.36)"/>
                    <path class="mls-6" d="M736.24,705.26a2.35,2.35,0,0,1-2.66-2,2.38,2.38,0,0,1,1.95-2.72,2.34,2.34,0,0,1,2.66,2A2.39,2.39,0,0,1,736.24,705.26Z" transform="translate(4.07 -342.36)"/>
                    <path class="mls-6" d="M762,701.6a2.34,2.34,0,0,1-2.66-2,2.38,2.38,0,0,1,1.95-2.73,2.35,2.35,0,0,1,2.66,2A2.39,2.39,0,0,1,762,701.6Z" transform="translate(4.07 -342.36)"/>
                    <path class="mls-6" d="M662.75,866.06a2.35,2.35,0,0,1-2.66-2,2.39,2.39,0,0,1,2-2.73,2.33,2.33,0,0,1,2.65,2A2.38,2.38,0,0,1,662.75,866.06Z" transform="translate(4.07 -342.36)"/>
                    <path class="mls-6" d="M947.79,745.85a2.35,2.35,0,0,1-2.66-2,2.38,2.38,0,0,1,2-2.72,2.34,2.34,0,0,1,2.66,2A2.39,2.39,0,0,1,947.79,745.85Z" transform="translate(4.07 -342.36)"/>
                    <ellipse class="mls-7" cx="690.93" cy="499.88" rx="1.71" ry="1.76"/>
                    <ellipse class="mls-7" cx="699.71" cy="463.86" rx="1.71" ry="1.76"/>
                    <ellipse class="mls-7" cx="960.84" cy="306.38" rx="1.71" ry="1.76"/>
                    <ellipse class="mls-7" cx="1078.18" cy="314.7" rx="1.71" ry="1.76"/>
                    <path class="mls-6" d="M897,690.41a1.13,1.13,0,1,1,.92-1.29A1.13,1.13,0,0,1,897,690.41Z" transform="translate(4.07 -342.36)"/>
                    <path class="mls-6" d="M662.73,858.46a1.13,1.13,0,1,1,.92-1.29A1.13,1.13,0,0,1,662.73,858.46Z" transform="translate(4.07 -342.36)"/>
                    <path class="mls-6" d="M949.51,646.52a1.1,1.1,0,0,1-1.25-.94,1.13,1.13,0,0,1,.92-1.29,1.1,1.1,0,0,1,1.25,1A1.12,1.12,0,0,1,949.51,646.52Z" transform="translate(4.07 -342.36)"/>
                    <path class="mls-6" d="M602.4,825.46a1.1,1.1,0,0,1-1.25-.94,1.13,1.13,0,0,1,.92-1.29,1.13,1.13,0,0,1,.33,2.23Z" transform="translate(4.07 -342.36)"/>
                    <path class="mls-6" d="M570.63,811.94a1.09,1.09,0,0,1-1.25-.94,1.11,1.11,0,0,1,.91-1.28,1.1,1.1,0,0,1,1.26.94A1.12,1.12,0,0,1,570.63,811.94Z" transform="translate(4.07 -342.36)"/>
                    <path class="mls-6" d="M637.41,863.58a1.1,1.1,0,0,1-1.25-.94,1.12,1.12,0,0,1,.92-1.29,1.1,1.1,0,0,1,1.25.95A1.12,1.12,0,0,1,637.41,863.58Z" transform="translate(4.07 -342.36)"/>
                    <path class="mls-6" d="M1012.73,838.65a1.12,1.12,0,0,1-1.26-.94,1.13,1.13,0,0,1,.92-1.29,1.13,1.13,0,0,1,.34,2.23Z" transform="translate(4.07 -342.36)"/>
                    <path class="mls-6" d="M611.44,891.56a1.14,1.14,0,0,1-.67-1.44,1.1,1.1,0,0,1,1.41-.68,1.14,1.14,0,0,1,.67,1.44A1.1,1.1,0,0,1,611.44,891.56Z" transform="translate(4.07 -342.36)"/>
                    <path class="mls-6" d="M646.06,876.83a1.1,1.1,0,0,1-1.25-.94,1.13,1.13,0,0,1,.92-1.29,1.13,1.13,0,0,1,.33,2.23Z" transform="translate(4.07 -342.36)"/>
                    <path class="mls-6" d="M968.57,689.25a1.1,1.1,0,0,1-1.25-.94,1.13,1.13,0,0,1,.92-1.29,1.1,1.1,0,0,1,1.25.94A1.13,1.13,0,0,1,968.57,689.25Z" transform="translate(4.07 -342.36)"/>
                    <path class="mls-6" d="M1111.28,922.64a1.1,1.1,0,0,1-1.25-.94,1.13,1.13,0,0,1,.92-1.29,1.1,1.1,0,0,1,1.25.94A1.13,1.13,0,0,1,1111.28,922.64Z" transform="translate(4.07 -342.36)"/>
                    <ellipse class="mls-7" cx="663.94" cy="877.68" rx="0.55" ry="0.56" transform="translate(2.32 -341.03) rotate(-0.11)"/>
                    <path class="mls-6" d="M978.6,682.64a.55.55,0,0,1-.63-.47.56.56,0,0,1,.46-.64.56.56,0,0,1,.17,1.11Z" transform="translate(4.07 -342.36)"/>
                    <ellipse class="mls-7" cx="960.41" cy="681.27" rx="0.55" ry="0.56" transform="translate(2.71 -340.44) rotate(-0.11)"/>
                    <ellipse class="mls-7" cx="983.04" cy="821.76" rx="0.56" ry="0.55" transform="matrix(0, -1, 1, 0, 163.21, 1460.66)"/>
                    <path class="mls-6" d="M661.3,807.71a.57.57,0,0,1-.63-.47.57.57,0,0,1,.46-.65.57.57,0,0,1,.63.47A.57.57,0,0,1,661.3,807.71Z" transform="translate(4.07 -342.36)"/>
                    <path class="mls-6" d="M683.67,775.5A.55.55,0,0,1,683,775a.56.56,0,0,1,.46-.64.55.55,0,0,1,.63.47A.56.56,0,0,1,683.67,775.5Z" transform="translate(4.07 -342.36)"/>
                    <path class="mls-6" d="M1162,788.56a.54.54,0,0,1-.62-.47.55.55,0,0,1,.46-.64.54.54,0,0,1,.62.47A.56.56,0,0,1,1162,788.56Z" transform="translate(4.07 -342.36)"/>
                    <path class="mls-6" d="M700.89,787.75a.55.55,0,0,1-.63-.47.57.57,0,0,1,.46-.64.56.56,0,0,1,.63.47A.55.55,0,0,1,700.89,787.75Z" transform="translate(4.07 -342.36)"/>
                    <path class="mls-6" d="M697.05,794.06a.54.54,0,0,1-.62-.47.56.56,0,0,1,.46-.64.54.54,0,0,1,.62.47A.55.55,0,0,1,697.05,794.06Z" transform="translate(4.07 -342.36)"/>
                    <path class="mls-6" d="M956.74,643.17a.54.54,0,0,1-.62-.47.57.57,0,0,1,.46-.65.55.55,0,0,1,.62.48A.56.56,0,0,1,956.74,643.17Z" transform="translate(4.07 -342.36)"/>
                    <ellipse class="mls-7" cx="653.83" cy="870.71" rx="0.55" ry="0.56" transform="translate(2.33 -341.05) rotate(-0.11)"/>
                    <path class="mls-6" d="M954.83,652.12a.55.55,0,0,1-.63-.47.56.56,0,0,1,.46-.64.56.56,0,0,1,.17,1.11Z" transform="translate(4.07 -342.36)"/>
                    <path class="mls-6" d="M672.15,872.73a1.13,1.13,0,1,1,.92-1.29A1.13,1.13,0,0,1,672.15,872.73Z" transform="translate(4.07 -342.36)"/>
                    <path class="mls-6" d="M970.76,665.3a1.1,1.1,0,0,1-1.25-.94,1.13,1.13,0,0,1,.92-1.29,1.1,1.1,0,0,1,1.25.95A1.12,1.12,0,0,1,970.76,665.3Z" transform="translate(4.07 -342.36)"/>
                    <path class="mls-6" d="M959.67,655.56a1.1,1.1,0,0,1-1.25-.94,1.12,1.12,0,0,1,.92-1.29,1.1,1.1,0,0,1,1.25.94A1.13,1.13,0,0,1,959.67,655.56Z" transform="translate(4.07 -342.36)"/>
                    <path class="mls-6" d="M1107.86,882.93a1.09,1.09,0,0,1-1.25-.94,1.1,1.1,0,1,1,2.17-.34A1.12,1.12,0,0,1,1107.86,882.93Z" transform="translate(4.07 -342.36)"/>
                    <path class="mls-6" d="M1071.46,902a2.33,2.33,0,0,1-2.66-2,2.38,2.38,0,0,1,2-2.72,2.34,2.34,0,0,1,2.66,2A2.39,2.39,0,0,1,1071.46,902Z" transform="translate(4.07 -342.36)"/>
                    <path class="mls-6" d="M1046.11,899.56a1.1,1.1,0,0,1-1.25-.94,1.13,1.13,0,0,1,.92-1.29,1.1,1.1,0,0,1,1.25.94A1.13,1.13,0,0,1,1046.11,899.56Z" transform="translate(4.07 -342.36)"/>
                    <path class="mls-6" d="M1054.77,912.81a1.1,1.1,0,0,1-1.25-.94,1.1,1.1,0,1,1,2.17-.35A1.13,1.13,0,0,1,1054.77,912.81Z" transform="translate(4.07 -342.36)"/>
                    <ellipse class="mls-7" cx="1072.64" cy="913.65" rx="0.56" ry="0.55" transform="translate(160.92 1642.12) rotate(-89.89)"/>
                    <ellipse class="mls-7" cx="1062.53" cy="906.69" rx="0.56" ry="0.55" transform="translate(157.51 1624.81) rotate(-89.87)"/>
                    <path class="mls-6" d="M1080.85,908.7a1.09,1.09,0,0,1-1.25-.94,1.12,1.12,0,0,1,.92-1.28,1.09,1.09,0,0,1,1.25.94A1.12,1.12,0,0,1,1080.85,908.7Z" transform="translate(4.07 -342.36)"/>
                    <path class="mls-6" d="M665.58,821.44a1.1,1.1,0,0,1-1.25-.94,1.12,1.12,0,0,1,.92-1.29,1.1,1.1,0,0,1,1.25.95A1.12,1.12,0,0,1,665.58,821.44Z" transform="translate(4.07 -342.36)"/>
                    <path class="mls-6" d="M694.35,865.5a1.12,1.12,0,0,1-.67-1.43,1.09,1.09,0,0,1,1.4-.69,1.14,1.14,0,0,1,.67,1.44A1.08,1.08,0,0,1,694.35,865.5Z" transform="translate(4.07 -342.36)"/>
                    <path class="mls-6" d="M797.51,846.35a1.14,1.14,0,0,1-.67-1.44,1.09,1.09,0,0,1,1.41-.68,1.12,1.12,0,0,1,.66,1.43A1.09,1.09,0,0,1,797.51,846.35Z" transform="translate(4.07 -342.36)"/>
                    <path class="mls-6" d="M726.44,817.37a1.1,1.1,0,0,1-1.25-1,1.12,1.12,0,0,1,.92-1.28,1.1,1.1,0,0,1,1.25.94A1.13,1.13,0,0,1,726.44,817.37Z" transform="translate(4.07 -342.36)"/>
                    <path class="mls-6" d="M679,855.76a1.14,1.14,0,0,1-.67-1.44,1.09,1.09,0,0,1,1.4-.68,1.12,1.12,0,0,1,.67,1.44A1.09,1.09,0,0,1,679,855.76Z" transform="translate(4.07 -342.36)"/>
                    <path class="mls-6" d="M1101.54,759a2.35,2.35,0,0,1-2.66-2,2.39,2.39,0,0,1,1.95-2.73,2.34,2.34,0,0,1,2.66,2A2.38,2.38,0,0,1,1101.54,759Z" transform="translate(4.07 -342.36)"/>
                    <path class="mls-6" d="M1057,815.83a2.34,2.34,0,0,1-2.66-2,2.39,2.39,0,0,1,2-2.73,2.34,2.34,0,0,1,2.66,2A2.38,2.38,0,0,1,1057,815.83Z" transform="translate(4.07 -342.36)"/>
                    <ellipse class="mls-7" cx="1129.72" cy="392.86" rx="1.71" ry="1.76"/>
                    <path class="mls-6" d="M1101.51,751.44a1.1,1.1,0,0,1-1.25-1,1.12,1.12,0,0,1,.92-1.28,1.1,1.1,0,0,1,1.25.94A1.12,1.12,0,0,1,1101.51,751.44Z" transform="translate(4.07 -342.36)"/>
                    <ellipse class="mls-7" cx="1080.1" cy="413.09" rx="1.1" ry="1.13"/>
                    <path class="mls-6" d="M1021,798.34a1.13,1.13,0,1,1,.92-1.29A1.13,1.13,0,0,1,1021,798.34Z" transform="translate(4.07 -342.36)"/>
                    <path class="mls-6" d="M1084.85,769.81a1.1,1.1,0,0,1-1.25-.94,1.13,1.13,0,0,1,.92-1.29,1.1,1.1,0,0,1,1.25.95A1.12,1.12,0,0,1,1084.85,769.81Z" transform="translate(4.07 -342.36)"/>
                    <ellipse class="mls-7" cx="1106.8" cy="428.3" rx="0.55" ry="0.56"/>
                    <path class="mls-6" d="M1146.5,746.59a.54.54,0,0,1-.62-.47.56.56,0,0,1,.46-.64.54.54,0,0,1,.62.47A.55.55,0,0,1,1146.5,746.59Z" transform="translate(4.07 -342.36)"/>
                    <path class="mls-6" d="M1100.09,700.69a.57.57,0,1,1,.46-.64A.57.57,0,0,1,1100.09,700.69Z" transform="translate(4.07 -342.36)"/>
                    <ellipse class="mls-7" cx="1096.69" cy="421.34" rx="0.55" ry="0.56"/>
                    <path class="mls-6" d="M1110.94,765.71a1.13,1.13,0,0,1-.34-2.23,1.1,1.1,0,0,1,1.25.94A1.12,1.12,0,0,1,1110.94,765.71Z" transform="translate(4.07 -342.36)"/>
                    <path class="mls-6" d="M1171,811.75a1.1,1.1,0,0,1-1.25-1,1.12,1.12,0,0,1,.92-1.28,1.1,1.1,0,0,1,1.25.94A1.12,1.12,0,0,1,1171,811.75Z" transform="translate(4.07 -342.36)"/>
                    <path class="mls-6" d="M1104.37,714.42a1.11,1.11,0,0,1-1.26-.94,1.13,1.13,0,0,1,.92-1.29,1.13,1.13,0,0,1,.34,2.23Z" transform="translate(4.07 -342.36)"/>
                    <path class="mls-6" d="M714.8,798.71a1.09,1.09,0,0,1-1.25-.94,1.12,1.12,0,0,1,.92-1.28,1.1,1.1,0,0,1,1.25.94A1.12,1.12,0,0,1,714.8,798.71Z" transform="translate(4.07 -342.36)"/>
                    <path class="mls-6" d="M731.63,748.33a1.1,1.1,0,0,1-1.25-.94,1.13,1.13,0,0,1,.92-1.29,1.1,1.1,0,0,1,1.25.95A1.12,1.12,0,0,1,731.63,748.33Z" transform="translate(4.07 -342.36)"/>
                    <path class="mls-6" d="M963.62,620.8a1.1,1.1,0,0,1-1.25-.95,1.12,1.12,0,0,1,.92-1.28,1.1,1.1,0,0,1,1.25.94A1.13,1.13,0,0,1,963.62,620.8Z" transform="translate(4.07 -342.36)"/>
                    <path class="mls-6" d="M705,870.57a2.31,2.31,0,0,1,3.11,1.13,2.41,2.41,0,0,1-1.1,3.18,2.31,2.31,0,0,1-3.11-1.13A2.41,2.41,0,0,1,705,870.57Z" transform="translate(4.07 -342.36)"/>
                    <path class="mls-6" d="M687.9,898.91a1.68,1.68,0,0,1,2.28.83,1.77,1.77,0,0,1-.81,2.34,1.7,1.7,0,0,1-2.28-.83A1.78,1.78,0,0,1,687.9,898.91Z" transform="translate(4.07 -342.36)"/>
                    <path class="mls-6" d="M707.19,877.84a1.09,1.09,0,0,1,1.47.53,1.14,1.14,0,0,1-.52,1.5,1.09,1.09,0,0,1-1.47-.53A1.14,1.14,0,0,1,707.19,877.84Z" transform="translate(4.07 -342.36)"/>
                    <path class="mls-6" d="M730,865.46a1.08,1.08,0,0,1,1.46.53,1.13,1.13,0,0,1-.52,1.5,1.08,1.08,0,0,1-1.46-.53A1.14,1.14,0,0,1,730,865.46Z" transform="translate(4.07 -342.36)"/>
                    <path class="mls-6" d="M718,855.32a1.08,1.08,0,0,1,1.46.54,1.14,1.14,0,0,1-.52,1.5,1.09,1.09,0,0,1-1.46-.54A1.14,1.14,0,0,1,718,855.32Z" transform="translate(4.07 -342.36)"/>
                    <path class="mls-6" d="M735,880.37a1.08,1.08,0,0,1,1.46.54,1.14,1.14,0,0,1-.52,1.5,1.08,1.08,0,0,1-1.46-.53A1.15,1.15,0,0,1,735,880.37Z" transform="translate(4.07 -342.36)"/>
                    <path class="mls-6" d="M700.4,859.28a.55.55,0,0,1,.73.27.57.57,0,0,1-.26.75.55.55,0,0,1-.73-.27A.57.57,0,0,1,700.4,859.28Z" transform="translate(4.07 -342.36)"/>
                    <path class="mls-6" d="M712,863a.55.55,0,0,1,.73.27.57.57,0,0,1-.26.75.54.54,0,0,1-.73-.27A.57.57,0,0,1,712,863Z" transform="translate(4.07 -342.36)"/>
                    <path class="mls-6" d="M694.16,867a1.09,1.09,0,0,1,1.47.54,1.15,1.15,0,0,1-.52,1.5,1.09,1.09,0,0,1-1.47-.54A1.14,1.14,0,0,1,694.16,867Z" transform="translate(4.07 -342.36)"/>
                    <path class="mls-6" d="M681.16,720.27a1.07,1.07,0,0,1,1.53-.24,1.15,1.15,0,0,1,.24,1.58,1.09,1.09,0,0,1-1.54.24A1.15,1.15,0,0,1,681.16,720.27Z" transform="translate(4.07 -342.36)"/>
                    <path class="mls-6" d="M644.38,901.56a1.09,1.09,0,0,1,1.47.53,1.14,1.14,0,0,1-.52,1.5,1.09,1.09,0,0,1-1.47-.53A1.14,1.14,0,0,1,644.38,901.56Z" transform="translate(4.07 -342.36)"/>
                    <path class="mls-6" d="M866.24,932.72a3.31,3.31,0,0,1-3.76-2.83,3.36,3.36,0,0,1,2.76-3.85,3.31,3.31,0,0,1,3.76,2.83A3.37,3.37,0,0,1,866.24,932.72Z" transform="translate(4.07 -342.36)"/>
                    <path class="mls-6" d="M697.23,890.16a3.31,3.31,0,0,1-3.76-2.83,3.37,3.37,0,0,1,2.76-3.86A3.3,3.3,0,0,1,700,886.3,3.37,3.37,0,0,1,697.23,890.16Z" transform="translate(4.07 -342.36)"/>
                    <path class="mls-6" d="M784.15,931.68a3.3,3.3,0,0,1-3.75-2.83,3.36,3.36,0,0,1,2.75-3.85,3.3,3.3,0,0,1,3.76,2.82A3.37,3.37,0,0,1,784.15,931.68Z" transform="translate(4.07 -342.36)"/>
                    <ellipse class="mls-7" cx="942.99" cy="539.45" rx="3.3" ry="3.38"/>
                    <path class="mls-6" d="M859.37,978.35a2.33,2.33,0,0,1-2.65-2,2.38,2.38,0,0,1,1.95-2.73,2.35,2.35,0,0,1,2.66,2A2.39,2.39,0,0,1,859.37,978.35Z" transform="translate(4.07 -342.36)"/>
                    <path class="mls-6" d="M718.91,949.58a2.33,2.33,0,0,1-2.65-2,2.37,2.37,0,0,1,2-2.72,2.33,2.33,0,0,1,2.65,2A2.37,2.37,0,0,1,718.91,949.58Z" transform="translate(4.07 -342.36)"/>
                    <path class="mls-6" d="M744.68,945.92a2.35,2.35,0,0,1-2.66-2,2.39,2.39,0,0,1,2-2.72,2.33,2.33,0,0,1,2.66,2A2.38,2.38,0,0,1,744.68,945.92Z" transform="translate(4.07 -342.36)"/>
                    <path class="mls-6" d="M879.52,876.89a2.33,2.33,0,0,1-2.66-2,2.38,2.38,0,0,1,1.95-2.72,2.35,2.35,0,0,1,2.66,2A2.39,2.39,0,0,1,879.52,876.89Z" transform="translate(4.07 -342.36)"/>
                    <path class="mls-6" d="M903.88,854.81a1.71,1.71,0,0,1-2-1.47,1.75,1.75,0,0,1,1.43-2,1.71,1.71,0,0,1,1.95,1.47A1.74,1.74,0,0,1,903.88,854.81Z" transform="translate(4.07 -342.36)"/>
                    <ellipse class="mls-7" cx="916.48" cy="474.7" rx="1.71" ry="1.76"/>
                    <ellipse class="mls-7" cx="883.57" cy="591.26" rx="1.1" ry="1.13"/>
                    <path class="mls-6" d="M879.49,869.29a1.09,1.09,0,0,1-1.25-.94,1.11,1.11,0,0,1,.92-1.28,1.09,1.09,0,0,1,1.25.94A1.12,1.12,0,0,1,879.49,869.29Z" transform="translate(4.07 -342.36)"/>
                    <path class="mls-6" d="M932.19,890.84a1.1,1.1,0,0,1-1.25-.94,1.12,1.12,0,0,1,.92-1.29,1.11,1.11,0,0,1,1.25.95A1.12,1.12,0,0,1,932.19,890.84Z" transform="translate(4.07 -342.36)"/>
                    <path class="mls-6" d="M819.17,836.3a1.1,1.1,0,0,1-1.25-.94,1.1,1.1,0,1,1,2.17-.35A1.13,1.13,0,0,1,819.17,836.3Z" transform="translate(4.07 -342.36)"/>
                    <path class="mls-6" d="M787.39,822.78a1.1,1.1,0,0,1-1.25-.94,1.13,1.13,0,0,1,.92-1.29,1.1,1.1,0,0,1,1.25,1A1.12,1.12,0,0,1,787.39,822.78Z" transform="translate(4.07 -342.36)"/>
                    <path class="mls-6" d="M854.17,874.42a1.1,1.1,0,0,1-1.25-.94,1.13,1.13,0,0,1,.92-1.29,1.1,1.1,0,0,1,1.25.94A1.13,1.13,0,0,1,854.17,874.42Z" transform="translate(4.07 -342.36)"/>
                    <path class="mls-6" d="M657.05,899.13a1.1,1.1,0,0,1-1.26-.94,1.12,1.12,0,0,1,.92-1.28,1.1,1.1,0,0,1,1.26.94A1.12,1.12,0,0,1,657.05,899.13Z" transform="translate(4.07 -342.36)"/>
                    <path class="mls-6" d="M862.83,887.67a1.12,1.12,0,0,1-1.26-.94,1.13,1.13,0,0,1,.92-1.29,1.13,1.13,0,0,1,.34,2.23Z" transform="translate(4.07 -342.36)"/>
                    <path class="mls-6" d="M880.78,889.07a.54.54,0,0,1-.62-.47.55.55,0,0,1,.46-.64.54.54,0,0,1,.62.47A.56.56,0,0,1,880.78,889.07Z" transform="translate(4.07 -342.36)"/>
                    <path class="mls-6" d="M878.06,818.55a.55.55,0,0,1-.62-.48.56.56,0,0,1,.46-.64.55.55,0,0,1,.62.47A.57.57,0,0,1,878.06,818.55Z" transform="translate(4.07 -342.36)"/>
                    <ellipse class="mls-7" cx="900.35" cy="785.78" rx="0.55" ry="0.56" transform="translate(2.5 -340.56) rotate(-0.11)"/>
                    <ellipse class="mls-7" cx="921.64" cy="455.68" rx="0.55" ry="0.56"/>
                    <ellipse class="mls-7" cx="917.81" cy="461.99" rx="0.55" ry="0.56"/>
                    <path class="mls-6" d="M870.67,882.11a.54.54,0,0,1-.62-.47.55.55,0,0,1,.46-.64.54.54,0,0,1,.62.47A.56.56,0,0,1,870.67,882.11Z" transform="translate(4.07 -342.36)"/>
                    <path class="mls-6" d="M888.91,883.56a1.09,1.09,0,0,1-1.25-.94,1.12,1.12,0,0,1,.92-1.28,1.09,1.09,0,0,1,1.25.94A1.12,1.12,0,0,1,888.91,883.56Z" transform="translate(4.07 -342.36)"/>
                    <path class="mls-6" d="M882.34,832.28a1.1,1.1,0,0,1-1.25-.94,1.13,1.13,0,0,1,.92-1.29,1.1,1.1,0,0,1,1.25,1A1.12,1.12,0,0,1,882.34,832.28Z" transform="translate(4.07 -342.36)"/>
                    <path class="mls-6" d="M718,835.93a1.1,1.1,0,0,1-1.25-.95,1.12,1.12,0,0,1,.92-1.28,1.1,1.1,0,0,1,1.25.94A1.13,1.13,0,0,1,718,835.93Z" transform="translate(4.07 -342.36)"/>
                    <path class="mls-6" d="M800,769a1.1,1.1,0,0,1-1.25-.94,1.13,1.13,0,0,1,.92-1.29A1.13,1.13,0,0,1,800,769Z" transform="translate(4.07 -342.36)"/>
                    <path class="mls-6" d="M943.21,828.21a1.13,1.13,0,1,1,.92-1.29A1.13,1.13,0,0,1,943.21,828.21Z" transform="translate(4.07 -342.36)"/>
                    <path class="mls-6" d="M700,834.82a1.1,1.1,0,0,1-1.25-.94,1.12,1.12,0,0,1,.92-1.28,1.09,1.09,0,0,1,1.25.94A1.12,1.12,0,0,1,700,834.82Z" transform="translate(4.07 -342.36)"/>
                    <path class="mls-6" d="M931.56,809.55a1.09,1.09,0,0,1-1.25-.94,1.12,1.12,0,0,1,.92-1.28,1.09,1.09,0,0,1,1.25.94A1.11,1.11,0,0,1,931.56,809.55Z" transform="translate(4.07 -342.36)"/>
                    <path class="mls-6" d="M948.4,759.17a1.12,1.12,0,0,1-1.26-.94,1.13,1.13,0,0,1,.92-1.29,1.12,1.12,0,0,1,1.26.94A1.13,1.13,0,0,1,948.4,759.17Z" transform="translate(4.07 -342.36)"/>
                    <path class="mls-6" d="M946.3,865.12a1.13,1.13,0,1,1,.92-1.29A1.13,1.13,0,0,1,946.3,865.12Z" transform="translate(4.07 -342.36)"/>
                </g>
            </g>
            <path id="Twitter" class="mls-9" d="M751.55,599.11A72.87,72.87,0,1,0,824.42,672,72.86,72.86,0,0,0,751.55,599.11Zm33.28,56.82c0,.71,0,1.45,0,2.16,0,22.09-16.82,47.6-47.59,47.6h0a47.33,47.33,0,0,1-25.65-7.52,37.66,37.66,0,0,0,4,.23,33.57,33.57,0,0,0,20.78-7.17,16.79,16.79,0,0,1-15.63-11.62,16.36,16.36,0,0,0,3.13.31,15.92,15.92,0,0,0,4.41-.59,16.72,16.72,0,0,1-13.4-16.4v-.23a16.2,16.2,0,0,0,7.57,2.08,16.65,16.65,0,0,1-7.43-13.92,16.36,16.36,0,0,1,2.28-8.4,47.47,47.47,0,0,0,34.47,17.48,16.48,16.48,0,0,1-.43-3.81,16.74,16.74,0,0,1,29-11.45A32.63,32.63,0,0,0,791,640.61a16.9,16.9,0,0,1-7.35,9.26,32.84,32.84,0,0,0,9.6-2.65A34,34,0,0,1,784.83,655.93Z" transform="translate(4.07 -342.36)"/>
            <g id="YouTube">
                <path class="mls-10" d="M533.54,763.78l23.71-13.67-23.71-13.66v27.33Z" transform="translate(4.07 -342.36)"/>
                <path class="mls-10" d="M542.62,677.24a72.88,72.88,0,1,0,72.87,72.87A72.86,72.86,0,0,0,542.62,677.24Zm45.54,73s0,14.77-1.87,21.92a11.46,11.46,0,0,1-8,8C571.11,782,542.62,782,542.62,782s-28.44,0-35.64-2a11.44,11.44,0,0,1-8-8c-1.87-7-1.87-21.89-1.87-21.89s0-14.77,1.87-21.89a11.71,11.71,0,0,1,8-8.11c7.15-1.88,35.64-1.88,35.64-1.88s28.49,0,35.64,2a11.43,11.43,0,0,1,8,8C588.22,735.34,588.16,750.2,588.16,750.2Z" transform="translate(4.07 -342.36)"/>
            </g>
            <path id="Facebook" class="mls-11" d="M407.22,577.51a72.88,72.88,0,1,0-72.87,72.87c.42,0,.85,0,1.28,0V593.65H320V575.41h15.66V562c0-15.57,9.5-24.05,23.4-24.05a126.65,126.65,0,0,1,14,.71v16.28H363.5c-7.55,0-9,3.59-9,8.85v11.62h18.08l-2.37,18.24H354.47v54A72.9,72.9,0,0,0,407.22,577.51Z" transform="translate(4.07 -342.36)"/>
            <g id="Instagram">
                <path class="mls-12" d="M196.08,725.24a13.95,13.95,0,1,1-14-14A13.94,13.94,0,0,1,196.08,725.24Z" transform="translate(4.07 -342.36)"/>
                <path class="mls-12" d="M214.76,700.56a13,13,0,0,0-3.14-4.81,12.69,12.69,0,0,0-4.81-3.13,23.63,23.63,0,0,0-7.77-1.45c-4.41-.2-5.75-.26-16.91-.26s-12.49,0-16.9.26a23.64,23.64,0,0,0-7.78,1.45,12.85,12.85,0,0,0-4.81,3.13,13.1,13.1,0,0,0-3.13,4.81,23.63,23.63,0,0,0-1.45,7.77c-.2,4.41-.26,5.72-.26,16.91s.06,12.5.26,16.91a22.84,22.84,0,0,0,1.45,7.77,13.86,13.86,0,0,0,7.94,7.94,23.64,23.64,0,0,0,7.78,1.45c4.41.2,5.72.26,16.9.26s12.5,0,16.91-.26a22.84,22.84,0,0,0,7.77-1.45,13.82,13.82,0,0,0,7.95-7.94,23.9,23.9,0,0,0,1.45-7.77c.2-4.41.25-5.75.25-16.91s0-12.5-.25-16.91A23.9,23.9,0,0,0,214.76,700.56Zm-32.63,46.17a21.49,21.49,0,1,1,21.5-21.49A21.49,21.49,0,0,1,182.13,746.73Zm22.35-38.8a5,5,0,1,1,5-5A5,5,0,0,1,204.48,707.93Z" transform="translate(4.07 -342.36)"/>
                <path class="mls-12" d="M182.13,652.37A72.87,72.87,0,1,0,255,725.24,72.86,72.86,0,0,0,182.13,652.37Zm41.59,90.12a31.19,31.19,0,0,1-1.93,10.16,21.36,21.36,0,0,1-12.24,12.24,30.69,30.69,0,0,1-10.17,1.94c-4.47.2-5.89.25-17.25.25s-12.78-.05-17.25-.25a31,31,0,0,1-10.16-1.94,21.6,21.6,0,0,1-12.24-12.24,30.65,30.65,0,0,1-1.93-10.16c-.2-4.47-.26-5.89-.26-17.25s.06-12.78.26-17.25a30.93,30.93,0,0,1,1.93-10.16,21.6,21.6,0,0,1,12.24-12.24,30.79,30.79,0,0,1,10.16-1.94c4.47-.2,5.9-.26,17.25-.26s12.78.06,17.25.26a31,31,0,0,1,10.17,1.94,21.6,21.6,0,0,1,12.24,12.24A31,31,0,0,1,223.72,708c.2,4.47.26,5.89.26,17.25S223.92,738,223.72,742.49Z" transform="translate(4.07 -342.36)"/>
            </g>
            <circle class="mls-9" cx="665.86" cy="363.59" r="8.83"/>
            <circle class="mls-9" cx="832.02" cy="370.3" r="7.19"/>
            <circle class="mls-9" cx="792.6" cy="417.79" r="7.35"/>
            <circle class="mls-9" cx="701.85" cy="418.82" r="9.82"/>
            <circle class="mls-9" cx="737.01" cy="489.39" r="10.25"/>
            <circle class="mls-9" cx="801.54" cy="497.53" r="14.08"/>
            <circle class="mls-9" cx="707.92" cy="560.73" r="15.9"/>
            <circle class="mls-9" cx="799.95" cy="587.46" r="26.5"/>
            <circle class="mls-10" cx="471.56" cy="507.99" r="12.72"/>
            <circle class="mls-10" cx="603.93" cy="504.12" r="11.7"/>
            <circle class="mls-10" cx="570.27" cy="584.07" r="23.58"/>
            <circle class="mls-10" cx="464.39" cy="580.85" r="26.8"/>
            <circle class="mls-10" cx="465.03" cy="449.83" r="6.18"/>
            <circle class="mls-10" cx="505.77" cy="493.82" r="5.56"/>
            <circle class="mls-10" cx="621.04" cy="470.27" r="1.48"/>
            <circle class="mls-11" cx="365.62" cy="359.32" r="21.77"/>
            <circle class="mls-11" cx="269.72" cy="296.97" r="6.07"/>
            <circle class="mls-11" cx="410.18" cy="306.1" r="9.05"/>
            <circle class="mls-11" cx="299.73" cy="323.16" r="4.32"/>
            <circle class="mls-11" cx="419.64" cy="271.84" r="4.36"/>
            <circle class="mls-11" cx="341.67" cy="439.09" r="8.03"/>
            <circle class="mls-12" cx="180.61" cy="511.7" r="26.29"/>
            <circle class="mls-12" cx="94.62" cy="451.07" r="4.64"/>
            <circle class="mls-12" cx="127.14" cy="474.9" r="4.77"/>
            <circle class="mls-12" cx="254.32" cy="513.79" r="11.38"/>
            <circle class="mls-12" cx="146.29" cy="570.39" r="19.16"/>
            <circle class="mls-12" cx="259.03" cy="591.08" r="17.59"/>
            <circle class="mls-12" cx="341.9" cy="517.65" r="15.24"/>
        </g>
    </g>
</svg>