<svg xmlns="http://www.w3.org/2000/svg" xmlns:xlink="http://www.w3.org/1999/xlink" viewBox="0 0 1150.77 918.51">
	<defs>
		<style>
			.cls-1{
			fill:none;
			}.cls-2{isolation:isolate;}
			.cls-3{clip-path:url(#clip-path);}
			.cls-4{fill:url(#linear-gradient);}
			.cls-10,.cls-14,.cls-16,.cls-25,.cls-26,.cls-27,.cls-28,.cls-29,.cls-30,.cls-31,.cls-32,.cls-33,.cls-34,.cls-35,.cls-36,.cls-5{mix-blend-mode:screen;}.cls-5{fill:url(#Áåçûìÿííûé_ãðàäèåíò_6);}.cls-6{fill:#fff;}.cls-7{fill:url(#linear-gradient-2);}.cls-8{fill:#7400b8;}.cls-30,.cls-41,.cls-44,.cls-60,.cls-62,.cls-9{opacity:0.5;}.cls-41,.cls-44,.cls-51,.cls-52,.cls-60,.cls-61,.cls-62,.cls-9{mix-blend-mode:multiply;}.cls-9{fill:url(#Áåçûìÿííûé_ãðàäèåíò_5);}.cls-10,.cls-35,.cls-36{opacity:0.45;}.cls-10{fill:url(#New_Gradient_Swatch_2);}.cls-11,.cls-37,.cls-38{mix-blend-mode:soft-light;}.cls-11{fill:url(#New_Gradient_Swatch_copy_3);}.cls-12{fill:url(#New_Gradient_Swatch_copy_4);}.cls-13{fill:url(#New_Gradient_Swatch_2-2);}.cls-14,.cls-16,.cls-25,.cls-26{opacity:0.2;}.cls-14{fill:url(#New_Gradient_Swatch_copy_4-2);}.cls-15{fill:url(#New_Gradient_Swatch_2-3);}.cls-16{fill:url(#Áåçûìÿííûé_ãðàäèåíò_2);}.cls-17{fill:url(#New_Gradient_Swatch_copy_3-2);}.cls-18{fill:url(#linear-gradient-3);}.cls-19{fill:url(#linear-gradient-4);}.cls-20{fill:url(#linear-gradient-5);}.cls-21{fill:url(#linear-gradient-6);}.cls-22{fill:url(#New_Gradient_Swatch_copy_4-3);}.cls-23{fill:url(#linear-gradient-7);}.cls-24{fill:url(#linear-gradient-8);}.cls-25{fill:url(#Áåçûìÿííûé_ãðàäèåíò_2-2);}.cls-26{fill:url(#Áåçûìÿííûé_ãðàäèåíò_2-3);}.cls-27{fill:url(#radial-gradient);}.cls-28{fill:url(#radial-gradient-2);}.cls-29{fill:url(#Áåçûìÿííûé_ãðàäèåíò_4);}.cls-30{fill:url(#Áåçûìÿííûé_ãðàäèåíò_4-2);}.cls-31{fill:url(#Áåçûìÿííûé_ãðàäèåíò_4-3);}.cls-32{fill:url(#radial-gradient-3);}.cls-33{fill:url(#radial-gradient-4);}.cls-34{fill:url(#Áåçûìÿííûé_ãðàäèåíò_4-4);}.cls-35{fill:url(#Áåçûìÿííûé_ãðàäèåíò_3);}.cls-36{fill:url(#Áåçûìÿííûé_ãðàäèåíò_2-4);}.cls-37{fill:url(#New_Gradient_Swatch_copy_3-3);}.cls-38{fill:url(#New_Gradient_Swatch_copy_3-4);}.cls-39{fill:url(#linear-gradient-9);}.cls-40{fill:#506da2;}.cls-41{fill:url(#linear-gradient-10);}.cls-42{fill:#439fff;}.cls-43{fill:#1f65ff;}.cls-44{fill:#005;}.cls-45{fill:#29e2ff;}.cls-45,.cls-46,.cls-47,.cls-48,.cls-49,.cls-50{opacity:0.3;mix-blend-mode:hard-light;}.cls-46{fill:#53b6ff;}.cls-47{fill:#34f6ff;}.cls-48{fill:#32d2ff;}.cls-49{fill:#20e8ff;}.cls-50{fill:#0023b4;}.cls-51{fill:url(#linear-gradient-11);}.cls-52,.cls-62{fill:#0087eb;}.cls-53{fill:#5ac2ff;}.cls-54{fill:#005ad1;}.cls-55{fill:#00239f;}.cls-56{fill:#7bd6ff;}.cls-57{fill:#5390d9;}.cls-58{opacity:0.46;}.cls-59{fill:url(#linear-gradient-12);}.cls-60{fill:url(#linear-gradient-13);}.cls-61{fill:url(#linear-gradient-14);}
		</style>
		<clipPath id="clip-path" transform="translate(47.29)">
			<rect id="SVGID" class="cls-1" width="1080" height="840.62" />
		</clipPath>
		<linearGradient id="linear-gradient" x1="587.29" y1="684.24" x2="587.29" y2="130.12" gradientUnits="userSpaceOnUse">
			<stop offset="0.11" stop-color="#80ffdb" />
			<stop offset="0.49" stop-color="#48bfe3" />
			<stop offset="0.75" stop-color="#5974d3" />
			<stop offset="1" stop-color="#7400b8" />
		</linearGradient>
		<radialGradient id="Áåçûìÿííûé_ãðàäèåíò_6" cx="428.27" cy="997.97" r="46.76" gradientTransform="matrix(-1.71, 0.35, -0.35, -1.71, 1640.93, 2164.96)" gradientUnits="userSpaceOnUse">
			<stop offset="0" stop-color="#ff3600" />
			<stop offset="1" />
		</radialGradient>
		<linearGradient id="linear-gradient-2" x1="586.64" y1="842.24" x2="586.64" y2="698.75" gradientUnits="userSpaceOnUse">
			<stop offset="0.02" stop-color="#72efdd" />
			<stop offset="0.69" stop-color="#5390d9" />
			<stop offset="0.77" stop-color="#5b6dd1" />
			<stop offset="0.87" stop-color="#634cc9" />
			<stop offset="0.95" stop-color="#6737c5" />
			<stop offset="1" stop-color="#6930c3" />
		</linearGradient>
		<linearGradient id="Áåçûìÿííûé_ãðàäèåíò_5" x1="46.64" y1="806.37" x2="1126.64" y2="806.37" gradientUnits="userSpaceOnUse">
			<stop offset="0" stop-color="#b67ae7" />
			<stop offset="1" stop-color="#ffebc4" />
		</linearGradient>
		<linearGradient id="New_Gradient_Swatch_2" x1="329.75" y1="738.95" x2="1126.8" y2="738.95" gradientUnits="userSpaceOnUse">
			<stop offset="0" stop-color="#13b6ff" />
			<stop offset="0.99" stop-color="#62efff" />
		</linearGradient>
		<linearGradient id="New_Gradient_Swatch_copy_3" x1="866.53" y1="734.69" x2="866.53" y2="701" gradientUnits="userSpaceOnUse">
			<stop offset="0" stop-color="#fff" />
			<stop offset="1" stop-color="#76f3dc" />
		</linearGradient>
		<linearGradient id="New_Gradient_Swatch_copy_4" x1="828.9" y1="348.92" x2="855.72" y2="394.31" gradientUnits="userSpaceOnUse">
			<stop offset="0" stop-color="#80ffdb" />
			<stop offset="0.99" stop-color="#64dfdf" />
		</linearGradient>
		<linearGradient id="New_Gradient_Swatch_2-2" x1="872.16" y1="499.34" x2="872.16" y2="238.56" xlink:href="#New_Gradient_Swatch_2" />
		<linearGradient id="New_Gradient_Swatch_copy_4-2" x1="892.3" y1="492.85" x2="892.3" y2="237.66" xlink:href="#New_Gradient_Swatch_copy_4" />
		<linearGradient id="New_Gradient_Swatch_2-3" x1="529" y1="670.83" x2="529" y2="528.22" xlink:href="#New_Gradient_Swatch_2" />
		<linearGradient id="Áåçûìÿííûé_ãðàäèåíò_2" x1="708.74" y1="638.93" x2="1035.41" y2="638.93" gradientUnits="userSpaceOnUse">
			<stop offset="0" stop-color="#ff8d63" />
			<stop offset="1" />
		</linearGradient>
		<linearGradient id="New_Gradient_Swatch_copy_3-2" x1="990.09" y1="445.92" x2="990.09" y2="415.91" xlink:href="#New_Gradient_Swatch_copy_3" />
		<linearGradient id="linear-gradient-3" x1="803.69" y1="499.34" x2="803.69" y2="477.26" xlink:href="#New_Gradient_Swatch_copy_3" />
		<linearGradient id="linear-gradient-4" x1="899.12" y1="533.48" x2="899.12" y2="450.81" xlink:href="#New_Gradient_Swatch_copy_3" />
		<linearGradient id="linear-gradient-5" x1="675.02" y1="575.14" x2="675.02" y2="501.79" xlink:href="#New_Gradient_Swatch_copy_3" />
		<linearGradient id="linear-gradient-6" x1="436.65" y1="563.63" x2="436.65" y2="496.51" xlink:href="#New_Gradient_Swatch_copy_3" />
		<linearGradient id="New_Gradient_Swatch_copy_4-3" x1="524.75" y1="687.8" x2="523.21" y2="295.91" xlink:href="#New_Gradient_Swatch_copy_4" />
		<linearGradient id="linear-gradient-7" x1="428.61" y1="502.05" x2="428.61" y2="478.73" xlink:href="#New_Gradient_Swatch_copy_3" />
		<linearGradient id="linear-gradient-8" x1="522.23" y1="637.72" x2="522.23" y2="365.89" xlink:href="#New_Gradient_Swatch_2" />
		<linearGradient id="Áåçûìÿííûé_ãðàäèåíò_2-2" x1="393.86" y1="627.83" x2="393.86" y2="553.8" xlink:href="#Áåçûìÿííûé_ãðàäèåíò_2" />
		<linearGradient id="Áåçûìÿííûé_ãðàäèåíò_2-3" x1="843.06" y1="639.01" x2="843.06" y2="597.56" gradientTransform="translate(-219.6 204.77) rotate(-14.29)" xlink:href="#Áåçûìÿííûé_ãðàäèåíò_2" />
		<radialGradient id="radial-gradient" cx="406.31" cy="1012.83" r="65.67" gradientTransform="matrix(-1.71, 0.35, -0.35, -1.71, 1608.16, 2151.75)" gradientUnits="userSpaceOnUse">
			<stop offset="0" stop-color="#fff" />
			<stop offset="1" />
		</radialGradient>
		<radialGradient id="radial-gradient-2" cx="440.12" cy="987.39" r="46.44" gradientTransform="matrix(-1.71, 0.35, -0.35, -1.71, 1661.45, 2170.19)" xlink:href="#radial-gradient" />
		<linearGradient id="Áåçûìÿííûé_ãðàäèåíò_4" x1="768.14" y1="696.06" x2="768.14" y2="622.87" gradientUnits="userSpaceOnUse">
			<stop offset="0" />
			<stop offset="1" stop-color="#ffcf00" />
		</linearGradient>
		<linearGradient id="Áåçûìÿííûé_ãðàäèåíò_4-2" x1="643.03" y1="696.06" x2="643.03" y2="627.4" xlink:href="#Áåçûìÿííûé_ãðàäèåíò_4" />
		<linearGradient id="Áåçûìÿííûé_ãðàäèåíò_4-3" x1="557.69" y1="697.86" x2="557.69" y2="637.17" xlink:href="#Áåçûìÿííûé_ãðàäèåíò_4" />
		<radialGradient id="radial-gradient-3" cx="562.42" cy="646.66" r="194.26" gradientTransform="translate(621.99 -208.29) rotate(45)" gradientUnits="userSpaceOnUse">
			<stop offset="0" stop-color="#4ea8de" />
			<stop offset="1" />
		</radialGradient>
		<radialGradient id="radial-gradient-4" cx="542.02" cy="373.07" r="109.42" gradientTransform="translate(269.61 447.11) scale(0.62 0.59)" gradientUnits="userSpaceOnUse">
			<stop offset="0" stop-color="#5ac7ff" />
			<stop offset="1" />
		</radialGradient>
		<linearGradient id="Áåçûìÿííûé_ãðàäèåíò_4-4" x1="332.64" y1="696.83" x2="332.64" y2="609.79" xlink:href="#Áåçûìÿííûé_ãðàäèåíò_4" />
		<linearGradient id="Áåçûìÿííûé_ãðàäèåíò_3" x1="47.29" y1="758.74" x2="901.5" y2="758.74" gradientUnits="userSpaceOnUse">
			<stop offset="0" />
			<stop offset="1" stop-color="#ff8d63" />
		</linearGradient>
		<linearGradient id="Áåçûìÿííûé_ãðàäèåíò_2-4" x1="47.29" y1="830.97" x2="901.5" y2="830.97" xlink:href="#Áåçûìÿííûé_ãðàäèåíò_2" />
		<linearGradient id="New_Gradient_Swatch_copy_3-3" x1="892.48" y1="769.43" x2="892.48" y2="760.54" xlink:href="#New_Gradient_Swatch_copy_3" />
		<linearGradient id="New_Gradient_Swatch_copy_3-4" x1="210.32" y1="701.13" x2="962.49" y2="701.13" xlink:href="#New_Gradient_Swatch_copy_3" />
		<linearGradient id="linear-gradient-9" x1="254.55" y1="772.18" x2="254.55" y2="583.25" gradientUnits="userSpaceOnUse">
			<stop offset="0" stop-color="#000b43" />
			<stop offset="0.08" stop-color="#0c1f57" />
			<stop offset="0.32" stop-color="#2d5893" />
			<stop offset="0.54" stop-color="#4885c1" />
			<stop offset="0.73" stop-color="#5ba5e3" />
			<stop offset="0.89" stop-color="#67b9f8" />
			<stop offset="1" stop-color="#6bc0ff" />
		</linearGradient>
		<linearGradient id="linear-gradient-10" x1="305.47" y1="772.18" x2="305.47" y2="624.04" gradientUnits="userSpaceOnUse">
			<stop offset="0" stop-color="#539cff" />
			<stop offset="1" stop-color="#0a65ff" />
		</linearGradient>
		<linearGradient id="linear-gradient-11" x1="373.2" y1="752.63" x2="426.39" y2="752.63" gradientUnits="userSpaceOnUse">
			<stop offset="0.11" stop-color="#80ffdb" />
			<stop offset="0.49" stop-color="#56cfe1" />
			<stop offset="1" stop-color="#5390d9" />
		</linearGradient>
		<linearGradient id="linear-gradient-12" x1="207.26" y1="1611.56" x2="207.26" y2="1401.32" gradientTransform="matrix(1, 0, 0, -0.71, 47.29, 1912)" xlink:href="#linear-gradient-9" />
		<linearGradient id="linear-gradient-13" x1="258.14" y1="1611.56" x2="258.14" y2="1446.71" gradientTransform="matrix(1, 0, 0, -0.71, 47.29, 1912)" xlink:href="#linear-gradient-10" />
		<linearGradient id="linear-gradient-14" x1="254.72" y1="1552.62" x2="303.21" y2="1552.62" gradientTransform="matrix(0.98, 0.21, 0.15, -0.69, -109.98, 1805.29)" xlink:href="#linear-gradient-11" />
	</defs>
	<g class="cls-2">
		<g id="Layer_1" data-name="Layer 1">
			<g class="cls-3">
				<rect id="Background" class="cls-4" x="47.29" width="1080" height="715.65" />
				<g id="Sun">
					<circle class="cls-5" cx="564.84" cy="609.79" r="81.43" transform="translate(-218.46 578.01) rotate(-45)" />
					<circle class="cls-6" cx="565.44" cy="607.53" r="56.43" transform="translate(-216.69 577.77) rotate(-45)" />
				</g>
				<g id="water">
					<rect class="cls-7" x="46.64" y="698.75" width="1080" height="143.49" />
					<path class="cls-6" d="M578.67,698l38.19,3.86-68.78,2.31h92.65s-70.68,2.06-71.93,2.58,97.16.25,99,0-24.29-2.32-24.29-2.32,29.93-1.24,30.71-1.91-49.52-1.82-49.52-1.82l19.59-1.93Z" transform="translate(47.29)" />
					<path class="cls-6" d="M549,716.37c-1,0,80.42,3.4,80.42,3.4s-59.63,1.81-60.33,2.38,62.45,2.51,62.45,2.51-41.75.71-43.69,1.29,25.41,2,25.41,2S552.51,732.46,550,733s118,.5,119.18-.08-34.51-3.5-34.51-3.5,15.12-1,16.53-1.51S626,726.69,626,726.69s25.86-.49,26.45-.68-23.51-2.8-23.51-2.8,44.43-3.76,44.43-4.24C673.37,717,589.62,716.18,549,716.37Z" transform="translate(47.29)" />
					<path class="cls-6" d="M569.11,745.56s49.07-7.08,133.92-.13C703,745.43,621.39,747.87,569.11,745.56Z" transform="translate(47.29)" />
					<path class="cls-8" d="M108.38,698s729.33-3.08,910.8,0C1019.18,698,160.67,700.29,108.38,698Z" transform="translate(47.29)" />
					<path class="cls-6" d="M565.18,789.37s49.07-2.22,133.92,0C699.1,789.32,617.47,790.09,565.18,789.37Z" transform="translate(47.29)" />
					<path class="cls-6" d="M601.33,771.34s7.21-1.87,19.69,0A189,189,0,0,1,601.33,771.34Z" transform="translate(47.29)" />
					<path class="cls-6" d="M636.07,806.26s7.21-1.88,19.69,0A189,189,0,0,1,636.07,806.26Z" transform="translate(47.29)" />
					<path class="cls-6" d="M525.58,806.26s38.31-1.88,104.57,0C630.15,806.22,566.4,806.87,525.58,806.26Z" transform="translate(47.29)" />
					<path class="cls-6" d="M590.31,798.46s22.78-5.91,62.17-.11C652.48,798.35,614.58,800.39,590.31,798.46Z" transform="translate(47.29)" />
					<path class="cls-6" d="M590.31,752.88s22.78-5.91,62.17-.11C652.48,752.77,614.58,754.81,590.31,752.88Z" transform="translate(47.29)" />
					<polygon class="cls-9" points="1126.64 797.54 484.86 810.83 691.81 815.24 81.1 825.27 438.9 811.41 46.64 799.29 1126.64 777.95 1126.64 770.5 46.64 770.5 46.64 842.24 1126.64 842.24 1126.64 797.54" />
					<polygon class="cls-10" points="1126.8 733.43 329.75 733.43 1126.8 744.47 1126.8 733.43" />
					<path class="cls-11" d="M711.26,701l43.1,4.52s-52.87,3.53-54.93,4.52,14.4,3.56,14.4,3.56l43.71,5.76s-78.81,10.48-81.06,13.78,380.12.29,380.12.29L845,727.9s115.34.41,120.6-6.77-170-15.61-170-15.61l48.34-3.75Z" transform="translate(47.29)" />
				</g>
				<g id="Claud">
					<path class="cls-12" d="M1091.75,230.44s-119.21,6.91-141.36,52.84c0,0-4.14,13.41-2.93,22.29,0,0-2.42-.91-5.85,1.41,0,0-1.92-3.63-9.38,0,0,0,4.74-11.5-4.54-13s-20.89,6.46-20.89,6.46-7.56-5.05-20.58-1.11-8.17,19.37-8.17,19.37a94.24,94.24,0,0,0-16.95,13v-3.93s10-14.83-5.14-13.93-15.13,19.68-13.62,23.31,6,0,6,0-3.33,6.05-2.12,10.29l-2.42,7s-1.51-4.84-5.14,0,0,13.32,0,13.32l-3.94,2.72s-.6-6.36-8.17-5.45-6.05,10.29-6.05,10.29-7.87-14.52-33.6,0S764,418,764,418s-3.93-3.33-8.17,3c0,0-11.2-7.56-26.63,0s-20,16.95-20,16.95-15.73-14.53-45.39,2.72-20,35.11-16.65,37.84,8.47,2.35,8.47,2.35l-10,3.4s-7.87-13.75-34.81-3.4c0,0,.3-5.68-10.59-2S580.85,492.71,583,496s13.62,0,13.62,0,14.83,5.68,26.33,1.48c0,0,14.22-4.2,23.6-6.93,0,0-2.72,9.39,10.6,8.48s41.16-7.87,41.16-7.87,17,10.49,41.76,6.76,26-8.88,26-8.88,55.69-1.51,68.7-22.09l22.4-7.57s1.51,4.84,21.79,2.12,23.91-12.41,23.3-15.74S888,442.17,888,442.17s4.24-5.75,3.33-8.48-6.66-2.11-6.66-2.11l35.41-15.74s-5.14,7.56,0,10.59c0,0-6.66,6.36-2.42,9.69s25.42-2.73,25.42-2.73-3.63,4.54,9.08,6.66,143.16-37.26,143.16-37.26l-1.8-144.38Z" transform="translate(47.29)" />
					<path class="cls-13" d="M1097.17,238.56s-150.93,42.3-148.4,71.35L917.7,331.1s6.36-20.89-9.69-16.05-24.81,17.56-21.79,21.19,16.35,2.42,16.35,2.42L890.46,345s-1.11-2.42-6.25-2a19.16,19.16,0,0,0-9,3.23s-1.21-1.41-8.58,2-12.41,10-11.5,12.91c0,0-18.26,7.06-23.6,18s1.91,12.61,1.91,12.61l-15.53,8.57s2.82-6.15-10.6-4.34-26.83,10.7-30.26,20.68,6.35,10.7,6.35,10.7-67.89,8.47-57.84,21.14a100.19,100.19,0,0,0-28.06,1.71c-15,3.13-19.07,10.84-19.37,14.07S691.22,466,691.22,466s-30.37,13.82-36.73,18.76-7.73,9.1-7.24,11.21,4.72,4.05,15.92,3.18,35.11-7.93,35.11-7.93S715.73,502.39,742,498s24.11-8.88,24.11-8.88,24,.29,45.57-7.37S834.77,467,834.77,467l21.67-7.33s6.48,7,24.94,2.28,21.69-13.52,21.69-13.52-4.54-4.23-14.12-4.74a67.37,67.37,0,0,0-17,1.21s15.91-2.59,18.5-6.84.67-7.89-6.39-8.9l36-13.31s2.62-.91,9.28.4c0,0-8.07,2.72-8.27,8,0,0-5.71,7.6-4.57,10.46s10.62,3.56,26.56-1.28c0,0,5.15-3.23,17.35-3.63,0,0-14.6,2.2-17,7,0,0,3.16,4.3,16.48,4s123.66-41.58,123.66-41.58l10.16-121.77Z" transform="translate(47.29)" />
					<path class="cls-14" d="M1080,237.66S970.63,281,959.32,295.39s22.07,15.88,22.07,15.88-89,40.39-109.54,58.39,35,6.73,35,6.73l-47,23.29s-19-17.67-55.9,22.44c0,0-67.89,14.91-73,22.63S753.57,455,753.57,455s-48.57,22.63-49,30.86,36.1,10.29,73.13,0,50.91-26.23,50.91-29.31-12.34-1-12.34-1S908.88,417,941.79,404.63c0,0-9.77,11.83-4.62,18S1080,387.45,1080,387.45Z" transform="translate(47.29)" />
					<path class="cls-15" d="M957.89,544.6c-22.11,13.82-7.72,13.82-7.72,13.82s-38.63,7.63-54,17.44,0,11.88,0,11.88L863.27,598s4.12-8.22-15.94-9.76S734.17,598.54,718.75,606.5s0,10.55,0,10.55-19.29,4.68-21.08,6.51,4.1,3,4.1,3l-37.53,1.29s4.63-2.84,3.85-6.31-33-7.45-60.82-.77c0,0,2.07-2.7-2.56-3.08s-39.09,11.06-39.09,11.06l-35.23-1s-.26-8.61-5.9-10.15-41.54.65-41.54.65l-122.53-3.09s-59.14-8.74-91.93-4.38c-28,3.74-33.29,12.24-33.44,15.6-16.27-1-46.55-4.6-62.12-2.82a46.22,46.22,0,0,0,9.09-2.39c1.93-.85,3.45-1.9,3.67-3.18,0,0,4.47-.13,10.75-.47,13.55-.74,35.5-2.56,38.76-6.6,4.75-5.92-10.94-9.64-10.94-9.64l37.55-1.68,2.44-6.17-309.73,1.8v55.16H314s-53.62,2.31-59.79,4.24,15.43,3.86,15.43,3.86L2.74,661.92-45.48,665v4.25h113l-.14,0c-.87.14-5.46,1-5.46,1.51S262.59,667,319.62,665.7l3.72-.08,2.21,0,1.05,0,1.8,0h1l2.73-.06h.31l1.74,0,.4,0s-5.35,1.51-6.18,2.67a1.2,1.2,0,0,0-.11.23c-.2,1.14,327.47,1.47,330.82-.32s-9-2.84-9-2.84l3.32,0,3.17,0,1.89,0c41.82-.66,226.41-3.56,229.48-4.24a48.22,48.22,0,0,0,6.5-2.57l204.52-.93,4.51-129S980,530.78,957.89,544.6ZM272,624.52c-1.23.05-7.57.32-14.32.74-.81-1-3.73-1.7-3.73-1.7l18.27.94ZM458,655H369.81s18.76-.94,23.15-5.06c0,0,30.59,2.58,37,0,5.6-2.25-7.4-3.11-10.79-3.3l83,3.29C497.41,649.87,464.92,649.48,458,655Zm310.81,2.69h-.45l-33.92,1.51-35.3-.19s.29,0,.74-.13h.06c1.42-.27,4.32-.88,4.6-1.61.4-1-65.57-1.16-73.66-.39s3.66,2.13,3.66,2.13l-40.32,1,.28,0,.29-.05.33,0c4.73-.67,26.89-3.8,35.13-5.6l.6-.14a10.2,10.2,0,0,0,2.34-.7c2.69-1.54-4.62-1.93-4.62-1.93L652.08,650s-6.17,1.73-6,2.9a8.41,8.41,0,0,0,2.82.34c13.89.73,74.32.43,74.32.43l60.53,3h.11l4.15.21Z" transform="translate(47.29)" />
					<path class="cls-16" d="M1035.41,616.73s-186.48,19.16-193.52,24.56,62.38,10.19,62.38,10.19l-195.53,9.65h326.67Z" transform="translate(47.29)" />
					<path class="cls-17" d="M947.47,445.92s11.95-6.89,22.37-11.76c0,0-11.19.38-3.47-10.8s47.06-9.66,66.34,3.84Z" transform="translate(47.29)" />
					<path class="cls-18" d="M836.77,486.23s-13.5-10-40.5-8.88-25.64,14.79-25.64,14.79l11,7.2Z" transform="translate(47.29)" />
					<path class="cls-19" d="M924.9,453.64s-19.09-6.37-44.16,0-7.69,15.62-7.69,15.62-7,9.7-4.07,12.15,29.5-4.06,29.5-4.06h19.29s-22.76,6.57-33.56,12.74,1.54,6.42,1.54,6.42-25.84,1.68-44,11.32-16,25.65-16,25.65l72.86-25.14,59-31,14.87-23.13L935.9,472.47l-25.85-3.21-4.24-7.33Z" transform="translate(47.29)" />
					<path class="cls-20" d="M629.64,540.81s-6.16-10.61,1.74-26,45.45-9.25,45.45-9.25,4.11-3.32,17-3.72,28.88,9.85,28.88,9.85l-35.6,42.15-39.89,21.34-13.89-5.6s1.35-4.88,8.55-11,18-9.12,18-9.12Z" transform="translate(47.29)" />
					<path class="cls-21" d="M511.73,556.6s-7.7-13.05-26.73-18c0,0,2.55-13.56-10.55-23.85S448.24,506,448.24,506s-51.19-18.23-86.67-4.23l75.08,47.57,56.06,14.26Z" transform="translate(47.29)" />
					<path class="cls-22" d="M1095.36,402.79S996.84,422.2,984.5,427.22s-10.8,11.57-10.8,11.57-11.38.19-26.23,7.13-13.31,16.4-12.54,17.94,7.91,1.73,7.91,1.73l-19.29,3.67s2.7-2.51,2.7-4.44-7.9-1.35-7.9-1.35,6.55-7.13,6.55-9.83-40.3,4.05-49,12.15,3.47,5.78,3.47,5.78-11,5.21-10.41,9.84,19.86,4.43,24.68,2.89,2.51-4.05,2.51-4.05l13.11.58s-19.48,11.57-11,15c0,0-25.26,2.9-47.64,13.12s-26,21.6-24.87,24.49,11.18,4,11.18,4L797,544.09s12.92-12,6.36-22.76-29.89-7.14-29.89-7.14,3.86-2.89,2.51-7.13c0,0,31.63,5.4,45.13-2.12,0,0,5.4-3.67,6-7.52,0,0,10.8-6.37,9.64-11.19s-45.32-6.75-59.4-.58.58,5,.58,5-10.22.19-11.77,5.78,8.68,8.29,8.68,8.29-17.93-1.15-26.61,5.79,5,7.33,5,7.33S696.37,501.8,657,513.23c-38.46,11.17-27.39,27.58-27.39,27.58s-8.87,4.05-9.26,5.78,55.16,7.72,55.16,7.72-16.2,1.73-16.2,11.18c0,0-21.21.39-26,4s13.89,5.6,13.89,5.6-23.72,3.28-32.79,16.78l-62.55,3.6s6.43-9-42.55-15.95c0,0,16.23-23.7-12.31-33.72s-40.15-3.31-40.15-3.31,11.19-8.1,12-15-43.29-42.62-107.23-25.7c-15.9,4.21-5,14.52-5,14.52l-30.08-9a5.46,5.46,0,0,0,3.86-6.05c-.39-5-62.1-24.68-62.1-24.68s.77-17-63.26-17c0,0,7.71.77,10.41-2.32s-28.93-13.11-28.93-13.11,24.69,2.31,28.55-1.55-12-16.58-25.85-12.34c0,0-11.57-3.08-15,0s6.94,12,6.94,12-25.71-20.83-47.82-15.17c-16,4.08,0,21.73,0,21.73L98.9,433.39s37.41-46.36-22-74.9-124.2-41.82-124.2-41.82v170S28.31,517.73,41,512.2c0,0,37,5.91,44.74,0s5-11.31,5-11.31l52.45,11.31s-9.64,5.66-.38,11.83,99.9,22.76,167.4,27c0,0-3.09,3.09-3.09,6.94s19.67,6.17,19.67,6.17-38.57-7.32-63.25.78S252,575.72,252,575.72s-12.73,1.54-17.75,6.17,4.63,8.48,4.63,8.48l-20.44-1.15s7.71-1.55,7.71-6.18-15-6.17-15-6.17,20.44.39,23.14-3.47-32-13.5-32-13.5,10,1.54,12.34-5.4-35.1-16.58-47.83-10.41,1.55,8.1,1.55,8.1a125.47,125.47,0,0,0-26.88-4.5s-5.91-7.72-19.28-9.26-17.23,4.63-17.23,4.63l-7.46-1.29s7.2-.51,8-6.94-21.08-15.94-54.25-17c0,0-64-20.57-98.49-21.6v113.4s165.86,3.08,194.92,0l-11.58-2.32L254.85,611s-6.42,3.51-3.6,5.31,86.66,8.49,99.52,5.66l-4.63-2.83,30.34,5.15s-4.88-1.8-10,5.65c0,0,29.06,4.63,72.26,5.15s59.76-1.8,64-3.35,0-3.34,0-3.34l8,2.31s-4.63,1.18-13.37,4.45,28.29,3.27,38.31,2.24-7.45-4.11-7.45-4.11,10.8-1.29,13.11-3.6S523.57,623,523.57,623l96.17,1.29s-11.83.51-13.37,3.08,59.91,2.57,66.6.52-2.32-3.35-2.32-3.35l46.29-3.6s73.54-9,100.29-13.11,15.42-9.52,15.42-9.52,67.12-7.2,90.52-13.62l109.54-16.2Z" transform="translate(47.29)" />
					<path class="cls-23" d="M407.5,483.75a6.57,6.57,0,0,0,3.86,7.33c5,2.31,18.7,5.78,18.7,5.78s-6.05,1.35-2,3.67,14.11,1.73,13.34,0a7.14,7.14,0,0,0-2.12-2.7s8.87,1.54,9.45.19-1.35-2.7-1.35-2.7,4.27-1.93,1.46-3.86-10.52-3.28-10.52-3.28a14.65,14.65,0,0,0-9.75-9.06c-7.61-2.12-12.43,5-12.43,5A17.18,17.18,0,0,0,407.5,483.75Z" transform="translate(47.29)" />
					<path class="cls-24" d="M1090,446.11s-93.11,14.66-110.08,23.15,0,8.87,0,8.87l-35.1,17.36s-15.82-1.55-31.24,3.85,3.85,4.25,3.85,4.25-38.18,6.94-59,24.68,6.17,17,6.17,17l-82.54,22s3.51-1.71,3.87-9.34-23.93,0-23.93,0,37.51-12.11,37.46-16.37c-.13-13.74-91.46-6.54-108.82,7.85s32.4,14,32.4,14-27.77,2.32-30.08,8.1,18.51,5,18.51,5-58.63-1.55-76.37,11.18,36.76,11.57,36.76,11.57-28.82,3.09-40.31,7,6.25,4.63,6.25,4.63l-106.46,3.85s7-7.33,0-13.11-43.58-7.33-43.58-7.33,19.28-5,21.21-7.33-55.54-6.56-55.54-6.56,46.9-1.54,49.29-5-49.29-18.13-49.29-18.13,9.64-1,6.56-7.83-56.7-23.8-95.28-22.45c0,0,1.93-2.89,1.74-4.82s-41.08-15.23-50.72-14.27-2.51,7.71-2.51,7.71-30.86-25.65-73.86-33.75-37.22.78-37.22.78-46.1-24.69-61-27,0,5.2,0,5.2-25.65-20-49.37-19.67l-13.11-7.33s6.94-2.31,2.12-8.48S33.52,396.55,25,395.39,21.18,402,21.18,402l-68.47-36.06V486.62S-1.26,506,30,512.2s55.83,4.28,60.08,1.5,1.15-15.43,1.15-15.43l52.07,13.93s-5.4,1.39-2.89,9.69,68.27,18.92,95.85,22.58S310.27,551,310.27,551L328,553.92s-16.14-1.47-19.28,3.09,16.19,6.8,16.19,6.8S293.68,563,284,566.27s8.49,6.17,8.49,6.17-21.8-2.7-37.23,2.7-6.94,11-6.94,11-7.13,2.12-7.13,4.24,28.54,2.7,28.54,2.7-42.43-2.12-70,1.16c0,0,12-1.53,18.71-5s-12.54-3.67-12.54-3.67,5-4.63,4.44-7.33S170.83,567,170.83,567s29.9-1.35,30.67-4.25-22.37-10.41-33.17-10.6-1.55,6.17-1.55,6.17-48.4-12.15-77.14-12c0,0,5.4-2.51,6-6.36s-84.67-22-84.67-22,10,.39,10.8-2.12-69-8.49-69-8.49V609.66s149.92,3.08,194.92,0l-11.58-2.32L254.85,611l15.69,2.1s-17.94.84-19.29,3.21,75.22,9.52,99.52,5.66c0,0,.58-2.77-18.9-4.67l44.61,7,23.08,1.54s-25.46,1-30.86,3.66,54.82,6.68,93.34,5.59,40.49-3,42.28-4.34-1.66-2.34-1.66-2.34l8,2.31s-7.92,2.27-8,4.55,29,2.43,29,2.43l-6-4.73s3.28-3.85,2.12-6.17-7.52-4.63-7.52-4.63l97.58,2.25s-9.89-.7-11.5,3,25.25,3.75,40.07,4.45,28.46-2.39,29.87-3.29-4.37-3.47-4.37-3.47,74.57-3.94,116.23-7.76,50-9.85,49.81-14.71-5.33-4.28-5.33-4.28l83.58-22.24,23.14-4.63s-22.54,10.71-20.91,14.42,173.29-31.5,173.29-31.5Z" transform="translate(47.29)" />
					<path class="cls-25" d="M269.77,579.19c-6.65,4.34,83.7,8.48,83.7,8.48s-66,3.19-70.2,7.38,81.38,28.88,141.94,32,89.87-3.16,93-9.68-53.23-13.83-53.23-13.83,12.84-3.78,13.75-8.46-63.51-15.86-63.51-15.86,53,2.7,62.87-4.25S362.34,549.1,336.5,554.89s10.41,14.27,10.41,14.27S289.59,566.24,269.77,579.19Z" transform="translate(47.29)" />
					<path class="cls-26" d="M680.55,607c-3,3.3,47-7,47-7s-35.64,10.93-37.37,13.82,43.3,5.42,76.85-1.33,54-15.21,54.73-19.21-31-.15-31-.15,6.5-3.85,6.34-6.54-36.94.17-36.94.17,29.36-5.9,33.79-11.08-66.89,2-80.21,8.75,7.68,6.36,7.68,6.36S689.59,597.13,680.55,607Z" transform="translate(47.29)" />
				</g>
				<g id="Shadow">
					<circle class="cls-27" cx="564.41" cy="563.63" r="114.36" transform="translate(-185.95 564.18) rotate(-45)" />
					<circle class="cls-28" cx="568.79" cy="637.17" r="80.86" transform="translate(-236.67 588.82) rotate(-45)" />
					<path class="cls-29" d="M645.51,641.29l43.81,54.77H890.77L696.24,622.87l-24.3,2.22s4.11,3.85,8.48,8.48S645.51,641.29,645.51,641.29Z" transform="translate(47.29)" />
					<polygon class="cls-30" points="653.66 627.4 678.67 696.06 607.39 696.06 611.1 643.22 653.66 627.4" />
					<polygon class="cls-31" points="574.97 637.17 525.09 697.86 559.02 696.06 590.29 639.73 574.97 637.17" />
					<circle class="cls-32" cx="562.42" cy="646.66" r="194.26" transform="translate(-245.24 587.1) rotate(-45)" />
					<ellipse class="cls-33" cx="605.34" cy="667.52" rx="67.77" ry="64.65" />
					<polygon class="cls-34" points="555.02 609.79 75 696.83 441.14 696.83 590.29 614.97 555.02 609.79" />
				</g>
				<g id="Shadow_water" data-name="Shadow water">
					<polygon class="cls-35" points="47.29 748.6 901.5 768.88 47.29 768.88 47.29 748.6" />
					<polygon class="cls-36" points="47.29 820.83 901.5 841.11 47.29 841.11 47.29 820.83" />
					<path class="cls-37" d="M727.71,765.87l329.53,3.56S937,752.07,727.71,765.87Z" transform="translate(47.29)" />
					<polygon class="cls-38" points="210.32 696.36 439.55 705.4 880.8 705.89 962.49 696.36 210.32 696.36" />
					<polygon class="cls-39" points="194.48 771.54 167.97 770.84 175.88 732.34 190.74 720.32 181.82 699.35 188.59 658.25 201.97 638.27 230.56 631.4 242.91 587.51 248.14 583.25 251.12 590.5 279.23 618.14 286.89 665.44 294.21 669.79 302.81 640.65 307.81 632.75 312.8 624.04 324.21 639.13 327.06 665.44 336.59 689.91 338.83 746.95 341.13 772.18 266.8 772.16 194.48 771.54" />
					<polygon class="cls-40" points="242.91 587.51 242.91 642.54 247.7 647.13 247.7 663.75 247.7 674.65 261 699.84 265.04 710.55 267.71 734.3 273.91 745.05 280.03 725.26 277.91 718.92 276.71 707.2 283.34 714.21 286.84 731.07 289.64 759.03 292.87 763.59 289.42 702.89 289.64 679.66 287.27 668.69 286.89 665.44 279.23 618.14 270.6 609.66 269.85 624.36 271.78 654.45 267.89 626.05 262.96 616.88 261.13 600.34 251.12 590.5 248.14 583.25 242.91 587.51" />
					<polygon class="cls-41" points="312.8 624.04 302.81 640.65 294.21 669.79 286.89 665.44 289.64 679.66 292.87 763.59 295.61 772.18 304.69 772.17 304.91 725.69 311.38 699.54 307.92 734.3 315.23 746.34 324.05 772.18 324.05 749.57 322.55 734.3 322.55 704.4 318.89 700.53 311.64 698.11 316.74 672.35 315.23 673.42 311.05 696.01 312.8 624.04" />
					<polygon class="cls-42" points="312.8 624.04 307.92 640.8 307.92 661.81 311.38 699.54 312.8 691.92 315.23 673.42 316.74 672.35 319.11 689.13 319.11 701.82 322.55 704.4 322.55 734.3 324.05 749.57 324.05 763.63 324.05 772.18 341.13 772.18 338.83 746.95 336.59 689.91 333.52 684.18 327.28 677.72 326.63 686.81 324.53 685.26 324.53 672.25 324.53 662.67 325.88 670.09 327.49 671.06 327.06 665.44 324.21 639.13 312.8 624.04" />
					<polygon class="cls-43" points="201.97 638.27 200.91 649.62 215.92 672.25 224.19 673.42 233 680.15 230.59 673.42 233 666 230.56 631.4 201.97 638.27" />
					<polygon class="cls-44" points="200.91 649.62 215.92 672.25 219.51 687.62 224.19 673.42 233 680.15 233 710.55 241.88 729.57 235.56 681.38 233 666 230.95 632.45 242.91 587.51 242.91 642.54 241.24 668.48 247.7 647.13 247.7 674.65 244.9 693 253.07 725.91 265.04 710.55 267.71 734.3 273.91 745.05 262.75 772.13 167.97 770.84 175.88 732.34 191.55 739.25 206.66 743.19 190.74 720.32 181.82 699.35 188.59 658.25 201.97 638.27 200.91 649.62" />
					<polygon class="cls-45" points="248.14 583.25 251.12 590.5 254.07 606.12 254.55 629.88 261.65 642.54 257.49 623.98 254.89 610.17 261.65 602.45 262.96 616.88 267.89 626.05 272.8 660.95 273.5 677.72 273.5 689.99 264.45 686.81 257.49 673.42 249.44 647.13 249.44 654.45 247.7 674.65 247.7 647.13 242.91 642.54 242.91 587.51 248.14 583.25" />
					<polygon class="cls-46" points="307.92 640.8 307.92 661.81 309.86 655.78 309.86 661.81 316.74 672.35 315.5 659.23 318.57 653.29 317.28 645.19 324.21 639.13 312.8 624.04 307.92 640.8" />
					<polygon class="cls-47" points="276.47 693.75 285.93 713.85 288.36 723.76 286.68 706.01 276.47 693.75" />
					<polygon class="cls-48" points="230.95 632.45 210.32 639.87 207.9 642.54 210.48 653.26 210.64 656.97 212.09 661.81 207.9 657.29 202.43 651.9 213.87 666.17 215.92 672.25 200.91 649.62 201.97 638.27 230.56 631.4 230.95 632.45" />
					<polygon class="cls-49" points="322.55 704.4 324.53 735.37 327.28 739.46 330.07 751.29 333.73 763.59 336.53 763.59 340.35 763.59 341.13 772.18 324.05 772.18 323.41 741.18 322.55 734.3 322.55 704.4" />
					<polygon class="cls-50" points="327.28 677.72 326.63 686.81 326.63 692.14 322.55 702.89 322.55 704.4 330.5 713.43 330.5 717.74 334.16 734.3 334.16 713.59 334.16 706.01 337.16 704.4 336.59 689.91 333.52 684.18 327.28 677.72" />
					<polygon class="cls-51" points="426.39 773.87 412.04 748.16 400.64 731.7 390.37 728.04 375.97 750.43 376.6 759.5 373.2 768.85 391.54 775.08 416.34 777.22 426.39 773.87" />
					<polygon class="cls-52" points="390.37 728.04 383.12 743.98 384.15 748.1 405.71 764.53 416.41 763.47 416.18 755.57 426.39 773.87 416.34 777.22 390.49 774.72 373.2 768.85 376.6 759.5 375.97 750.43 390.37 728.04" />
					<polygon class="cls-53" points="412.04 748.16 416.18 755.57 389.45 749.34 383.12 743.98 390.37 728.04 400.64 731.7 412.04 748.16" />
					<polygon class="cls-54" points="391.54 775.08 392.87 754.75 404.46 754.75 416.18 755.57 403.86 755.97 393.31 755.14 392.32 770.77 391.54 775.08" />
					<polygon class="cls-55" points="399.13 775.55 405.71 764.53 416.41 763.47 421.24 764.65 416.18 762.12 404.61 763.7 401.38 771.34 400.08 771.32 397.71 775.61 399.13 775.55" />
					<polygon class="cls-56" points="411.28 762.78 406.85 759.58 405.76 759.58 404.72 759.31 396.5 755.39 393.31 755.14 404.61 763.7 411.28 762.78" />
					<polygon class="cls-57" points="416.41 763.47 417.79 766.89 416.41 766.89 410.4 766.89 405.71 764.53 416.41 763.47" />
					<g class="cls-58">
						<polygon class="cls-59" points="194.54 769.96 168.05 770.51 175.96 800.89 190.8 810.37 181.89 826.91 188.65 859.34 202.01 875.1 230.58 880.52 242.93 915.15 248.15 918.51 251.12 912.79 279.21 890.99 286.87 853.67 294.18 850.23 302.77 873.22 307.76 879.46 312.75 886.33 324.14 874.43 326.99 853.67 336.52 834.36 338.75 789.35 341.05 769.45 266.79 769.46 194.54 769.96" />
						<polygon class="cls-40" points="242.93 915.15 242.93 871.73 247.71 868.11 247.71 855 247.71 846.4 261 826.53 265.02 818.07 267.7 799.34 273.89 790.86 280 806.47 277.89 811.47 276.69 820.72 283.31 815.19 286.81 801.88 289.61 779.82 292.83 776.23 289.39 824.12 289.61 842.44 287.24 851.1 286.87 853.67 279.21 890.99 270.59 897.68 269.83 886.08 271.77 862.34 267.88 884.74 262.96 891.98 261.12 905.02 251.12 912.79 248.15 918.51 242.93 915.15" />
						<polygon class="cls-60" points="312.75 886.33 302.77 873.22 294.18 850.23 286.87 853.67 289.61 842.44 292.83 776.23 295.57 769.45 304.65 769.46 304.86 806.13 311.32 826.76 307.87 799.34 315.18 789.84 323.99 769.45 323.99 787.29 322.49 799.34 322.49 822.93 318.83 825.98 311.59 827.89 316.68 848.21 315.18 847.37 311 829.55 312.75 886.33" />
						<polygon class="cls-42" points="312.75 886.33 307.87 873.11 307.87 856.53 311.32 826.76 312.75 832.77 315.18 847.37 316.68 848.21 319.05 834.98 319.05 824.96 322.49 822.93 322.49 799.34 323.99 787.29 323.99 776.2 323.99 769.45 341.05 769.45 338.75 789.35 336.52 834.36 333.44 838.88 327.21 843.98 326.57 836.81 324.46 838.03 324.46 848.29 324.46 855.85 325.82 850 327.43 849.23 326.99 853.67 324.14 874.43 312.75 886.33" />
						<polygon class="cls-43" points="202.01 875.1 200.96 866.15 215.96 848.29 224.21 847.37 233.02 842.06 230.61 847.37 233.02 853.22 230.58 880.52 202.01 875.1" />
						<polygon class="cls-44" points="200.96 866.15 215.96 848.29 219.55 836.16 224.21 847.37 233.02 842.06 233.02 818.07 241.9 803.07 235.57 841.09 233.02 853.22 230.97 879.69 242.93 915.15 242.93 871.73 241.25 851.27 247.71 868.11 247.71 846.4 244.91 831.92 253.07 805.96 265.02 818.07 267.7 799.34 273.89 790.86 262.74 769.49 168.05 770.51 175.96 800.89 191.61 795.44 206.7 792.32 190.8 810.37 181.89 826.91 188.65 859.34 202.01 875.1 200.96 866.15" />
						<polygon class="cls-45" points="248.15 918.51 251.12 912.79 254.07 900.47 254.55 881.73 261.64 871.73 257.49 886.38 254.89 897.27 261.64 903.37 262.96 891.98 267.88 884.74 272.78 857.21 273.48 843.98 273.48 834.3 264.44 836.81 257.49 847.37 249.45 868.11 249.45 862.34 247.71 846.4 247.71 868.11 242.93 871.73 242.93 915.15 248.15 918.51" />
						<polygon class="cls-46" points="307.87 873.11 307.87 856.53 309.81 861.29 309.81 856.53 316.68 848.21 315.45 858.57 318.51 863.25 317.22 869.64 324.14 874.43 312.75 886.33 307.87 873.11" />
						<polygon class="cls-47" points="276.45 831.33 285.9 815.47 288.33 807.65 286.64 821.65 276.45 831.33" />
						<polygon class="cls-48" points="230.97 879.69 210.36 873.84 207.94 871.73 210.52 863.27 210.68 860.35 212.13 856.53 207.94 860.09 202.47 864.35 213.91 853.09 215.96 848.29 200.96 866.15 202.01 875.1 230.58 880.52 230.97 879.69" />
						<polygon class="cls-49" points="322.49 822.93 324.46 798.49 327.21 795.27 330.01 785.93 333.66 776.23 336.45 776.23 340.27 776.23 341.05 769.45 323.99 769.45 323.34 793.91 322.49 799.34 322.49 822.93" />
						<polygon class="cls-50" points="327.21 843.98 326.57 836.81 326.57 832.6 322.49 824.12 322.49 822.93 330.44 815.8 330.44 812.41 334.09 799.34 334.09 815.68 334.09 821.66 337.09 822.93 336.52 834.36 333.44 838.88 327.21 843.98" />
						<polygon class="cls-61" points="424 775.13 406.28 795.13 392.96 807.52 383.1 808.76 374.58 786.14 376.88 778.23 375.65 769.28 393.2 767.32 415.7 770.21 424 775.13" />
						<polygon class="cls-62" points="383.1 808.76 379.7 793.24 381.42 789.79 403.79 779.4 413.12 782.41 411.39 789.37 424 775.13 415.7 770.21 392.19 767.43 375.65 769.28 376.88 778.23 374.58 786.14 383.1 808.76" />
						<polygon class="cls-53" points="406.28 795.13 411.39 789.37 386.38 789.72 379.7 793.24 383.1 808.76 392.96 807.52 406.28 795.13" />
						<polygon class="cls-54" points="393.2 767.32 390.47 785.58 400.79 787.82 411.39 789.37 400.49 786.63 390.94 785.32 393.06 771.28 393.2 767.32" />
						<polygon class="cls-55" points="400.04 768.36 403.79 779.4 413.12 782.41 417.65 782.3 412.65 783.57 402.65 779.93 401.25 772.53 400.08 772.3 398.8 768.04 400.04 768.36" />
						<polygon class="cls-56" points="408.42 782.03 403.86 784.01 402.88 783.79 401.9 783.83 393.82 785.72 390.94 785.32 402.65 779.93 408.42 782.03" />
						<polygon class="cls-57" points="413.12 782.41 415.01 779.65 413.78 779.38 408.42 778.22 403.79 779.4 413.12 782.41" />
					</g>
				</g>
			</g>
		</g>
	</g>
</svg>
