<?xml version="1.0" encoding="utf-8"?>
<!-- Generator: Adobe Illustrator 24.1.1, SVG Export Plug-In . SVG Version: 6.00 Build 0)  -->
<svg version="1.1" id="Layer_1" xmlns="http://www.w3.org/2000/svg" xmlns:xlink="http://www.w3.org/1999/xlink" x="0px" y="0px"
	 viewBox="0 0 8 16" style="enable-background:new 0 0 8 16;" xml:space="preserve">
<style type="text/css">
	.st0{fill:#64DFDF;}
	.st1{fill:#FFFFFF;}
	.st2{fill:#5E60CE;}
	.st3{fill:#72C7EE;}
	.st4{fill:#4BC6F3;}
	.st5{fill:#7400B8;}
	.st6{fill:#6930C3;}
	.st7{fill:#80FFDB;}
</style>
<polygon class="st0" points="4,0.2 2.8,2.4 5.2,2.4 "/>
<path class="st1" d="M3.8,0.1C3.4,0.9,3,1.6,2.6,2.3c0,0.1,0,0.2,0.1,0.2l0,0h0.1h2.4c0.1,0,0.2-0.1,0.2-0.2c0,0,0,0,0,0
	c0,0,0-0.1,0-0.1C4.9,1.6,4.5,0.9,4.1,0.1C4-0.1,3.7,0.1,3.8,0.3l1.2,2.2l0.1-0.3H2.8l0.2,0.3l1.2-2.2c0-0.1,0-0.2-0.1-0.2
	C4,0,3.9,0,3.8,0.1z"/>
<polygon class="st2" points="4,0.2 5.3,2.4 6.5,2 "/>
<path class="st1" d="M3.8,0.3l1.3,2.2c0,0.1,0.1,0.1,0.2,0.1l1.2-0.4c0.1,0,0.1-0.1,0.1-0.2c0,0,0-0.1-0.1-0.1L4.1,0.1
	C3.9-0.1,3.7,0.2,3.8,0.3l2.6,1.9V1.9L5.2,2.3l0.2,0.1L4.1,0.1C4.1,0,4,0,3.9,0.1C3.8,0.1,3.8,0.2,3.8,0.3z"/>
<polygon class="st3" points="4,0.2 2.7,2.4 1.5,2 "/>
<path class="st1" d="M3.8,0.1L2.6,2.3l0.2-0.1L1.5,1.9v0.3l2.6-1.8C4.2,0.2,4.1-0.1,3.8,0.1L1.4,1.9C1.3,1.9,1.3,2,1.4,2.1
	c0,0,0,0,0,0c0,0,0.1,0.1,0.1,0.1l1.2,0.4c0.1,0,0.1,0,0.2-0.1l1.2-2.2c0-0.1,0-0.2-0.1-0.2C4,0,3.9,0,3.8,0.1z"/>
<polygon class="st4" points="4,15.8 2.1,13.3 5.9,13.3 "/>
<path class="st1" d="M4.1,15.7l-1.9-2.5l-0.1,0.3h3.8l-0.1-0.3l-1.9,2.5c-0.1,0.2,0.2,0.3,0.3,0.2L6,13.4c0.1-0.1,0-0.2-0.1-0.2H2.1
	c-0.1,0-0.2,0.1-0.1,0.2l1.9,2.5C4,16.1,4.3,15.9,4.1,15.7z"/>
<polygon class="st5" points="4,15.8 5.9,13.3 7.8,12.7 "/>
<path class="st1" d="M4.1,15.9L5.6,14l0.3-0.4L6,13.5c0.1-0.1-0.1,0,0,0L7.3,13l0.6-0.2l-0.2-0.3l-3.7,3l-0.1,0.2
	C3.8,15.8,4,16.1,4.1,15.9l3.7-3l0.1-0.1c0.1-0.1,0.1-0.2,0-0.2c0,0-0.1-0.1-0.1,0l-1.1,0.4L6,13.1c-0.1,0-0.2,0.1-0.2,0.1l-1.6,2.1
	l-0.3,0.4C3.7,15.9,4,16.1,4.1,15.9z"/>
<polygon class="st0" points="4,15.8 2,13.3 0.2,12.7 "/>
<path class="st1" d="M4.1,15.7l-1.5-1.9l-0.3-0.4c0-0.1-0.1-0.1-0.2-0.2l-1.2-0.4l-0.7-0.2c-0.1,0-0.2,0-0.2,0.1c0,0.1,0,0.1,0,0.1
	l3.7,3l0.1,0.1C4.1,16,4.3,15.8,4.1,15.7l-3.7-3l-0.1-0.1l-0.2,0.3l1.1,0.4l0.6,0.2L2,13.5c0,0-0.1-0.1-0.1,0l0,0l1.6,2.1L3.9,16
	C4,16.1,4.3,15.9,4.1,15.7z"/>
<polygon class="st0" points="5.9,13.3 2,13.3 2.7,2.4 5.3,2.4 "/>
<path class="st1" d="M5.9,13.2H2l0.2,0.2l0.2-3.9l0.4-6c0-0.4,0-0.7,0.1-1.1L2.7,2.5h2.6L5.1,2.4l0.2,3.9l0.4,6c0,0.4,0,0.7,0.1,1.1
	s0.3,0.2,0.3,0L5.9,9.4L5.5,3.5L5.4,2.4c0-0.1-0.1-0.2-0.2-0.2H2.7c-0.1,0-0.2,0.1-0.2,0.2L2.3,6.3l-0.4,6l-0.1,1.1
	c0,0.1,0.1,0.2,0.2,0.2l0,0h3.9C6.2,13.5,6.2,13.2,5.9,13.2z"/>
<polygon class="st6" points="7.8,12.7 5.9,13.3 5.3,2.4 6.5,2 "/>
<path class="st1" d="M7.8,12.5l-1.9,0.7l0.2,0.2L5.9,9.4L5.5,3.5L5.4,2.4L5.3,2.6l1.2-0.4L6.3,2l0.5,3.9c0.2,1.9,0.5,3.9,0.7,5.8
	c0,0.3,0.1,0.6,0.1,0.9s0.4,0.2,0.3,0L7.5,8.7L6.8,2.9c0-0.3-0.1-0.6-0.1-0.9c0-0.1-0.1-0.2-0.2-0.2c0,0,0,0,0,0L5.2,2.2
	c-0.1,0-0.1,0.1-0.1,0.2l0.2,3.9l0.4,6c0,0.4,0,0.7,0.1,1.1c0,0.1,0.1,0.2,0.2,0.2c0,0,0,0,0,0l1.9-0.7C8.1,12.8,8,12.4,7.8,12.5z"
	/>
<polygon class="st7" points="2,13.3 0.2,12.7 1.5,2 2.7,2.4 "/>
<path class="st1" d="M2.1,13.2l-1.9-0.7l0.1,0.2l0.5-3.9l0.7-5.8L1.7,2L1.4,2.2l1.2,0.4L2.5,2.4L2.3,6.3l-0.4,6l0,1
	c0,0.2,0.3,0.2,0.3,0l0.2-3.9l0.3-5.9l0.1-1.1c0-0.1,0-0.1-0.1-0.2L1.5,1.9C1.4,1.9,1.3,1.9,1.3,2C1.2,3.3,1,4.6,0.8,5.9
	c-0.2,2-0.5,3.9-0.7,5.8c0,0.3-0.1,0.6-0.1,0.9c0,0.1,0,0.1,0.1,0.2L2,13.5C2.2,13.6,2.3,13.3,2.1,13.2z"/>
</svg>
