<svg id="Layer_1" data-name="Layer 1" xmlns="http://www.w3.org/2000/svg" xmlns:xlink="http://www.w3.org/1999/xlink" viewBox="0 0 4063.98 3462.35"><defs><style>.cls-1,.cls-10,.cls-100,.cls-101,.cls-102,.cls-103,.cls-104,.cls-105,.cls-11,.cls-12,.cls-13,.cls-14,.cls-15,.cls-16,.cls-17,.cls-18,.cls-19,.cls-20,.cls-21,.cls-22,.cls-23,.cls-24,.cls-25,.cls-26,.cls-27,.cls-28,.cls-29,.cls-30,.cls-31,.cls-32,.cls-33,.cls-34,.cls-35,.cls-36,.cls-37,.cls-38,.cls-39,.cls-4,.cls-40,.cls-41,.cls-42,.cls-43,.cls-44,.cls-45,.cls-46,.cls-47,.cls-48,.cls-49,.cls-5,.cls-50,.cls-51,.cls-52,.cls-53,.cls-54,.cls-55,.cls-56,.cls-57,.cls-58,.cls-59,.cls-6,.cls-60,.cls-61,.cls-62,.cls-63,.cls-64,.cls-65,.cls-66,.cls-67,.cls-68,.cls-69,.cls-7,.cls-70,.cls-71,.cls-72,.cls-73,.cls-74,.cls-75,.cls-76,.cls-77,.cls-78,.cls-79,.cls-8,.cls-80,.cls-81,.cls-82,.cls-83,.cls-84,.cls-85,.cls-86,.cls-87,.cls-88,.cls-89,.cls-9,.cls-90,.cls-91,.cls-92,.cls-93,.cls-94,.cls-95,.cls-96,.cls-97,.cls-98,.cls-99{fill:none;}.cls-2{clip-path:url(#clip-path);}.cls-3{fill:#5390d9;}.cls-10,.cls-100,.cls-101,.cls-102,.cls-103,.cls-104,.cls-105,.cls-11,.cls-12,.cls-13,.cls-14,.cls-15,.cls-16,.cls-17,.cls-18,.cls-19,.cls-20,.cls-21,.cls-22,.cls-23,.cls-24,.cls-25,.cls-26,.cls-27,.cls-28,.cls-29,.cls-30,.cls-31,.cls-32,.cls-33,.cls-34,.cls-35,.cls-36,.cls-37,.cls-38,.cls-39,.cls-4,.cls-40,.cls-41,.cls-42,.cls-43,.cls-44,.cls-45,.cls-46,.cls-47,.cls-48,.cls-49,.cls-5,.cls-50,.cls-51,.cls-52,.cls-53,.cls-54,.cls-55,.cls-56,.cls-57,.cls-58,.cls-59,.cls-6,.cls-60,.cls-61,.cls-62,.cls-63,.cls-64,.cls-65,.cls-66,.cls-67,.cls-68,.cls-69,.cls-7,.cls-70,.cls-71,.cls-72,.cls-73,.cls-74,.cls-75,.cls-76,.cls-77,.cls-78,.cls-79,.cls-8,.cls-80,.cls-81,.cls-82,.cls-83,.cls-84,.cls-85,.cls-86,.cls-87,.cls-88,.cls-89,.cls-9,.cls-90,.cls-91,.cls-92,.cls-93,.cls-94,.cls-95,.cls-96,.cls-97,.cls-98,.cls-99{stroke:#2b388f;stroke-width:2px;}.cls-10,.cls-100,.cls-101,.cls-102,.cls-103,.cls-104,.cls-105,.cls-11,.cls-12,.cls-13,.cls-14,.cls-15,.cls-16,.cls-17,.cls-18,.cls-19,.cls-20,.cls-21,.cls-22,.cls-23,.cls-24,.cls-25,.cls-26,.cls-27,.cls-28,.cls-29,.cls-30,.cls-31,.cls-32,.cls-33,.cls-34,.cls-35,.cls-36,.cls-37,.cls-38,.cls-39,.cls-4,.cls-40,.cls-41,.cls-42,.cls-43,.cls-44,.cls-45,.cls-46,.cls-47,.cls-48,.cls-49,.cls-5,.cls-50,.cls-51,.cls-52,.cls-53,.cls-54,.cls-55,.cls-56,.cls-57,.cls-58,.cls-59,.cls-6,.cls-60,.cls-61,.cls-62,.cls-63,.cls-64,.cls-65,.cls-66,.cls-67,.cls-68,.cls-69,.cls-70,.cls-71,.cls-72,.cls-73,.cls-74,.cls-75,.cls-76,.cls-77,.cls-78,.cls-79,.cls-8,.cls-80,.cls-81,.cls-82,.cls-83,.cls-84,.cls-85,.cls-86,.cls-87,.cls-88,.cls-89,.cls-9,.cls-90,.cls-91,.cls-92,.cls-93,.cls-94,.cls-95,.cls-96,.cls-97,.cls-98,.cls-99{stroke-miterlimit:10;}.cls-4{opacity:0.4;isolation:isolate;}.cls-5{opacity:0.41;}.cls-6{opacity:0.41;}.cls-7{stroke-miterlimit:10;opacity:0.42;}.cls-8{opacity:0.42;}.cls-9{opacity:0.43;}.cls-10{opacity:0.44;}.cls-11{opacity:0.44;}.cls-12{opacity:0.45;}.cls-13{opacity:0.45;}.cls-14{opacity:0.46;}.cls-15{opacity:0.47;}.cls-16{opacity:0.47;}.cls-17{opacity:0.48;}.cls-18{opacity:0.48;}.cls-19{opacity:0.49;}.cls-20{opacity:0.5;}.cls-21{opacity:0.5;}.cls-22{opacity:0.51;}.cls-23{opacity:0.51;}.cls-24{opacity:0.52;}.cls-25{opacity:0.52;}.cls-26{opacity:0.53;}.cls-27{opacity:0.54;}.cls-28{opacity:0.54;}.cls-29{opacity:0.55;}.cls-30{opacity:0.55;}.cls-31{opacity:0.56;}.cls-32{opacity:0.57;}.cls-33{opacity:0.57;}.cls-34{opacity:0.58;}.cls-35{opacity:0.58;}.cls-36{opacity:0.59;}.cls-37{opacity:0.6;}.cls-38{opacity:0.6;}.cls-39{opacity:0.61;}.cls-40{opacity:0.61;}.cls-41{opacity:0.62;}.cls-42{opacity:0.63;}.cls-43{opacity:0.63;}.cls-44{opacity:0.64;}.cls-45{opacity:0.64;}.cls-46{opacity:0.65;}.cls-47{opacity:0.66;}.cls-48{opacity:0.66;}.cls-49{opacity:0.67;}.cls-50{opacity:0.67;}.cls-51{opacity:0.68;}.cls-52{opacity:0.69;}.cls-53{opacity:0.69;}.cls-54{opacity:0.7;}.cls-55{opacity:0.7;}.cls-56{opacity:0.71;}.cls-57{opacity:0.71;}.cls-58{opacity:0.72;}.cls-59{opacity:0.73;}.cls-60{opacity:0.73;}.cls-61{opacity:0.74;}.cls-62{opacity:0.74;}.cls-63{opacity:0.75;}.cls-64{opacity:0.76;}.cls-65{opacity:0.76;}.cls-66{opacity:0.77;}.cls-67{opacity:0.77;}.cls-68{opacity:0.78;}.cls-69{opacity:0.79;}.cls-70{opacity:0.79;}.cls-71{opacity:0.8;}.cls-72{opacity:0.8;}.cls-73{opacity:0.81;}.cls-74{opacity:0.82;}.cls-75{opacity:0.82;}.cls-76{opacity:0.83;}.cls-77{opacity:0.83;}.cls-78{opacity:0.84;}.cls-79{opacity:0.85;}.cls-80{opacity:0.85;}.cls-81{opacity:0.86;}.cls-82{opacity:0.86;}.cls-83{opacity:0.87;}.cls-84{opacity:0.88;}.cls-85{opacity:0.88;}.cls-86{opacity:0.89;}.cls-87{opacity:0.89;}.cls-88{opacity:0.9;}.cls-89{opacity:0.9;}.cls-90{opacity:0.91;}.cls-91{opacity:0.92;}.cls-92{opacity:0.92;}.cls-93{opacity:0.93;}.cls-94{opacity:0.93;}.cls-95{opacity:0.94;}.cls-96{opacity:0.95;}.cls-97{opacity:0.95;}.cls-98{opacity:0.96;}.cls-99{opacity:0.96;}.cls-100{opacity:0.97;}.cls-101{opacity:0.98;}.cls-102{opacity:0.98;}.cls-103{opacity:0.99;}.cls-104{opacity:0.99;}.cls-106{fill:#fff;}</style><clipPath id="clip-path" transform="translate(743.05 1359.89)"><path class="cls-1" d="M0,404.13s375.7-162.29,592.1-88.52,413.11,154.09,722.95-4.92,605-83.61,605-83.61V941.84s-739.38-214.76-1160.69-100S0,973,0,973Z"/></clipPath></defs><g class="cls-2"><path class="cls-3" d="M0,404.13s375.7-162.29,592.1-88.52,413.11,154.09,722.95-4.92,605-83.61,605-83.61V941.84s-739.38-214.76-1160.69-100S0,973,0,973Z" transform="translate(743.05 1359.89)"/><path class="cls-4" d="M1650.28,293.27s-70.38-8.88-99.83,16.26c0,0-60.2,80.84-142.27,124.83l-89.43,99.91s0,61.77-23.39,83.65c0,0-45.48,63.07,105.67,127.87,0,0,13.21,17.55,155.49,28,0,0,114.55-85.17,179.08-149.76,0,0,26.42-79.32,0-170.34,0,0-48.51-24.92-63-52.88C1672.37,400.55,1689.91,310.83,1650.28,293.27Z" transform="translate(743.05 1359.89)"/><path class="cls-5" d="M1547.86,293c32.67-24.89,105.66-15.33,108.53-14,42.8,19.05,28.34,110.46,30.39,113.78,15.72,30,64.51,57.27,64.51,60,26.15,94.37-1.82,176.79-4.82,179.78-67.58,67.62-186.48,154.28-192.6,154.28-144.66-10.3-161.29-28.57-164.31-30.13C1236,690.59,1278,625,1276.38,621.32c22.39-23.5,22-86.61,22-88.66,0-4.14,90.27-106.84,93.13-109.8C1476.41,375.48,1541.61,293,1547.86,293Z" transform="translate(743.05 1359.89)"/><path class="cls-6" d="M1545.27,276.49c35.89-24.64,111.48-14.4,117.23-11.7,46,20.55,34.6,113.64,38.47,120.07,16.93,32,66,61.65,66,67.16,25.9,97.71-3.62,183.23-9.63,189.22C1686.71,711.89,1563.46,800,1551.22,800c-147-10.2-167.09-29.19-173.14-32.3-156-67.54-117.51-135.6-120.67-143,21.37-25.1,20.53-89.57,20.53-93.67,0-8.26,91.09-113.77,96.81-119.69C1462.57,360.6,1532.76,276.49,1545.27,276.49Z" transform="translate(743.05 1359.89)"/><path class="cls-7" d="M1542.69,260c39.11-24.39,117.3-13.47,125.92-9.43,49.15,22.06,40.85,116.83,46.55,126.37,18.15,34,67.5,66,67.5,74.29,25.63,101.06-5.44,189.68-14.45,198.66-73.68,73.69-201.28,163.32-219.64,163.32-149.43-10.09-172.89-29.81-182-34.47-158.41-68.91-123.42-139.46-128.17-150.6,20.37-26.71,19.11-92.53,19.11-98.68,0-12.39,91.92-120.7,100.5-129.58C1448.73,345.71,1523.91,260,1542.69,260Z" transform="translate(743.05 1359.89)"/><path class="cls-8" d="M1540.1,243.45c42.33-24.14,123.12-12.54,134.61-7.15,52.33,23.55,47.12,120,54.64,132.65,19.36,36.07,69,70.42,69,81.44,25.37,104.4-7.26,196.12-19.27,208.09-76.73,76.73-208.67,167.85-233.16,167.85-151.81-10-178.69-30.43-190.8-36.65-160.83-70.28-129.34-143.32-135.66-158.18,19.36-28.31,17.67-95.49,17.67-103.69,0-16.52,92.76-127.63,104.19-139.46C1434.9,330.83,1515.07,243.45,1540.1,243.45Z" transform="translate(743.05 1359.89)"/><path class="cls-9" d="M1537.51,226.93c45.55-23.89,129-11.61,143.31-4.87,55.51,25.05,53.37,123.18,62.72,138.94,20.57,38.1,70.49,74.8,70.49,88.57C1839.14,557.32,1805,652.14,1790,667.1c-79.78,79.77-216.07,172.38-246.68,172.38-154.19-9.89-184.49-31.05-199.63-38.83C1180.39,729,1208.39,653.47,1200.48,634.9c18.36-29.92,16.25-98.45,16.25-108.7,0-20.65,93.59-134.56,107.88-149.36C1421.06,315.94,1506.22,226.93,1537.51,226.93Z" transform="translate(743.05 1359.89)"/><path class="cls-10" d="M1534.92,210.41c48.77-23.64,134.77-10.68,152-2.6,58.68,26.56,59.63,126.37,70.8,145.23,21.79,40.13,72,79.19,72,95.72,24.85,111.09-10.88,209-28.9,227-82.83,82.8-223.47,176.89-260.2,176.89-156.58-9.78-190.29-31.66-208.45-41-165.68-73-141.18-151-150.66-173.34,17.35-31.52,14.81-101.41,14.81-113.7,0-24.79,94.42-141.5,111.57-159.25C1407.22,301.06,1497.38,210.41,1534.92,210.41Z" transform="translate(743.05 1359.89)"/><path class="cls-11" d="M1532.33,193.9c52-23.4,140.6-9.77,160.71-.33,61.86,28.05,65.88,129.55,78.89,151.52,23,42.16,73.48,83.57,73.48,102.85,24.58,114.44-12.7,215.46-33.72,236.41-85.88,85.84-230.87,181.42-273.72,181.42-159-9.68-196.09-32.29-217.28-43.17-168.09-74.39-147.09-154.91-158.16-180.92,16.35-33.12,13.39-104.36,13.39-118.71,0-28.91,95.25-148.42,115.26-169.13C1393.38,286.17,1488.53,193.9,1532.33,193.9Z" transform="translate(743.05 1359.89)"/><path class="cls-12" d="M1529.74,177.38c55.21-23.15,146.42-8.84,169.4,1.94,65,29.56,72.15,132.73,87,157.81,24.2,44.19,75,88,75,110,24.33,117.79-14.5,221.91-38.53,245.85-88.92,88.88-238.27,185.94-287.24,185.94-161.35-9.58-201.89-32.9-226.11-45.34-170.51-75.76-153-158.77-165.65-188.49,15.34-34.73,12-107.33,12-123.72,0-33.05,96.08-155.36,118.94-179C1379.54,271.28,1479.69,177.38,1529.74,177.38Z" transform="translate(743.05 1359.89)"/><path class="cls-13" d="M1527.15,160.86c58.43-22.9,152.25-7.91,178.1,4.22,68.21,31.06,78.4,135.91,95.06,164.1,25.42,46.22,76.47,92.34,76.47,117.13,24.06,121.13-16.32,228.35-43.35,255.28-92,91.91-245.66,190.47-300.76,190.47-163.73-9.48-207.69-33.52-234.94-47.52-172.93-77.13-158.92-162.63-173.15-196.07,14.33-36.33,10.53-110.28,10.53-128.72,0-37.18,96.91-162.29,122.64-188.92C1365.7,256.4,1470.84,160.86,1527.15,160.86Z" transform="translate(743.05 1359.89)"/><path class="cls-14" d="M1524.56,144.34c61.65-22.65,158.07-7,186.8,6.5,71.39,32.55,84.66,139.09,103.14,170.39,26.63,48.24,78,96.72,78,124.26,23.8,124.48-18.14,234.79-48.17,264.72-95,94.95-253.06,195-314.28,195-166.11-9.37-213.49-34.13-243.77-49.68C1110.9,777,1121.41,689,1105.61,651.87c13.32-37.94,9.1-113.24,9.1-133.74,0-41.31,97.74-169.22,126.32-198.8C1351.86,241.51,1462,144.34,1524.56,144.34Z" transform="translate(743.05 1359.89)"/><path class="cls-15" d="M1522,127.82c64.87-22.4,163.9-6,195.5,8.77,74.56,34.06,90.91,142.28,111.22,176.68,27.84,50.27,79.46,101.11,79.46,131.41,23.54,127.81-20,241.23-53,274.16-98.07,98-260.46,199.51-327.8,199.51-168.5-9.27-219.29-34.75-252.6-51.86C1097,786.62,1104,696.13,1086.63,655.26c12.32-39.54,7.67-116.2,7.67-138.74,0-45.44,98.58-176.15,130-208.7C1338,226.63,1453.15,127.82,1522,127.82Z" transform="translate(743.05 1359.89)"/><path class="cls-16" d="M1519.38,111.3c68.09-22.15,169.72-5.12,204.2,11,77.73,35.55,97.17,145.46,119.3,183,29.06,52.3,81,105.49,81,138.54,23.28,131.16-21.76,247.68-57.8,283.6-101.12,101-267.86,204-341.31,204-170.89-9.17-225.1-35.38-261.43-54-180.2-81.24-176.68-174.22-195.64-218.8,11.31-41.15,6.24-119.16,6.24-143.76,0-49.57,99.4-183.08,133.7-218.58C1324.18,211.74,1444.3,111.3,1519.38,111.3Z" transform="translate(743.05 1359.89)"/><path class="cls-17" d="M1516.79,94.78c71.31-21.9,175.55-4.19,212.89,13.33,80.92,37.05,103.43,148.63,127.39,189.25,30.27,54.33,82.45,109.88,82.45,145.69,23,134.5-23.57,254.12-62.61,293-104.17,104.06-275.25,208.56-354.83,208.56-173.27-9.06-230.9-36-270.26-56.2-182.62-82.62-182.59-178.09-203.14-226.39,10.31-42.75,4.82-122.12,4.82-148.76,0-53.7,100.23-190,137.39-228.47C1310.34,196.86,1435.46,94.78,1516.79,94.78Z" transform="translate(743.05 1359.89)"/><path class="cls-18" d="M1514.2,78.26c74.53-21.65,181.37-3.26,221.59,15.6,84.09,38.56,109.69,151.82,135.48,195.55,31.48,56.36,83.94,114.26,83.94,152.82,22.76,137.85-25.39,260.57-67.43,302.47-107.22,107.1-282.65,213.09-368.35,213.09-175.66-9-236.71-36.61-279.09-58.38-185-84-188.51-181.95-210.63-234,9.3-44.35,3.38-125.07,3.38-153.76,0-57.83,101.07-196.95,141.09-238.37C1296.5,182,1426.61,78.26,1514.2,78.26Z" transform="translate(743.05 1359.89)"/><path class="cls-19" d="M1511.61,61.74c77.75-21.4,187.2-2.34,230.29,17.88,87.27,40.05,115.94,155,143.56,201.83,32.69,58.39,85.44,118.65,85.44,160,22.49,141.19-27.2,267-72.25,311.91-110.27,110.13-290.05,217.6-381.87,217.6-178-8.86-242.51-37.22-287.92-60.55C1041.41,825,1034.44,724.57,1010.73,668.84c8.29-46,2-128,2-158.78,0-62,101.9-203.87,144.77-248.25C1282.66,167.09,1417.76,61.74,1511.61,61.74Z" transform="translate(743.05 1359.89)"/><path class="cls-20" d="M1509,45.22c81-21.15,193-1.41,239,20.16,90.44,41.55,122.2,158.18,151.64,208.12,33.9,60.42,86.93,123,86.93,167.1,22.24,144.54-29,273.46-77.06,321.35-113.32,113.17-297.45,222.13-395.39,222.13-180.42-8.76-248.31-37.84-296.75-62.73C1027.51,834.63,1017,731.68,991.76,672.23c7.28-47.56.52-131,.52-163.78,0-66.09,102.73-210.81,148.47-258.14C1268.83,152.2,1408.92,45.22,1509,45.22Z" transform="translate(743.05 1359.89)"/><path class="cls-21" d="M1506.44,28.71c84.18-20.91,198.84-.49,247.68,22.42,93.61,43.06,128.45,161.36,159.72,214.41C1949,328,2002.27,393,2002.27,439.79c22,147.88-30.83,279.9-81.88,330.78C1804,886.77,1615.54,997.22,1511.48,997.22c-182.81-8.65-254.11-38.46-305.58-64.89-192.29-88.1-206.25-193.54-233.12-256.7,6.28-49.17-.9-134-.9-168.79,0-70.23,103.56-217.74,152.15-268C1255,137.32,1400.07,28.71,1506.44,28.71Z" transform="translate(743.05 1359.89)"/><path class="cls-22" d="M1503.85,12.19c87.4-20.66,204.66.44,256.37,24.7C1857,81.44,1894.93,201.43,1928,257.59,1964.36,322.07,2018,389.39,2018,439c21.71,151.23-32.64,286.35-86.7,340.22-119.42,119.24-312.24,231.18-422.43,231.18-185.19-8.55-259.91-39.08-314.4-67.07C999.71,853.83,982.25,745.9,953.81,679c5.27-50.77-2.33-136.91-2.33-173.8,0-74.35,104.39-224.66,155.84-277.92C1241.15,122.43,1391.23,12.19,1503.85,12.19Z" transform="translate(743.05 1359.89)"/><path class="cls-23" d="M1501.26-4.33c90.63-20.41,210.49,1.37,265.07,27,100,46.06,141,167.73,175.89,227,37.54,66.5,91.42,136.18,91.42,188.51,21.45,154.58-34.45,292.8-91.51,349.66-122.47,122.28-319.64,235.7-435.95,235.7-187.58-8.44-265.71-39.69-323.23-69.24C985.81,863.44,964.86,753,934.83,682.42c4.27-52.38-3.76-139.87-3.76-178.81,0-78.49,105.22-231.6,159.53-287.81C1227.31,107.55,1382.38-4.33,1501.26-4.33Z" transform="translate(743.05 1359.89)"/><path class="cls-24" d="M1498.67-20.85C1592.52-41,1715-18.55,1772.44,8.4c103.14,47.55,147.22,170.91,184,233.28,38.75,68.54,92.91,140.57,92.91,195.66,21.19,157.92-36.27,299.24-96.33,359.1-125.52,125.31-327,240.22-449.47,240.22-190-8.34-271.51-40.31-332.06-71.42-199.55-92.2-224-205.12-255.61-279.43,3.26-54-5.19-142.83-5.19-183.81,0-82.62,106.05-238.53,163.22-297.71C1213.47,92.66,1373.53-20.85,1498.67-20.85Z" transform="translate(743.05 1359.89)"/><path class="cls-25" d="M1496.08-37.37c97.07-19.91,222.14,3.23,282.47,31.53C1884.87,43.21,1932,168.25,1970.61,233.73c40,70.56,94.41,145,94.41,202.79,20.92,161.27-38.08,305.69-101.15,368.54-128.56,128.35-334.44,244.75-463,244.75-192.34-8.24-277.31-40.94-340.89-73.59-202-93.58-229.92-209-263.11-287,2.26-55.59-6.62-145.78-6.62-188.82,0-86.75,106.89-245.46,166.91-307.59C1199.63,77.78,1364.69-37.37,1496.08-37.37Z" transform="translate(743.05 1359.89)"/><path class="cls-26" d="M1493.49-53.89c100.29-19.66,228,4.16,291.17,33.8,109.49,50.56,159.73,177.27,200.14,245.86,41.17,72.59,95.9,149.34,95.9,209.94,20.67,164.61-39.89,312.12-106,378C1843.13,945.07,1632.91,1063,1498.23,1063c-194.73-8.13-283.11-41.55-349.72-75.76-204.39-95-235.84-212.85-270.6-294.59,1.24-57.2-8-148.75-8-193.83,0-90.88,107.71-252.39,170.6-317.48C1185.79,62.89,1355.84-53.89,1493.49-53.89Z" transform="translate(743.05 1359.89)"/><path class="cls-27" d="M1490.9-70.41c103.51-19.41,233.79,5.08,299.86,36.08,112.67,52.05,166,180.45,208.23,252.15,42.39,74.62,97.4,153.72,97.4,217.07,20.4,168-41.71,318.57-110.78,387.41-134.66,134.43-349.23,253.8-490,253.8-197.11-8-288.91-42.17-358.55-77.94C930.22,901.85,895.28,781.45,858.93,696c.24-58.8-9.47-151.7-9.47-198.84,0-95,108.54-259.32,174.28-327.37C1172,48,1347-70.41,1490.9-70.41Z" transform="translate(743.05 1359.89)"/><path class="cls-28" d="M1488.31-86.93c106.73-19.16,239.61,6,308.56,38.36C1912.72,5,1969.12,135.06,2013.18,209.86c43.6,76.65,98.9,158.11,98.9,224.22,20.14,171.3-43.53,325-115.6,396.85-137.71,137.46-356.63,258.31-503.55,258.31-199.49-7.93-294.71-42.78-367.37-80.11C916.32,911.45,877.88,788.56,840,699.39c-.77-60.41-10.91-154.66-10.91-203.85,0-99.14,109.38-266.25,178-337.26C1158.11,33.12,1338.15-86.93,1488.31-86.93Z" transform="translate(743.05 1359.89)"/><path class="cls-29" d="M1485.72-103.45c110-18.91,245.44,6.94,317.26,40.63C1922-7.76,1981.49,124,2027.37,201.91c44.82,78.68,100.39,162.49,100.39,231.35,19.88,174.64-45.33,331.46-120.41,406.29-140.76,140.49-364,262.84-517.07,262.84-201.88-7.83-300.51-43.4-376.2-82.28C902.42,921.05,860.49,795.67,821,702.78c-1.77-62-12.33-157.62-12.33-208.85,0-103.27,110.2-273.19,181.66-347.15C1144.27,18.24,1329.3-103.45,1485.72-103.45Z" transform="translate(743.05 1359.89)"/><path class="cls-30" d="M1483.13-120c113.17-18.66,251.26,7.87,326,42.91,122.2,56.55,184.76,190,232.47,271,46,80.7,101.89,166.87,101.89,238.49,19.62,178-47.15,337.9-125.23,415.72-143.81,143.53-371.42,267.36-530.58,267.36-204.27-7.72-306.32-44-385-84.45C888.52,930.65,843.09,802.78,802,706.18c-2.78-63.62-13.76-160.58-13.76-213.87,0-107.4,111-280.11,185.35-357C1130.43,3.35,1320.46-120,1483.13-120Z" transform="translate(743.05 1359.89)"/><path class="cls-31" d="M1480.54-136.48c116.39-18.42,257.09,8.79,334.66,45.18,125.37,58.05,191,193.17,240.56,277.3,47.23,82.74,103.37,171.26,103.37,245.63,19.36,181.33-49,344.35-130,425.16-146.86,146.57-378.82,271.89-544.1,271.89-206.66-7.62-312.12-44.64-393.87-86.63C874.63,940.26,825.7,809.89,783,709.57,779.25,644.35,767.84,546,767.84,490.7c0-111.53,111.87-287,189-366.93C1116.59-11.53,1311.61-136.48,1480.54-136.48Z" transform="translate(743.05 1359.89)"/><path class="cls-32" d="M1478-153c119.61-18.17,262.91,9.72,343.35,47.45C1949.85-46,2018.58,90.81,2070,178.05c48.45,84.76,104.87,175.64,104.87,252.77,19.1,184.67-50.77,350.79-134.86,434.59-149.91,149.61-386.22,276.42-557.62,276.42-209-7.52-317.93-45.26-402.7-88.8C860.73,949.86,808.3,817,764.06,713c-4.79-66.82-16.62-166.49-16.62-223.87,0-115.67,112.7-294,192.73-376.82C1102.75-26.42,1302.77-153,1478-153Z" transform="translate(743.05 1359.89)"/><path class="cls-33" d="M1475.37-169.52c122.82-17.92,268.73,10.65,352,49.73C1959.14-58.74,2031,79.75,2084.14,170.09c49.66,86.8,106.37,180,106.37,259.91,18.83,188-52.59,357.24-139.68,444-153,152.64-393.62,280.93-571.14,280.93-211.42-7.41-323.73-45.87-411.53-91C846.83,959.46,790.91,824.11,745.08,716.36,739.28,647.93,727,546.9,727,487.47c0-119.79,113.53-300.91,196.42-386.7C1088.92-41.3,1293.92-169.52,1475.37-169.52Z" transform="translate(743.05 1359.89)"/><path class="cls-34" d="M1472.78-186c126-17.67,274.55,11.57,360.74,52,134.9,62.56,209.79,202.73,264.81,296.18,50.87,88.82,107.86,184.41,107.86,267,18.58,191.37-54.4,363.69-144.49,453.48-156,155.68-401,285.46-584.66,285.46-213.81-7.32-329.53-46.5-420.35-93.15C832.93,969.06,773.51,831.22,726.11,719.75c-6.81-70-19.48-172.41-19.48-233.89C706.63,361.93,821,178,906.74,89.26,1075.08-56.19,1285.07-186,1472.78-186Z" transform="translate(743.05 1359.89)"/><path class="cls-35" d="M1470.19-202.56c129.26-17.42,280.38,12.5,369.44,54.28,138.07,64.05,216,205.9,272.89,302.46C2164.61,245,2221.88,343,2221.88,428.37c18.31,194.71-56.21,370.13-149.31,462.91-159.06,158.72-408.41,290-598.18,290-216.19-7.21-335.33-47.11-429.18-95.32C819,978.67,756.12,838.33,707.13,723.15c-7.81-71.64-20.9-175.37-20.9-238.91,0-128,115.19-314.77,203.79-406.48C1061.24-71.07,1276.23-202.56,1470.19-202.56Z" transform="translate(743.05 1359.89)"/><path class="cls-36" d="M1467.6-219.08c132.48-17.17,286.2,13.43,378.14,56.56C1987-97,2068,46.56,2126.71,146.23c53.3,92.88,110.86,193.19,110.86,281.32,18,198.06-58,376.58-154.13,472.35-162.11,161.76-415.81,294.51-611.7,294.51-218.57-7.11-341.13-47.73-438-97.49-228.6-108.65-295-251.48-345.57-370.38-8.82-73.24-22.34-178.33-22.34-243.91,0-132.19,116-321.7,207.49-416.37C1047.4-86,1267.38-219.08,1467.6-219.08Z" transform="translate(743.05 1359.89)"/><path class="cls-37" d="M1465-235.6c135.7-16.92,292,14.36,386.83,58.83,144.43,67.06,228.57,212.27,289.06,315.05,54.52,94.9,112.35,197.57,112.35,288.46,17.79,201.4-59.84,383-158.94,481.79-165.16,164.78-423.21,299-625.22,299-221-7-346.93-48.34-446.84-99.66-231-110-300.92-255.35-353.07-378-9.82-74.85-23.76-181.29-23.76-248.92,0-136.32,116.85-328.64,211.18-426.27C1033.56-100.84,1258.54-235.6,1465-235.6Z" transform="translate(743.05 1359.89)"/><path class="cls-38" d="M1462.42-252.12C1601.35-268.79,1760.27-236.83,1858-191c147.61,68.55,234.82,215.45,297.15,321.33,55.72,96.94,113.84,202,113.84,295.6,17.53,204.75-61.66,389.46-163.76,491.23C1937,1085,1674.57,1220.7,1466.44,1220.7c-223.34-6.9-352.73-49-455.67-101.84C777.34,1007.47,703.94,859.65,650.2,733.33,639.38,656.88,625,549.08,625,479.4,625,339,742.7,143.84,839.88,43.25,1019.72-115.73,1249.69-252.12,1462.42-252.12Z" transform="translate(743.05 1359.89)"/><path class="cls-39" d="M1459.83-268.64c142.15-16.42,303.68,16.22,404.23,63.39,150.78,70.05,241.08,218.63,305.23,327.62,56.93,99,115.34,206.34,115.34,302.74,17.26,208.09-63.47,395.9-168.58,500.66-171.25,170.86-438,308.08-652.26,308.08-225.73-6.8-358.53-49.59-464.5-104C763.44,1017.08,686.54,866.76,631.23,736.72c-11.83-78.05-26.62-187.2-26.62-258.93,0-144.58,118.51-342.5,218.56-446C1005.88-130.61,1240.84-268.64,1459.83-268.64Z" transform="translate(743.05 1359.89)"/><path class="cls-40" d="M1457.24-285.16c145.37-16.17,309.5,17.15,412.93,65.66,153.95,71.56,247.33,221.81,313.31,333.91,58.15,101,116.83,210.73,116.83,309.88,17,211.44-65.28,402.35-173.39,510.1-174.3,173.9-445.4,312.6-665.78,312.6-228.11-6.69-364.33-50.2-473.32-106.18C749.54,1026.68,669.15,873.87,612.25,740.12c-12.84-79.66-28-190.17-28-263.94,0-148.72,119.34-349.43,222.24-455.94C992-145.5,1232-285.16,1457.24-285.16Z" transform="translate(743.05 1359.89)"/><path class="cls-41" d="M1454.65-301.67c148.59-15.93,315.33,18.07,421.63,67.93,157.13,73.05,253.59,225,321.39,340.2,59.36,103,118.33,215.11,118.33,317,16.74,214.78-67.1,408.79-178.21,519.53-177.35,176.94-452.8,317.13-679.3,317.13-230.49-6.6-370.13-50.82-482.15-108.36C735.64,1036.28,651.75,881,593.28,743.51c-13.85-81.26-29.48-193.12-29.48-268.95C563.8,321.72,684,118.21,789.74,8.74,978.2-160.38,1223.15-301.67,1454.65-301.67Z" transform="translate(743.05 1359.89)"/><path class="cls-42" d="M1452.06-318.19c151.81-15.68,321.15,19,430.32,70.21,160.31,74.55,259.85,228.17,329.48,346.48,60.57,105.06,119.83,219.5,119.83,324.16,16.47,218.13-68.91,415.24-183,529-180.4,180-460.2,321.64-692.82,321.64-232.88-6.49-375.93-51.43-491-110.53C721.74,1045.88,634.36,888.09,574.3,746.91,559.45,664,543.4,550.83,543.4,473c0-157,121-363.29,229.62-475.71C964.36-175.27,1214.31-318.19,1452.06-318.19Z" transform="translate(743.05 1359.89)"/><path class="cls-43" d="M1449.47-334.71c155-15.43,327,19.92,439,72.48C2052-186.18,2154.6-30.87,2226.05,90.55c61.79,107.08,121.32,223.88,121.32,331.29,16.22,221.48-70.72,421.69-187.84,538.42-183.45,183-467.6,326.17-706.33,326.17-235.27-6.39-381.74-52.06-499.82-112.71C707.84,1055.49,617,895.2,555.33,750.3c-15.86-84.48-32.34-199-32.34-279,0-161.1,121.84-370.21,233.32-485.6C950.52-190.15,1205.46-334.71,1449.47-334.71Z" transform="translate(743.05 1359.89)"/><path class="cls-44" d="M1446.88-351.23c158.25-15.18,332.8,20.85,447.72,74.76C2061.26-198.92,2167-41.94,2240.24,82.6c63,109.1,122.82,228.26,122.82,338.43,16,224.81-72.54,428.13-192.66,547.85-186.5,186.05-475,330.69-719.85,330.69C1212.9,1293.29,1063,1246.9,941.9,1184.7,694,1065.09,599.57,902.31,536.35,753.7c-16.86-86.09-33.76-202-33.76-284,0-165.23,122.67-377.15,237-495.49C936.68-205,1196.62-351.23,1446.88-351.23Z" transform="translate(743.05 1359.89)"/><path class="cls-45" d="M1444.29-367.75c161.47-14.93,338.63,21.78,456.42,77C2070.54-211.66,2179.32-53,2254.44,74.64c64.2,111.14,124.31,232.65,124.31,345.57,15.69,228.16-74.35,434.58-197.48,557.29-189.55,189.08-482.39,335.22-733.37,335.22-240-6.18-393.34-53.29-517.48-117-250.37-121-348.25-286.25-413-438.58-17.87-87.69-35.19-205-35.19-289,0-169.37,123.5-384.08,240.69-505.38C922.84-219.92,1187.77-367.75,1444.29-367.75Z" transform="translate(743.05 1359.89)"/><path class="cls-46" d="M1441.71-384.27c164.68-14.68,344.44,22.71,465.11,79.31,173,80.55,284.87,240.9,361.81,371.65,65.42,113.16,125.8,237,125.8,352.71,15.43,231.5-76.16,441-202.29,566.73-192.6,192.11-489.79,339.73-746.89,339.73-242.42-6.07-399.15-53.9-526.3-119.22C666.15,1084.29,564.78,916.53,498.4,760.48c-18.87-89.29-36.62-207.91-36.62-294,0-173.49,124.33-391,244.38-515.27C909-234.81,1178.92-384.27,1441.71-384.27Z" transform="translate(743.05 1359.89)"/><path class="cls-47" d="M1439.12-400.79c167.9-14.43,350.27,23.64,473.8,81.59,176.19,82,291.13,244.08,369.9,377.93,66.63,115.2,127.3,241.42,127.3,359.85,15.17,234.85-78,447.47-207.11,576.17C2007.36,1189.9,1705.82,1339,1442.6,1339c-244.81-6-404.95-54.52-535.13-121.39-255.22-123.72-360.09-294-428-453.74-19.89-90.9-38.05-210.88-38.05-299,0-177.63,125.16-397.94,248.07-525.16C895.17-249.69,1170.08-400.79,1439.12-400.79Z" transform="translate(743.05 1359.89)"/><path class="cls-48" d="M1436.53-417.31c171.12-14.18,356.09,24.57,482.5,83.86,179.36,83.56,297.39,247.27,378,384.23,67.85,117.22,128.79,245.8,128.79,367,14.91,238.19-79.78,453.91-211.92,585.6-198.7,198.19-504.58,348.79-773.93,348.79-247.19-5.87-410.75-55.15-544-123.57C638.35,1103.5,530,930.75,460.45,767.27c-20.89-92.5-39.48-213.83-39.48-304,0-181.76,126-404.88,251.76-535C881.33-264.58,1161.23-417.31,1436.53-417.31Z" transform="translate(743.05 1359.89)"/><path class="cls-49" d="M1433.94-433.83c174.34-13.93,361.92,25.49,491.2,86.14,182.54,85.05,303.64,250.44,386.06,390.51C2380.26,162.08,2441.49,293,2441.49,417c14.65,241.54-81.6,460.36-216.74,595-201.75,201.23-512,353.31-787.45,353.31-249.57-5.77-416.55-55.76-552.79-125.74-260.06-126.46-371.92-301.7-443-468.89-21.9-94.11-40.91-216.8-40.91-309,0-185.89,126.82-411.8,255.45-544.94C867.49-279.46,1152.39-433.83,1433.94-433.83Z" transform="translate(743.05 1359.89)"/><path class="cls-50" d="M1431.35-450.34c177.56-13.69,367.74,26.41,499.9,88.41,185.71,86.55,309.9,253.62,394.14,396.8,70.27,121.28,131.79,254.57,131.79,381.27,14.38,244.88-83.42,466.79-221.56,604.47-204.8,204.27-519.38,357.84-801,357.84-252-5.67-422.35-56.38-561.62-127.92C610.55,1122.7,495.2,945,422.5,774.06c-22.9-95.71-42.33-219.75-42.33-314,0-190,127.65-418.74,259.13-554.83C853.65-294.35,1143.54-450.34,1431.35-450.34Z" transform="translate(743.05 1359.89)"/><path class="cls-51" d="M1428.76-466.86c180.78-13.44,373.57,27.34,508.6,90.68,188.88,88.06,316.15,256.81,402.23,403.09,71.48,123.32,133.27,259,133.27,388.41,14.13,248.23-85.23,473.24-226.37,613.92-207.85,207.3-526.78,362.35-814.49,362.35-254.34-5.56-428.15-57-570.45-130.08-264.89-129.2-383.75-309.43-458-484-23.91-97.32-43.77-222.71-43.77-319,0-194.16,128.49-425.67,262.83-564.72C839.81-309.23,1134.69-466.86,1428.76-466.86Z" transform="translate(743.05 1359.89)"/><path class="cls-52" d="M1426.17-483.38c184-13.2,379.39,28.27,517.29,93,192.07,89.55,322.42,260,410.32,409.38,72.69,125.34,134.77,263.34,134.77,395.55,13.86,251.57-87,479.68-231.19,623.35-210.89,210.34-534.17,366.88-828,366.88-256.72-5.46-433.95-57.62-579.27-132.26C582.76,1141.91,460.41,959.19,384.55,780.85c-24.91-98.92-45.19-225.67-45.19-324,0-198.28,129.31-432.6,266.51-574.61C826-324.12,1125.85-483.38,1426.17-483.38Z" transform="translate(743.05 1359.89)"/><path class="cls-53" d="M1423.58-499.9c187.23-13,385.22,29.2,526,95.24C2144.81-313.61,2278.24-141.49,2368,11c73.9,127.37,136.27,267.72,136.27,402.68,13.6,254.92-88.86,486.13-236,632.79-213.94,213.37-541.57,371.4-841.53,371.4-259.11-5.35-439.75-58.23-588.1-134.43C568.86,1151.51,443,966.3,365.58,784.24,339.66,683.72,319,555.62,319,455.2c0-202.41,130.14-439.53,270.2-584.5C812.13-339,1117-499.9,1423.58-499.9Z" transform="translate(743.05 1359.89)"/><path class="cls-54" d="M1421-516.42c190.45-12.7,391,30.13,534.69,97.51,198.42,92.55,334.93,266.35,426.48,422,75.12,129.4,137.76,272.11,137.76,409.82,13.34,258.27-90.67,492.58-240.82,642.23-217,216.41-549,375.93-855,375.93-261.49-5.25-445.55-58.85-596.93-136.61C555,1161.11,425.62,973.41,346.6,787.64c-26.93-102.13-48.05-231.59-48.05-334.06,0-206.54,131-446.46,273.9-594.38C798.29-353.89,1108.16-516.42,1421-516.42Z" transform="translate(743.05 1359.89)"/><path class="cls-55" d="M1418.4-532.94c193.67-12.45,396.87,31.06,543.39,99.79C2163.38-339.1,2303-163.62,2396.35-4.9c76.33,131.42,139.26,276.49,139.26,417,13.08,261.61-92.48,499-245.64,651.67-220,219.44-556.37,380.45-868.57,380.45-263.87-5.15-451.35-59.47-605.76-138.78C541.06,1170.72,408.22,980.52,327.63,791,299.69,687.3,278.15,556.49,278.15,452,278.15,241.3,410-1.42,555.73-152.31,784.45-368.77,1099.31-532.94,1418.4-532.94Z" transform="translate(743.05 1359.89)"/><path class="cls-56" d="M1415.81-549.46c196.89-12.2,402.7,32,552.09,102.06,204.76,95.56,347.44,272.72,442.64,434.54C2488.08,120.6,2551.3,268,2551.3,411.24c12.81,265-94.3,505.47-250.46,661.11-223.09,222.48-563.77,385-882.08,385-266.27-5-457.16-60.08-614.6-141-277-136-413.33-328.74-495.51-521.94-28.94-105.34-50.91-237.51-50.91-344.07C257.74,235.55,390.38-10,539-163.81,770.61-383.66,1090.46-549.46,1415.81-549.46Z" transform="translate(743.05 1359.89)"/><path class="cls-57" d="M1413.22-566c200.11-11.95,408.52,32.91,560.78,104.34,207.95,97.05,353.7,275.9,450.73,440.83C2503.49,114.67,2567,264.45,2567,410.43c12.56,268.3-96.11,511.91-255.27,670.54-226.14,225.52-571.16,389.5-895.6,389.5-268.65-5-463-60.71-623.43-143.13-279.41-137.42-419.25-332.6-503-529.52-29.95-106.94-52.34-240.46-52.34-349.08,0-218.93,133.47-467.25,285-624C756.77-398.54,1081.62-566,1413.22-566Z" transform="translate(743.05 1359.89)"/><path class="cls-58" d="M1410.64-582.5C1614-594.2,1825-548.66,1980.11-475.88c211.12,98.55,360,279.07,458.82,447.11,80,137.52,143.74,289.65,143.74,438.38,12.29,271.65-97.92,518.36-260.09,680-229.19,228.56-578.56,394-909.12,394-271-4.84-468.76-61.32-632.25-145.3C499.37,1199.52,356,1001.85,270.7,801.22c-30.95-108.55-53.76-243.42-53.76-354.09,0-223.07,134.3-474.19,288.65-633.95C742.93-413.43,1072.77-582.5,1410.64-582.5Z" transform="translate(743.05 1359.89)"/><path class="cls-59" d="M1408.05-599c206.54-11.45,420.16,34.77,578.17,108.89,214.29,100.06,366.21,282.26,466.9,453.41,81.18,139.54,145.24,294,145.24,445.52,12,275-99.74,524.8-264.91,689.41-232.24,231.6-586,398.55-922.64,398.55-273.42-4.74-474.56-61.94-641.08-147.47-284.26-140.17-431.09-340.33-518-544.68-32-110.15-55.2-246.38-55.2-359.09,0-227.2,135.13-481.12,292.34-643.84C729.1-428.32,1063.93-599,1408.05-599Z" transform="translate(743.05 1359.89)"/><path class="cls-60" d="M1405.46-615.53c209.76-11.21,426,35.69,586.87,111.16,217.47,101.55,372.47,285.44,475,459.7C2549.7,96.9,2614,253.74,2614,408c11.77,278.33-101.55,531.25-269.72,698.86C2109,1341.47,1751,1509.9,1408.16,1509.9c-275.8-4.63-480.37-62.55-649.91-149.64-286.68-141.53-437-344.19-525.5-552.26-33-111.75-56.62-249.33-56.62-364.1,0-231.33,136-488,296-653.72C715.26-443.2,1055.08-615.53,1405.46-615.53Z" transform="translate(743.05 1359.89)"/><path class="cls-61" d="M1402.87-632c213-11,431.81,36.62,595.57,113.44,220.64,103.05,378.72,288.62,483.06,466,83.6,143.6,148.23,302.8,148.23,459.8,11.51,281.67-103.36,537.69-274.54,708.29-238.34,237.66-600.75,407.59-949.68,407.59-278.19-4.53-486.17-63.18-658.74-151.82-289.1-142.9-442.92-348.05-533-559.83-34-113.37-58.06-252.3-58.06-369.11,0-235.46,136.8-495,299.72-663.62C701.42-458.09,1046.23-632,1402.87-632Z" transform="translate(743.05 1359.89)"/><path class="cls-62" d="M1400.28-648.57c216.2-10.71,437.64,37.55,604.26,115.71,223.83,104.55,385,291.81,491.15,472.28,84.82,145.63,149.72,307.18,149.72,466.93,11.25,285-105.17,544.14-279.35,717.73-241.39,240.7-608.15,412.12-963.2,412.12-280.57-4.43-492-63.8-667.57-154C443.77,1237.93,286.46,1030.29,194.8,814.79c-35-115-59.48-255.25-59.48-374.12,0-239.59,137.62-501.9,303.41-673.5C687.58-473,1037.39-648.57,1400.28-648.57Z" transform="translate(743.05 1359.89)"/><path class="cls-63" d="M1397.69-665.09c219.42-10.46,443.46,38.48,613,118,227,106.05,391.24,295,499.23,478.56,86,147.66,151.22,311.57,151.22,474.08,11,288.36-107,550.57-284.17,727.16-244.44,243.74-615.55,416.64-976.72,416.64-283-4.32-497.77-64.41-676.4-156.16-293.94-145.65-454.75-355.78-548-575-36-116.58-60.91-258.22-60.91-379.13,0-243.72,138.45-508.84,307.09-683.39C673.74-487.86,1028.54-665.09,1397.69-665.09Z" transform="translate(743.05 1359.89)"/><path class="cls-64" d="M1395.1-681.61c222.64-10.21,449.29,39.41,621.66,120.27,230.17,107.55,397.5,298.16,507.31,484.85,87.24,149.68,152.72,316,152.72,481.21,10.72,291.71-108.81,557-289,736.61-247.49,246.77-623,421.16-990.24,421.16-285.34-4.23-503.57-65-685.22-158.34-296.36-147-460.67-359.64-555.49-582.57-37-118.18-62.34-261.17-62.34-384.13C94.51,189.6,233.8-78.32,405.3-255.84,659.9-502.74,1019.7-681.61,1395.1-681.61Z" transform="translate(743.05 1359.89)"/><path class="cls-65" d="M1392.51-698.13c225.86-10,455.11,40.33,630.36,122.54,233.35,109.05,403.75,301.35,515.4,491.14,88.45,151.72,154.2,320.34,154.2,488.35C2702.94,699,2581.86,967.37,2398.67,1150c-250.53,249.81-630.34,425.68-1003.76,425.68-287.72-4.12-509.37-65.64-694.05-160.51-298.78-148.38-466.59-363.5-563-590.14-38-119.79-63.77-264.13-63.77-389.15,0-252,140.12-522.7,314.47-703.17C646.06-517.63,1010.85-698.13,1392.51-698.13Z" transform="translate(743.05 1359.89)"/><path class="cls-66" d="M1389.92-714.65C1619-724.36,1850.86-673.39,2029-589.83,2265.5-479.28,2439-285.3,2552.46-92.4c89.66,153.74,155.7,324.72,155.7,495.49,10.2,298.4-112.43,569.91-298.62,755.48C2156,1411.42,1771.8,1588.78,1392.26,1588.78c-290.11-4-515.17-66.27-702.88-162.68-301.2-149.76-472.5-367.37-570.48-597.73C79.9,707,53.7,561.28,53.7,434.22c0-256.11,141-529.63,318.17-713.06C632.22-532.51,1002-714.65,1389.92-714.65Z" transform="translate(743.05 1359.89)"/><path class="cls-67" d="M1387.33-731.17c232.3-9.46,466.76,42.19,647.75,127.09,239.7,112.06,416.27,307.71,531.57,503.73,90.88,155.77,157.2,329.1,157.2,502.62,9.94,301.75-114.25,576.36-303.44,764.92-256.63,255.89-645.14,434.73-1030.8,434.73-292.49-3.91-521-66.88-711.71-164.85-303.62-151.13-478.42-371.23-578-605.31-40-123-66.63-270-66.63-399.15,0-260.25,141.78-536.57,321.85-723C618.38-547.4,993.16-731.17,1387.33-731.17Z" transform="translate(743.05 1359.89)"/><path class="cls-68" d="M1384.74-747.69c235.52-9.21,472.59,43.12,656.45,129.37,242.88,113.55,422.52,310.89,539.65,510,92.09,157.8,158.69,333.49,158.69,509.77,9.68,305.09-116.05,582.8-308.25,774.35C2171.6,1434.74,1778.74,1615.07,1387,1615.07c-294.87-3.81-526.77-67.5-720.54-167C360.38,1295.55,182.09,1073,81,835.16c-41-124.6-68-273-68-404.17,0-264.37,142.61-543.49,325.54-732.84C604.54-562.28,984.31-747.69,1384.74-747.69Z" transform="translate(743.05 1359.89)"/><path class="cls-69" d="M1382.15-764.21c238.75-9,478.41,44.05,665.15,131.65,246,115,428.78,314.07,547.73,516.3,93.3,159.83,160.19,337.87,160.19,516.9,9.42,308.44-117.87,589.25-313.07,783.8-262.73,262-659.94,443.77-1057.84,443.77-297.26-3.7-532.57-68.11-729.37-169.2-308.46-153.86-490.24-379-593-620.46-42-126.2-69.49-276-69.49-409.17,0-268.51,143.44-550.43,329.23-742.73C590.7-577.17,975.47-764.21,1382.15-764.21Z" transform="translate(743.05 1359.89)"/><path class="cls-70" d="M1379.56-780.72c242-8.72,484.24,45,673.85,133.91,249.22,116.56,435,317.26,555.81,522.59C2703.74,37.64,2770.91,218,2770.91,399.83c9.15,311.78-119.69,595.69-317.89,793.23-265.78,265-667.33,448.3-1071.35,448.3-299.65-3.6-538.38-68.74-738.2-171.37C332.58,1314.75,147.3,1087.17,43,842,0,714.14-27.91,563-27.91,427.76c0-272.63,144.27-557.35,332.92-752.62C576.86-592,966.62-780.72,1379.56-780.72Z" transform="translate(743.05 1359.89)"/><path class="cls-71" d="M1377-797.24c245.18-8.47,490.05,45.9,682.54,136.19,252.4,118,441.29,320.44,563.89,528.88C2719.14,31.72,2786.59,214.47,2786.59,399c8.9,315.13-121.49,602.14-322.7,802.67-268.83,268-674.73,452.83-1084.87,452.83C1077,1651,834.84,1585.15,632,1481c-313.3-156.61-502.08-386.68-608-635.62C-20,715.93-48.32,563.46-48.32,426.15c0-276.77,145.11-564.29,336.62-762.51C563-606.94,957.78-797.24,1377-797.24Z" transform="translate(743.05 1359.89)"/><path class="cls-72" d="M1374.39-813.76c248.4-8.22,495.88,46.82,691.23,138.47,255.58,119.55,447.55,323.61,572,535.16,96.93,165.92,164.67,351,164.67,538.33,8.63,318.47-123.31,608.58-327.52,812.1-271.88,271.07-682.13,457.35-1098.39,457.35-304.42-3.4-550-70-755.86-175.72-315.72-158-508-390.55-615.46-643.19-45-131-73.77-284.84-73.77-424.2,0-280.9,145.93-571.22,340.3-772.4C549.19-621.82,948.93-813.76,1374.39-813.76Z" transform="translate(743.05 1359.89)"/><path class="cls-73" d="M1371.8-830.28c251.62-8,501.7,47.75,699.93,140.74,258.76,121,453.81,326.8,580.07,541.46C2750,19.87,2818,207.33,2818,397.38c8.37,321.82-125.13,615-332.34,821.55C2210.7,1493,1796.1,1680.8,1373.72,1680.8c-306.8-3.3-555.78-70.59-764.69-177.9-318.14-159.34-513.91-394.41-623-650.77-46-132.62-75.19-287.8-75.19-429.21,0-285,146.76-578.15,344-782.29C535.35-636.71,940.08-830.28,1371.8-830.28Z" transform="translate(743.05 1359.89)"/><path class="cls-74" d="M1369.21-846.8c254.84-7.72,507.53,48.68,708.63,143C2339.77-581.23,2537.9-373.8,2666-156c99.36,170,167.66,359.79,167.66,552.59,8.11,325.16-126.94,621.48-337.15,831-278,277.14-696.92,466.39-1125.43,466.39-309.19-3.19-561.59-71.2-773.52-180.06C277,1353.16,77.72,1115.6-32.9,855.52-80,721.3-109.53,564.77-109.53,421.31c0-289.16,147.6-585.08,347.68-792.18C521.51-651.59,931.24-846.8,1369.21-846.8Z" transform="translate(743.05 1359.89)"/><path class="cls-75" d="M1366.62-863.32C1624.68-870.79,1880-813.71,2084-718c265.1,124,466.32,333.16,596.23,554,100.57,172,169.16,364.18,169.16,559.74,7.85,328.5-128.75,627.91-342,840.42-281,280.18-704.32,470.92-1138.95,470.92C1056.85,1704,801,1635.26,586.07,1524.85c-323-162.09-525.74-402.14-637.95-665.93C-99.94,723.09-129.93,565.2-129.93,419.7c0-293.3,148.42-592,351.37-802.07C507.67-666.48,922.39-863.32,1366.62-863.32Z" transform="translate(743.05 1359.89)"/><path class="cls-76" d="M1364-879.84c261.28-7.22,519.18,50.54,726,147.57,268.28,125.55,472.57,336.35,604.31,560.33C2796.16,2.09,2865,196.62,2865,394.93c7.59,331.85-130.56,634.36-346.78,849.86-284.08,283.22-711.72,475.44-1152.47,475.44-314-3-573.19-72.44-791.17-184.41-325.41-163.45-531.67-406-645.45-673.51-49.07-137.43-79.48-296.67-79.48-444.23,0-297.42,149.25-598.94,355.05-812C493.83-681.36,913.55-879.84,1364-879.84Z" transform="translate(743.05 1359.89)"/><path class="cls-77" d="M1361.44-896.36c264.5-7,525,51.47,734.72,149.85C2367.62-619.46,2575-407,2708.56-179.9c103,176.06,172.15,373,172.15,574,7.33,335.19-132.38,640.8-351.6,859.29-287.13,286.25-719.12,480-1166,480-316.34-2.88-579-73.06-800-186.58C235.3,1382,25.54,1136.93-89.83,865.71c-50.07-139-80.91-299.64-80.91-449.24,0-301.55,150.09-605.87,358.75-821.85C480-696.25,904.7-896.36,1361.44-896.36Z" transform="translate(743.05 1359.89)"/><path class="cls-78" d="M1358.85-912.88c267.72-6.72,530.83,52.4,743.42,152.12C2376.9-632.2,2587.36-418,2722.76-187.85,2827-9.76,2896.4,189.48,2896.4,393.3c7.06,338.54-134.19,647.25-356.42,868.74-290.18,289.28-726.52,484.49-1179.51,484.49-318.72-2.79-584.79-73.68-808.83-188.76C221.4,1391.57,8.14,1144-108.8,869.1c-51.08-140.64-82.34-302.59-82.34-454.25,0-305.68,150.92-612.8,362.43-831.73C466.15-711.13,895.85-912.88,1358.85-912.88Z" transform="translate(743.05 1359.89)"/><path class="cls-79" d="M1356.26-929.4c270.94-6.47,536.65,53.33,752.12,154.4,277.81,130,491.35,345.89,628.57,579.19,105.42,180.12,175.13,381.72,175.13,588.3,6.81,341.88-136,653.69-361.23,878.17-293.22,292.32-733.91,489-1193,489-321.1-2.68-590.59-74.29-817.66-190.93C207.5,1401.17-9.25,1151.15-127.78,872.5-179.86,730.25-211.55,567-211.55,413.24c0-309.81,151.75-619.73,366.13-841.63C452.31-726,887-929.4,1356.26-929.4Z" transform="translate(743.05 1359.89)"/><path class="cls-80" d="M1353.67-945.91c274.16-6.23,542.48,54.24,760.82,156.67,281,131.55,497.6,349.07,636.65,585.48,106.63,182.15,176.63,386.1,176.63,595.43,6.54,345.23-137.82,660.14-366.05,887.61-296.27,295.36-741.31,493.54-1206.55,493.54-323.49-2.58-596.39-74.92-826.49-193.11C193.6,1410.78-26.65,1158.26-146.75,875.89c-53.09-143.86-85.2-308.51-85.2-464.26,0-313.95,152.58-626.67,369.81-851.52C438.47-740.9,878.16-945.91,1353.67-945.91Z" transform="translate(743.05 1359.89)"/><path class="cls-81" d="M1351.08-962.43c277.38-6,548.3,55.17,769.52,158.94,284.16,133,503.86,352.25,644.73,591.77,107.85,184.18,178.13,390.49,178.13,602.58,6.27,348.57-139.63,666.58-370.87,897C2273.27,1586.3,1823.88,1786,1352.52,1786c-325.87-2.47-602.19-75.53-835.32-195.27C179.7,1420.38-44,1165.37-165.73,879.28c-54.1-145.46-86.62-311.46-86.62-469.27,0-318.07,153.41-633.59,373.5-861.4C424.63-755.79,869.32-962.43,1351.08-962.43Z" transform="translate(743.05 1359.89)"/><path class="cls-82" d="M1348.49-978.95c280.6-5.73,554.13,56.1,778.21,161.22C2414-683.18,2636.82-462.3,2779.52-219.67,2888.58-33.46,2959.14,175.2,2959.14,390c6,351.92-141.44,673-375.68,906.49-302.37,301.43-756.11,502.58-1233.59,502.58-328.25-2.37-608-76.15-844.14-197.45C165.8,1430-61.44,1172.48-184.7,882.68c-55.11-147.07-88.06-314.43-88.06-474.28,0-322.21,154.24-640.53,377.19-871.3C410.79-770.67,860.47-978.95,1348.49-978.95Z" transform="translate(743.05 1359.89)"/><path class="cls-83" d="M1345.9-995.47c283.82-5.48,559.95,57,786.91,163.5,290.51,136.05,516.38,358.61,660.9,604.35C2904-39.39,2974.83,171.64,2974.83,389.23c5.75,355.26-143.26,679.47-380.5,915.92-305.42,304.47-763.5,507.1-1247.1,507.1-330.65-2.26-613.8-76.76-853-199.62-342.35-173.05-573.08-433-697.93-726.56-56.11-148.67-89.48-317.38-89.48-479.28,0-326.34,155.07-647.46,380.88-881.19C397-785.56,851.62-995.47,1345.9-995.47Z" transform="translate(743.05 1359.89)"/><path class="cls-84" d="M1343.32-1012c287-5.23,565.77,58,795.6,165.77,293.69,137.55,522.63,361.8,669,610.64,111.49,190.26,182.62,403.65,182.62,624C2996,747,2845.45,1074.33,2605.2,1313.77c-308.47,307.51-770.9,511.63-1260.62,511.63-333-2.16-619.6-77.39-861.81-201.8C138,1449.19-96.23,1186.7-222.65,889.47c-57.12-150.28-90.92-320.35-90.92-484.3C-313.57,74.7-157.66-249.22,71-485.9,383.12-800.44,842.78-1012,1343.32-1012Z" transform="translate(743.05 1359.89)"/><path class="cls-85" d="M1340.73-1028.51c290.26-5,571.59,58.89,804.3,168,296.86,139.05,528.89,365,677.07,616.93,112.69,192.29,184.1,408,184.1,631.12,5.23,362-146.88,692.37-390.13,934.8-311.52,310.54-778.3,516.16-1274.14,516.16-335.42-2.06-625.4-78-870.64-204-347.18-175.79-584.91-440.77-712.92-741.72C-299.75,741-334,569.56-334,403.56c0-334.6,156.73-661.32,388.26-901C369.28-815.33,833.93-1028.51,1340.73-1028.51Z" transform="translate(743.05 1359.89)"/><path class="cls-86" d="M1338.14-1045c293.48-4.73,577.42,59.82,813,170.32,300,140.56,535.14,368.16,685.15,623.22,113.9,194.32,185.6,412.42,185.6,638.27,5,365.3-148.7,698.81-394.95,944.23-314.57,313.58-785.7,520.68-1287.66,520.68-337.8-2-631.2-78.62-879.47-206.14C110.21,1468.39-131,1200.92-260.6,896.26-319.73,742.77-354.37,570-354.37,402c0-338.74,157.56-668.26,391.94-910.86C355.44-830.21,825.09-1045,1338.14-1045Z" transform="translate(743.05 1359.89)"/><path class="cls-87" d="M1335.55-1061.55c296.7-4.48,583.24,60.75,821.69,172.6,303.22,142.05,541.41,371.34,693.24,629.51,115.12,196.35,187.1,416.8,187.1,645.4,4.7,368.65-150.52,705.25-399.77,953.68-317.62,316.61-793.09,525.2-1301.18,525.2-340.18-1.86-637-79.24-888.3-208.32C96.31,1478-148.41,1208-279.58,899.65c-60.13-155.09-95.2-329.22-95.2-499.32,0-342.86,158.4-675.18,395.64-920.74C341.6-845.1,816.24-1061.55,1335.55-1061.55Z" transform="translate(743.05 1359.89)"/><path class="cls-88" d="M1333-1078.07c299.92-4.23,589.07,61.67,830.39,174.88C2469.74-759.64,2711-528.67,2864.67-267.4,2981-69,3053.26,153.79,3053.26,385.15c4.45,372-152.32,711.69-404.58,963.11C2328,1667.91,1848.19,1878,1334,1878c-342.57-1.75-642.81-79.85-897.12-210.49C82.41,1487.6-165.81,1215.14-298.55,903c-61.15-156.69-96.63-332.17-96.63-504.32,0-347,159.23-682.12,399.33-930.64C327.76-860,807.39-1078.07,1333-1078.07Z" transform="translate(743.05 1359.89)"/><path class="cls-89" d="M1330.37-1094.59c303.14-4,594.89,62.6,839.09,177.15,309.57,145.06,553.92,377.71,709.4,642.09C2996.41-74.94,3069,150.22,3069,384.33c4.18,375.33-154.14,718.14-409.4,972.55-323.72,322.69-807.89,534.25-1328.22,534.25-344.95-1.65-648.61-80.48-905.95-212.66-356.87-181.27-608.58-456.22-742.91-772-62.15-158.3-98.06-335.14-98.06-509.34,0-351.12,160.06-689,403-940.52C313.92-874.87,798.55-1094.59,1330.37-1094.59Z" transform="translate(743.05 1359.89)"/><path class="cls-90" d="M1327.78-1111.1c306.36-3.74,600.72,63.52,847.79,179.42,312.74,146.55,560.17,380.88,717.48,648.38,118.76,202.43,191.59,430,191.59,666.82,3.92,378.67-156,724.58-414.22,982-326.77,325.73-815.29,538.77-1341.74,538.77-347.33-1.54-654.41-81.09-914.78-214.83C54.62,1506.8-200.6,1229.36-336.5,909.83-399.66,749.93-436,571.74-436,395.49c0-355.25,160.89-696,406.71-950.41C300.08-889.75,789.7-1111.1,1327.78-1111.1Z" transform="translate(743.05 1359.89)"/><path class="cls-91" d="M1325.19-1127.62c309.58-3.49,606.54,64.45,856.49,181.7,315.91,148,566.42,384.06,725.56,654.66,120,204.47,193.08,434.34,193.08,674,3.66,382-157.76,731-419,991.43C2351.47,1702.89,1858.6,1917.42,1326,1917.42c-349.72-1.44-660.21-81.71-923.61-217-361.7-184-620.41-463.94-757.9-787.18-64.16-161.51-100.91-341.06-100.91-519.35C-456.39,34.49-294.67-309-46-566.43,286.24-904.64,780.86-1127.62,1325.19-1127.62Z" transform="translate(743.05 1359.89)"/><path class="cls-92" d="M1322.6-1144.14c312.8-3.24,612.37,65.38,865.18,184,319.1,149.55,572.69,387.25,733.66,661C3042.62-92.72,3116,139.51,3116,381.89c3.4,385.36-159.58,737.47-423.85,1000.86-332.86,331.8-830.08,547.81-1368.78,547.81-352.1-1.33-666-82.32-932.44-219.17C26.82,1526-235.39,1243.58-374.45,916.62c-65.17-163.11-102.35-344-102.35-524.36,0-363.51,162.55-709.84,414.09-970.19C272.4-919.52,772-1144.14,1322.6-1144.14Z" transform="translate(743.05 1359.89)"/><path class="cls-93" d="M1320-1160.66c316-3,618.19,66.31,873.88,186.25,322.27,151,578.94,390.43,741.74,667.24C3058-98.65,3131.69,135.94,3131.69,381.07,3134.83,769.78,2970.3,1125,2703,1391.37c-335.91,334.83-837.48,552.34-1382.3,552.34-354.49-1.24-671.81-83-941.27-221.35C12.92,1535.61-252.78,1250.69-393.43,920-459.6,755.3-497.2,573-497.2,390.65-497.2,23-333.82-326.12-79.43-589.43,258.56-934.41,763.16-1160.66,1320-1160.66Z" transform="translate(743.05 1359.89)"/><path class="cls-94" d="M1317.42-1177.18c319.24-2.74,624,67.24,882.58,188.53C2525.44-836.1,2785.2-595,2949.82-315.12c123.6,210.55,197.56,447.49,197.56,695.37,2.88,392.06-163.2,750.37-433.48,1019.74-339,337.87-844.88,556.87-1395.82,556.87-356.87-1.14-677.61-83.57-950.09-223.53C-1,1545.21-270.18,1257.8-412.4,923.41-479.58,757.09-517.61,573.48-517.61,389c0-371.78,164.22-723.71,421.47-990C244.72-949.29,754.32-1177.18,1317.42-1177.18Z" transform="translate(743.05 1359.89)"/><path class="cls-95" d="M1314.83-1193.7c322.46-2.49,629.84,68.16,891.28,190.8,328.62,154,591.45,396.79,757.9,679.82,124.82,212.58,199.06,451.88,199.06,702.52,2.61,395.4-165,756.81-438.3,1029.17-342,340.91-852.28,561.39-1409.34,561.39-359.25-1-683.41-84.18-958.92-225.7-371.39-189.49-644.08-479.39-787.89-817.5C-499.57,758.88-538,573.92-538,387.42c0-375.91,165-730.63,425.15-999.86C230.88-964.18,745.47-1193.7,1314.83-1193.7Z" transform="translate(743.05 1359.89)"/><path class="cls-96" d="M1312.24-1210.22c325.68-2.24,635.67,69.09,900,193.08,331.79,155.55,597.71,400,766,686.11,126,214.61,200.55,456.26,200.55,709.65,2.36,398.75-166.83,763.26-443.11,1038.62-345.06,343.94-859.67,565.91-1422.85,565.91-361.65-.93-689.22-84.8-967.76-227.87C-28.78,1564.42-305,1272-450.35,930.2c-69.2-169.53-108.06-355.85-108.06-544.39,0-380,165.87-737.56,428.84-1009.75C217-979.06,736.63-1210.22,1312.24-1210.22Z" transform="translate(743.05 1359.89)"/><path class="cls-97" d="M1309.66-1226.74c328.89-2,641.48,70,908.66,195.35,335,157.06,604,403.16,774.07,692.41,127.24,216.63,202.05,460.64,202.05,716.79,2.09,402.09-168.64,769.7-447.93,1048.05-348.11,347-867.07,570.43-1436.37,570.43-364-.82-695-85.41-976.59-230C-42.67,1574-322.36,1279.13-469.33,933.59c-70.2-171.13-109.49-358.8-109.49-549.4C-578.82,0-412.11-360.3-146.29-635.45,203.21-993.95,727.78-1226.74,1309.66-1226.74Z" transform="translate(743.05 1359.89)"/><path class="cls-98" d="M1307.07-1243.26c332.11-1.74,647.31,71,917.36,197.63,338.15,158.55,610.23,406.34,782.15,698.69C3135-128.27,3210.13,118.09,3210.13,377c1.83,405.44-170.46,776.15-452.75,1057.49-351.16,350-874.47,575-1449.89,575-366.41-.72-700.82-86-985.42-232.22-378.64-193.6-661.83-491-810.37-840.23-71.21-172.74-110.92-361.77-110.92-554.41,0-388.3,167.53-751.42,436.22-1029.53C189.37-1008.83,718.93-1243.26,1307.07-1243.26Z" transform="translate(743.05 1359.89)"/><path class="cls-99" d="M1304.48-1259.77c335.33-1.5,653.13,71.87,926.06,199.9,341.32,160,616.48,409.52,790.24,705,129.66,220.69,205,469.41,205,731.07,1.57,408.78-172.27,782.59-457.56,1066.92-354.21,353.06-881.87,579.48-1463.41,579.48-368.8-.61-706.62-86.65-994.25-234.39-381.06-195-667.74-494.84-817.87-847.81C-579.49,766-619.62,575.66-619.62,381c0-392.43,168.36-758.36,439.9-1039.42C175.53-1023.72,710.09-1259.77,1304.48-1259.77Z" transform="translate(743.05 1359.89)"/><path class="cls-100" d="M1301.89-1276.29c338.56-1.25,659,72.8,934.76,202.17,344.5,161.55,622.74,412.7,798.32,711.27C3165.85-140.12,3241.5,111,3241.5,375.36c1.31,412.13-174.09,789-462.37,1076.37-357.27,356.09-889.27,584-1476.94,584-371.18-.52-712.42-87.27-1003.07-236.56-383.49-196.34-673.66-498.71-825.37-855.4C-599.47,767.82-640,576.09-640,379.35-640-17.21-470.83-385.93-196.43-670,161.69-1038.6,701.24-1276.29,1301.89-1276.29Z" transform="translate(743.05 1359.89)"/><path class="cls-101" d="M1299.3-1292.81c341.78-1,664.78,73.73,943.46,204.45,347.67,163,629,415.88,806.4,717.56,132.09,224.75,208,478.18,208,745.35,1,415.47-175.9,795.47-467.19,1085.8-360.32,359.12-896.67,588.53-1490.46,588.53C926,2048.46,581.32,1961,287.64,1810.14c-385.91-197.71-679.58-502.57-832.87-863-74.22-177.56-115.2-370.64-115.2-569.43,0-400.69,170-772.22,447.28-1059.2C147.85-1053.49,692.4-1292.81,1299.3-1292.81Z" transform="translate(743.05 1359.89)"/><path class="cls-102" d="M1296.71-1309.33c345-.75,670.61,74.66,952.15,206.73C2599.71-938,2884.12-683.54,3063.35-378.76c133.3,226.79,209.52,482.57,209.52,752.49.79,418.82-177.71,801.92-472,1095.24C2437.5,1831.13,1896.8,2062,1296.89,2062c-376-.31-724-88.51-1020.73-240.91C-112.17,1622-409.33,1314.68-564.2,950.56-639.44,771.4-680.84,577-680.84,376.13-680.84-28.7-510-403-229.86-693,134-1068.37,683.55-1309.33,1296.71-1309.33Z" transform="translate(743.05 1359.89)"/><path class="cls-103" d="M1294.12-1325.85c348.22-.5,676.43,75.58,960.85,209,354,166,641.51,422.25,822.57,730.14,134.52,228.81,211,487,211,759.63.52,422.15-179.53,808.36-476.82,1104.67-366.42,365.2-911.47,597.58-1517.5,597.58C915.91,2075,564.41,1986,264.68,1832.09-126.07,1631.63-426.73,1321.79-583.18,954-659.42,773.19-701.24,577.4-701.24,374.51c0-408.95,171.69-786.08,454.66-1079C120.17-1083.26,674.71-1325.85,1294.12-1325.85Z" transform="translate(743.05 1359.89)"/><path class="cls-104" d="M1291.53-1342.37c351.44-.25,682.26,76.51,969.55,211.28,357.2,167.55,647.77,425.42,830.65,736.43,135.73,230.83,212.52,491.33,212.52,766.76.26,425.5-181.34,814.81-481.64,1114.11-369.47,368.24-918.87,602.1-1531,602.1-380.72-.1-735.63-89.74-1038.39-245.25C-140,1641.24-444.12,1328.9-602.15,957.35-679.4,775-721.64,577.84-721.64,372.9c0-413.09,172.52-793,458.35-1088.87C106.33-1098.14,665.86-1342.37,1291.53-1342.37Z" transform="translate(743.05 1359.89)"/><ellipse class="cls-105" cx="2031.99" cy="1731.17" rx="2030.99" ry="1730.17"/></g><circle class="cls-106" cx="1187.56" cy="1950.99" r="222.26"/></svg>