<?xml version="1.0" encoding="utf-8"?>
<!-- Generator: Adobe Illustrator 24.1.1, SVG Export Plug-In . SVG Version: 6.00 Build 0)  -->
<svg version="1.1" id="Layer_1" xmlns="http://www.w3.org/2000/svg" xmlns:xlink="http://www.w3.org/1999/xlink" x="0px" y="0px"
	 viewBox="0 0 1158.6 708" style="enable-background:new 0 0 1158.6 708;" xml:space="preserve">
<style type="text/css">
	.st0{fill:none;stroke:url(#SVGID_1_);stroke-width:30;stroke-miterlimit:10;}
	.st1{fill:none;stroke:url(#SVGID_2_);stroke-width:30;stroke-miterlimit:10;}
	.st2{fill:none;stroke:url(#SVGID_3_);stroke-width:8;stroke-miterlimit:10;}
	.st3{fill:#5E60CE;}
	.st4{fill:none;stroke:url(#SVGID_4_);stroke-width:30;stroke-miterlimit:10;}
	.st5{fill:none;stroke:url(#SVGID_5_);stroke-width:30;stroke-miterlimit:10;}
	.st6{fill:url(#SVGID_6_);}
	.st7{fill:url(#SVGID_7_);}
	.st8{fill:url(#SVGID_8_);}
	.st9{fill:url(#SVGID_9_);}
	.st10{fill:url(#SVGID_10_);}
	.st11{fill:#64DFDF;}
	.st12{fill:#FFFFFF;}
	.st13{fill:#72C7EE;}
	.st14{fill:#4BC6F3;}
	.st15{fill:#7400B8;}
	.st16{fill:#6930C3;}
	.st17{fill:#80FFDB;}
</style>
<g id="Layer_1_2_">
	
		<linearGradient id="SVGID_1_" gradientUnits="userSpaceOnUse" x1="1170.0826" y1="-79.7738" x2="1428.0422" y2="-79.7738" gradientTransform="matrix(1 0 0 -1 -380.7 201.7)">
		<stop  offset="0" style="stop-color:#80FFDB"/>
		<stop  offset="0.88" style="stop-color:#4FC7E2"/>
		<stop  offset="1" style="stop-color:#48BFE3"/>
	</linearGradient>
	<path class="st0" d="M1032.9,191c0,0-47.7,170-117.3,170c-67.5,0-111.7-170-111.7-170"/>
	
		<linearGradient id="SVGID_2_" gradientUnits="userSpaceOnUse" x1="493.5399" y1="10.85" x2="1523.2" y2="10.85" gradientTransform="matrix(1 0 0 -1 -380.7 201.7)">
		<stop  offset="0" style="stop-color:#80FFDB"/>
		<stop  offset="0.88" style="stop-color:#4FC7E2"/>
		<stop  offset="1" style="stop-color:#48BFE3"/>
	</linearGradient>
	<path class="st1" d="M1142.5,360.9c-67.5,0-109.6-170-109.6-170s-43.7-170-113.6-170c-71.1,0-115.4,170-115.4,170
		s-42.7,170-111.3,170c-70.1,0-113.7-175.9-113.7-175.9s-43-164.2-112-164.2C397.4,20.8,354,182,354,182s-47.4,178.9-117,178.9
		c-67.5,0-109.6-170-109.6-170"/>
	
		<linearGradient id="SVGID_3_" gradientUnits="userSpaceOnUse" x1="843" y1="-112.6" x2="843" y2="-112.6" gradientTransform="matrix(1 0 0 -1 -380.7 201.7)">
		<stop  offset="0" style="stop-color:#53C0AE"/>
		<stop  offset="1" style="stop-color:#88D3E0"/>
	</linearGradient>
	<path class="st2" d="M462.3,314.3"/>
	<path class="st3" d="M464.7,349.1c-0.5-0.9-0.8-1.4-0.8-1.4h1.3c0,0-43.4,85-112.9,85c0,0,100.7,4.7,112.3-14.5
		c11.9,19.2,114.7,14.5,114.7,14.5C513.6,432.9,470.7,360,464.7,349.1z"/>
	
		<linearGradient id="SVGID_4_" gradientUnits="userSpaceOnUse" x1="396.7" y1="10.8" x2="974.0633" y2="10.8" gradientTransform="matrix(1 0 0 -1 -380.7 201.7)">
		<stop  offset="0" style="stop-color:#80FFDB"/>
		<stop  offset="0.88" style="stop-color:#4FC7E2"/>
		<stop  offset="1" style="stop-color:#48BFE3"/>
	</linearGradient>
	<path class="st4" d="M578.8,185c0,0-43.4,175.9-112.9,175.9c-67.5,0-109.6-170-109.6-170s-43.7-170-113.6-170
		c-71.1,0-115.4,170-115.4,170s-42.7,170-111.3,170"/>
	
		<linearGradient id="SVGID_5_" gradientUnits="userSpaceOnUse" x1="493.5399" y1="10.75" x2="1523.2" y2="10.75" gradientTransform="matrix(1 0 0 -1 -380.7 201.7)">
		<stop  offset="0" style="stop-color:#80FFDB"/>
		<stop  offset="0.88" style="stop-color:#4FC7E2"/>
		<stop  offset="1" style="stop-color:#48BFE3"/>
	</linearGradient>
	<path class="st5" d="M1142.5,361c-67.5,0-109.6-170-109.6-170S989.2,21,919.3,21C848.3,20.9,804,191,804,191s-42.7,170-111.3,170
		C622.6,361,579,185.1,579,185.1S536,20.9,467,20.9c-69.6,0-113,161.2-113,161.2S306.6,361,237,361c-67.5,0-109.6-170-109.6-170"/>
	
		<linearGradient id="SVGID_6_" gradientUnits="userSpaceOnUse" x1="569.6" y1="-365.7" x2="727.5" y2="-365.7" gradientTransform="matrix(1 0 0 -1 -380.7 201.7)">
		<stop  offset="0" style="stop-color:#80FFDB"/>
		<stop  offset="0.88" style="stop-color:#4FC7E2"/>
		<stop  offset="1" style="stop-color:#48BFE3"/>
	</linearGradient>
	<path class="st6" d="M188.9,643.6V536.1c0-13.3,4.1-24.2,12.2-32.7c8.1-8.5,18.6-12.6,31.5-12.6c15.3,0,27,7,35.3,21.1
		c5.1-7.6,10.4-13,16.1-16.2s12.8-4.9,21.3-4.9c13.4,0,23.7,4.2,30.8,12.6c7.1,8.5,10.7,20.6,10.7,36.6v103.7h-44.4v-97
		c0-4.8-0.4-8-1.2-9.5s-2.3-2.3-4.7-2.3c-4.4,0-6.5,3.7-6.5,11.2v97.8h-44.4v-97c0-4.8-0.4-7.9-1.2-9.5c-0.8-1.7-2.3-2.4-4.7-2.4
		c-4.4,0-6.5,4-6.5,12v97h-44.3L188.9,643.6L188.9,643.6z"/>
	
		<linearGradient id="SVGID_7_" gradientUnits="userSpaceOnUse" x1="751.3" y1="-365.5" x2="860" y2="-365.5" gradientTransform="matrix(1 0 0 -1 -380.7 201.7)">
		<stop  offset="0" style="stop-color:#80FFDB"/>
		<stop  offset="0.88" style="stop-color:#4FC7E2"/>
		<stop  offset="1" style="stop-color:#48BFE3"/>
	</linearGradient>
	<path class="st7" d="M427.8,568.8v39.4H415v35.5h-44.4v-94.9c0-18.4,5.1-32.7,15.1-42.8c10-10.1,24.1-15.3,42.3-15.3
		c17.5,0,30.4,4.6,38.8,13.8c8.4,9.2,12.5,23.4,12.5,42.7v96.4h-44.4v-93.4c0-5.8-0.7-9.9-2-12.2c-1.4-2.2-3.9-3.4-7.4-3.4
		c-6.9,0-10.4,5.2-10.4,15.6v18.6L427.8,568.8z"/>
	
		<linearGradient id="SVGID_8_" gradientUnits="userSpaceOnUse" x1="886.8" y1="-367.3" x2="1005.8" y2="-367.3" gradientTransform="matrix(1 0 0 -1 -380.7 201.7)">
		<stop  offset="0" style="stop-color:#80FFDB"/>
		<stop  offset="0.88" style="stop-color:#4FC7E2"/>
		<stop  offset="1" style="stop-color:#48BFE3"/>
	</linearGradient>
	<path class="st8" d="M550.5,534.5v109.1h-44.4V494.4h57c17.3,0,30.8,4.3,40.3,12.9c10.6,9.6,15.9,21.9,15.9,36.7
		c0,15.1-6.6,27.8-19.8,38.1l25.6,61.5h-46.6l-21.6-48.1v-38.3h3.5c9.3,0,14-4,14-12.1c0-7.1-5.3-10.6-16.1-10.6L550.5,534.5z"/>
	
		<linearGradient id="SVGID_9_" gradientUnits="userSpaceOnUse" x1="1160.9" y1="-365.65" x2="1268.8" y2="-365.65" gradientTransform="matrix(1 0 0 -1 -380.7 201.7)">
		<stop  offset="0" style="stop-color:#80FFDB"/>
		<stop  offset="0.88" style="stop-color:#4FC7E2"/>
		<stop  offset="1" style="stop-color:#48BFE3"/>
	</linearGradient>
	<path class="st9" d="M780.2,643.6v-96.8c0-17,5.1-30.5,15.3-40.7s23.7-15.3,40.6-15.3s29.7,5,38.6,14.9
		c8.8,9.9,13.4,24.1,13.4,42.8v95.4h-44.4v-95.4c0-9.1-3.2-13.7-9.7-13.7c-6.2,0-9.4,4.6-9.4,13.7v95.4h-44.3L780.2,643.6z"/>
	
		<linearGradient id="SVGID_10_" gradientUnits="userSpaceOnUse" x1="1292.5999" y1="-367.3001" x2="1378.0999" y2="-367.3001" gradientTransform="matrix(1 0 0 -1 -380.7 201.7)">
		<stop  offset="0" style="stop-color:#80FFDB"/>
		<stop  offset="0.88" style="stop-color:#4FC7E2"/>
		<stop  offset="1" style="stop-color:#48BFE3"/>
	</linearGradient>
	<path class="st10" d="M994.6,552.4v33.2h-29c-3.9,0-6.7,0.6-8.4,1.7c-1.7,1.2-2.4,3.1-2.4,5.9c0,3.1,0.9,5.2,2.5,6.2
		c1.7,1.1,5.1,1.5,10.3,1.5h29.8v42.7h-34.9c-16.4,0-29-3.9-37.6-11.8c-8.7-7.9-13-19.2-13-33.9v-58.5c0-14.3,4.1-25.3,12.2-33.2
		c8.2-7.9,19.7-11.8,34.6-11.8h38.6v42.9H969c-7.7,0-11.5,2.4-11.5,7.4c0,2.9,0.9,5,2.7,6c1.8,1.1,5.1,1.7,9.7,1.7L994.6,552.4
		L994.6,552.4z"/>
	<g>
		<polygon class="st11" points="702.5,466.9 684.1,500.3 720.9,500.3 		"/>
		<path class="st12" d="M700.4,465.6c-6.1,11.1-12.3,22.3-18.5,33.4c-0.7,1.2-0.2,2.7,1,3.4c0.4,0.2,0.8,0.3,1.2,0.3H721
			c1.4,0,2.5-1.2,2.5-2.5c0-0.4-0.1-0.8-0.3-1.2c-6.2-11.1-12.3-22.3-18.5-33.4c-1.5-2.8-5.8-0.3-4.3,2.5l18.5,33.4l2.1-3.7h-37
			l2.1,3.7l18.5-33.4C706.2,465.3,701.9,462.8,700.4,465.6z"/>
		<polygon class="st3" points="702.5,466.9 721.9,500.3 740.3,494.4 		"/>
		<path class="st12" d="M700.4,468.1l19.4,33.4c0.6,1,1.7,1.4,2.8,1.1l18.5-5.9c1.3-0.4,2.1-1.8,1.7-3.1c-0.2-0.6-0.6-1.1-1.1-1.4
			l-37.8-27.5c-2.6-1.9-5.1,2.4-2.5,4.3l37.8,27.5c0.2-1.5,0.4-3,0.6-4.5l-18.5,5.9l2.8,1.1l-19.4-33.4
			C703,462.9,698.8,465.3,700.4,468.1z"/>
		<polygon class="st13" points="702.7,466.9 683.4,500.3 665,494.4 		"/>
		<path class="st12" d="M700.4,465.3c-6.5,11.1-12.9,22.3-19.4,33.4l2.8-1.1l-18.5-5.9c0.2,1.5,0.4,3,0.6,4.5l37.8-27.5
			c2.6-1.9,0.1-6.2-2.5-4.3L663.4,492c-1.2,0.7-1.6,2.3-0.8,3.4c0.3,0.5,0.8,0.9,1.4,1.1l18.5,5.9c1.1,0.3,2.2-0.2,2.8-1.1
			l19.3-33.4C706.2,465.1,702,462.6,700.4,465.3z"/>
		<polygon class="st14" points="702.5,701.6 674.1,664.4 730.9,664.4 		"/>
		<path class="st12" d="M704.6,700.4l-28.4-37.2l-2.1,3.7h56.7l-2.1-3.7l-28.4,37.2c-1.9,2.5,2.4,5,4.3,2.5l28.4-37.3
			c1.2-1.5-0.4-3.7-2.1-3.7h-56.7c-1.7,0-3.3,2.2-2.1,3.7l28.4,37.2C702.3,705.4,706.6,702.9,704.6,700.4z"/>
		<polygon class="st15" points="702.5,701.6 731.8,664.4 760.2,654.3 		"/>
		<path class="st12" d="M704.3,703.4l22.7-28.9l5.1-6.5l1.2-1.5c0.7-0.8-1.8,0.7-0.4,0.2l19-6.7l8.9-3.2l-2.4-4.2
			c-18.5,15.2-37,30.4-55.5,45.6l-2.1,1.7C698.3,701.9,701.8,705.4,704.3,703.4l55.5-45.5l2.1-1.7c1.9-1.6-0.1-5-2.4-4.2l-16.3,5.8
			l-9.7,3.5c-1.1,0.4-2.8,0.7-3.6,1.7l-24.3,30.9c-1.6,2-3.2,4.1-4.8,6.1C698.8,702.4,702.3,705.9,704.3,703.4z"/>
		<polygon class="st11" points="702.7,701.6 673.5,664.4 645.1,654.3 		"/>
		<path class="st12" d="M704.5,699.9L681.8,671l-5.1-6.5c-0.8-1-1.4-2-2.6-2.5l-18-6.4l-10.3-3.6c-2.3-0.8-4.3,2.6-2.4,4.2
			l55.5,45.6l2.1,1.7C703.4,705.4,707,701.9,704.5,699.9L649,654.3l-2.1-1.7l-2.4,4.2l16.3,5.8l9.7,3.5l2.2,0.8
			c0.7,0.3-1.2-1-0.9-0.5l0.4,0.5l24.8,31.5l4.1,5.2C703,705.9,706.5,702.4,704.5,699.9z"/>
		<polygon class="st11" points="732.1,664.4 673.2,664.4 683.1,500.3 722.1,500.3 		"/>
		<path class="st12" d="M732.1,661.9h-58.9l2.5,2.5l3.5-58.3c1.8-29.8,3.6-59.6,5.4-89.4c0.3-5.4,0.7-10.9,1-16.3l-2.5,2.5h39
			l-2.5-2.5l3.5,58.3c1.8,29.8,3.6,59.6,5.4,89.4c0.3,5.4,0.6,10.9,1,16.3c0.2,3.2,5.2,3.2,5,0L731,606c-1.8-29.8-3.6-59.6-5.4-89.4
			l-1-16.3c0-1.4-1.1-2.5-2.5-2.5h-39c-1.4,0-2.5,1.1-2.5,2.5l-3.5,58.3c-1.8,29.8-3.6,59.6-5.4,89.4l-1,16.3c0,1.4,1.1,2.5,2.5,2.5
			h58.9C735.3,666.9,735.3,661.9,732.1,661.9z"/>
		<polygon class="st16" points="760.2,654.3 732.1,664.4 722.1,500.3 740.3,494.4 		"/>
		<path class="st12" d="M759.5,651.9L731.4,662l3.1,2.4L731,606c-1.8-29.8-3.6-59.6-5.4-89.4l-1-16.3l-1.8,2.4l18.2-5.9l-3.1-2.4
			l7.3,58.8c3.6,29.2,7.3,58.5,10.9,87.7c0.6,4.5,1.1,9,1.7,13.5c0.4,3.1,5.4,3.2,5,0c-2.4-19.6-4.9-39.2-7.3-58.8l-10.9-87.7
			c-0.6-4.5-1.1-9-1.7-13.5c-0.2-1.5-1.4-2.9-3.1-2.4l-18.2,5.9c-1.1,0.3-1.8,1.3-1.8,2.4l3.5,58.3c1.8,29.8,3.6,59.6,5.4,89.4
			c0.3,5.4,0.6,10.9,1,16.3c0.1,1.5,1.5,2.9,3.1,2.4l28.1-10.1C763.8,655.6,762.5,650.8,759.5,651.9z"/>
		<polygon class="st17" points="673.2,664.4 645.1,654.3 665,494.4 683.1,500.3 		"/>
		<path class="st12" d="M673.8,662l-28.1-10.1l1.8,2.4l7.3-58.8c3.6-29.2,7.3-58.5,10.9-87.7c0.6-4.5,1.1-9,1.7-13.5l-3.1,2.4
			l18.2,5.9l-1.8-2.4l-3.5,58.3c-1.8,29.8-3.6,59.6-5.4,89.4l-1,16.3c-0.2,3.2,4.8,3.2,5,0l3.5-58.3c1.8-29.8,3.6-59.6,5.4-89.4
			c0.3-5.4,0.7-10.9,1-16.3c0-1.1-0.7-2.1-1.8-2.4l-18.2-5.9c-1.7-0.6-2.9,0.9-3.1,2.4c-2.4,19.6-4.9,39.2-7.3,58.8
			c-3.6,29.2-7.3,58.5-10.9,87.7c-0.6,4.5-1.1,9-1.7,13.5c0,1.1,0.7,2.1,1.8,2.4l28.1,10.1C675.5,667.8,676.8,663.1,673.8,662z"/>
	</g>
</g>
</svg>
